{"glyphs":{"0":{"ha":888,"x_min":90,"x_max":799,"o":"m 90 231 l 90 783 q 158 956 90 896 q 335 1017 226 1017 l 563 1017 q 785 874 740 1017 q 797 786 797 833 l 797 231 q 735 56 797 113 q 561 0 674 0 l 333 0 q 158 56 225 0 q 90 231 90 113 m 218 240 q 255 151 218 178 q 346 124 292 124 l 549 124 q 669 239 669 124 l 669 778 q 550 893 669 893 l 344 893 q 249 860 279 893 q 218 778 218 826 l 218 240 z "},"1":{"ha":506,"x_min":51,"x_max":403,"o":"m 403 1017 l 403 0 l 275 0 l 275 879 l 51 811 l 51 900 l 275 1017 l 403 1017 z "},"2":{"ha":825,"x_min":51,"x_max":763,"o":"m 51 906 l 51 1000 q 474 1031 267 1031 q 718 901 643 1031 q 761 744 761 829 q 721 576 761 660 q 627 426 681 492 q 501 293 574 361 q 296 124 397 196 l 761 124 l 761 0 l 61 0 l 61 115 q 303 297 196 206 q 474 454 410 388 q 585 598 539 521 q 632 744 632 675 q 589 859 632 813 q 456 906 546 906 l 51 906 z "},"3":{"ha":821,"x_min":39,"x_max":725,"o":"m 474 -10 l 392 -10 q 367 -10 375 -10 q 321 -9 358 -10 q 269 -8 283 -8 q 224 -5 256 -7 q 176 0 193 -3 q 133 7 158 3 q 47 29 92 14 l 49 115 l 446 115 q 582 171 558 115 q 594 235 594 196 l 594 307 q 454 442 594 438 l 133 453 l 133 553 l 454 567 q 597 694 597 574 l 597 778 q 575 847 597 819 q 454 896 538 896 l 39 896 l 39 981 q 338 1021 151 1021 q 483 1019 406 1021 q 659 953 594 1018 q 724 786 724 889 l 724 696 q 629 506 724 543 q 724 303 724 451 l 724 228 q 474 -10 724 -10 z "},"4":{"ha":843,"x_min":25,"x_max":819,"o":"m 572 378 l 572 651 l 621 756 l 700 756 l 700 378 l 818 378 l 818 278 l 700 250 l 700 3 l 572 3 l 572 250 l 74 250 l 26 311 l 449 1017 l 596 1017 l 217 378 l 572 378 z "},"5":{"ha":835,"x_min":99,"x_max":760,"o":"m 236 586 q 407 629 278 629 q 483 628 444 629 q 556 626 521 626 q 635 607 590 625 q 706 557 679 589 q 758 389 758 494 l 758 235 q 735 117 758 167 q 675 43 713 68 q 524 -6 604 -6 q 306 0 382 -6 q 99 28 231 6 l 99 125 l 513 125 q 603 160 576 125 q 631 246 631 196 l 631 382 q 624 444 631 428 q 608 471 617 460 q 588 489 600 482 q 515 504 560 504 l 324 504 q 249 480 279 504 q 218 407 218 456 l 101 407 l 132 1017 l 726 1017 l 726 893 l 251 893 l 236 586 z "},"6":{"ha":860,"x_min":83,"x_max":783,"o":"m 132 156 q 121 186 132 156 q 97 310 110 215 q 85 535 85 406 q 105 764 85 665 q 161 917 125 863 q 324 1024 229 1022 q 381 1025 353 1025 q 749 997 564 1025 l 749 901 l 363 901 q 268 840 301 901 q 226 725 235 781 q 213 572 214 636 q 554 600 413 600 q 740 536 682 600 q 782 386 782 489 l 782 211 q 553 -1 782 -1 l 347 -1 q 261 13 299 -1 q 189 62 224 26 q 132 156 154 97 m 213 479 q 235 250 213 319 q 303 139 261 164 q 364 122 329 122 l 543 122 q 618 136 596 122 q 656 228 656 161 l 656 379 q 626 458 656 436 q 544 479 596 479 l 213 479 z "},"7":{"ha":761,"x_min":39,"x_max":724,"o":"m 39 893 l 39 1017 l 681 1017 l 722 944 l 363 0 l 215 0 l 561 893 l 39 893 z "},"8":{"ha":876,"x_min":97,"x_max":781,"o":"m 97 219 l 97 346 q 213 497 97 463 q 143 546 169 513 q 97 693 97 603 l 97 783 q 163 969 97 915 q 346 1024 228 1024 l 551 1024 q 724 967 667 1024 q 781 783 781 910 l 781 697 q 769 624 782 661 q 676 536 744 550 q 724 510 703 531 q 758 461 746 489 q 781 351 781 404 l 781 221 q 672 24 781 72 q 550 0 618 0 l 346 0 q 227 18 276 0 q 153 59 178 36 q 115 117 129 82 q 97 219 97 163 m 225 222 q 356 122 225 122 l 538 122 q 619 148 586 122 q 653 222 653 174 l 653 354 q 621 433 653 406 q 542 460 589 460 l 342 460 q 258 435 290 460 q 225 354 225 410 l 225 222 m 225 686 q 246 619 225 646 q 342 578 279 578 l 540 578 q 653 686 653 578 l 653 772 q 625 873 653 843 q 539 903 597 903 l 356 903 q 256 878 286 903 q 225 772 225 853 l 225 686 z "},"9":{"ha":860,"x_min":78,"x_max":776,"o":"m 78 638 l 78 811 q 308 1024 78 1024 l 513 1024 q 599 1010 561 1024 q 672 961 638 997 q 728 867 706 925 q 776 489 776 739 q 624 26 776 124 q 539 -1 583 0 q 454 -3 494 -3 q 111 25 244 -3 l 111 121 l 499 121 q 562 145 535 121 q 605 204 589 169 q 631 286 621 239 q 649 451 646 361 q 343 422 449 422 q 190 439 238 422 q 119 488 143 456 q 78 638 78 544 m 204 643 q 234 565 204 588 q 317 543 264 543 l 649 543 q 574 871 649 803 q 497 900 542 900 l 317 900 q 242 886 264 900 q 204 794 204 861 l 204 643 z "},"\u0000":{"ha":1033,"x_min":129,"x_max":906,"o":"m 885 703 l 535 369 l 885 35 l 885 703 m 167 18 l 871 18 l 519 356 l 167 18 m 149 31 l 504 369 l 149 704 l 149 31 m 872 719 l 163 719 l 519 383 l 872 719 m 129 0 l 129 738 l 904 738 l 904 0 l 129 0 z "},"\r":{"ha":1297,"x_min":0,"x_max":0,"o":""}," ":{"ha":347,"x_min":0,"x_max":0,"o":""},"!":{"ha":375,"x_min":107,"x_max":263,"o":"m 108 32 l 108 124 q 142 158 108 158 l 231 158 q 254 149 246 158 q 263 124 263 139 l 263 32 q 231 0 263 0 l 142 0 q 117 9 126 0 q 108 32 108 18 m 114 1015 l 257 1015 l 244 272 l 125 272 l 114 1015 z "},"\"":{"ha":551,"x_min":110,"x_max":443,"o":"m 238 1017 l 238 924 l 224 738 l 126 738 l 110 924 l 110 1017 l 238 1017 m 315 1017 l 442 1017 l 442 924 l 428 738 l 331 738 l 315 924 l 315 1017 z "},"#":{"ha":967,"x_min":25,"x_max":943,"o":"m 26 314 l 39 403 l 258 403 l 292 615 l 74 615 l 88 704 l 307 704 l 358 1017 l 447 1017 l 396 704 l 610 704 l 660 1017 l 749 1017 l 699 704 l 943 704 l 928 615 l 683 615 l 650 401 l 894 401 l 881 313 l 635 313 l 583 0 l 494 0 l 546 313 l 331 314 l 279 0 l 190 0 l 242 314 l 26 314 m 347 403 l 561 401 l 594 615 l 381 615 l 347 403 z "},"$":{"ha":796,"x_min":71,"x_max":726,"o":"m 688 890 l 361 903 q 333 903 350 903 q 292 899 315 903 q 246 883 269 896 q 199 769 199 857 l 199 689 q 335 564 199 564 l 501 564 q 703 451 656 564 q 725 317 725 396 l 725 229 q 631 31 725 85 q 453 -11 556 -11 q 428 -11 440 -11 l 428 -125 l 336 -125 l 336 -6 q 103 25 197 7 l 103 122 q 234 117 111 122 q 433 113 357 113 q 597 228 597 113 l 597 311 q 574 403 597 371 q 489 436 550 436 l 322 436 q 99 551 154 436 q 71 683 71 608 l 71 774 q 150 972 74 917 q 336 1025 218 1022 l 336 1144 l 428 1144 l 428 1021 q 688 990 521 1015 l 688 890 z "},"%":{"ha":1328,"x_min":54,"x_max":1275,"o":"m 54 661 l 54 842 q 94 975 54 933 q 236 1017 135 1017 l 376 1017 q 515 975 475 1017 q 554 842 554 933 l 554 661 q 515 526 554 568 q 374 485 475 485 l 233 485 q 94 526 133 485 q 54 661 54 568 m 157 667 q 174 603 157 619 q 239 588 192 588 l 368 588 q 437 604 422 588 q 451 667 451 621 l 451 835 q 435 898 451 882 q 371 914 418 914 l 242 914 q 172 898 188 914 q 157 835 157 882 l 157 667 m 308 0 l 919 1017 l 1029 1017 l 419 0 l 308 0 m 775 179 l 775 360 q 813 492 775 450 q 956 535 853 535 l 1096 535 q 1235 493 1196 535 q 1275 360 1275 451 l 1275 179 q 1235 44 1275 86 q 1093 3 1196 3 l 953 3 q 815 45 854 3 q 775 179 775 88 m 878 185 q 894 122 878 139 q 958 106 911 106 l 1088 106 q 1157 122 1142 106 q 1172 185 1172 139 l 1172 353 q 1155 416 1172 400 q 1090 432 1138 432 l 961 432 q 893 416 908 432 q 878 353 878 400 l 878 185 z "},"&":{"ha":900,"x_min":43,"x_max":871,"o":"m 386 1021 q 661 986 513 1021 l 661 897 l 394 897 q 279 839 279 897 q 326 736 279 801 l 626 328 l 789 492 l 831 444 l 756 296 l 700 233 l 869 0 l 719 0 l 610 149 l 511 58 q 336 -7 440 -7 q 217 19 282 -7 q 97 121 151 44 q 43 283 43 197 q 157 510 43 413 l 269 606 l 186 719 q 142 849 142 782 q 214 983 142 929 q 292 1015 249 1010 q 386 1021 335 1021 m 240 424 q 167 302 167 363 q 201 197 167 242 q 272 133 236 151 q 328 115 307 115 q 357 117 350 115 q 435 151 401 119 l 535 246 l 339 507 l 240 424 z "},"'":{"ha":271,"x_min":71,"x_max":201,"o":"m 71 1017 l 200 1017 l 200 924 l 186 738 l 86 738 l 71 924 l 71 1017 z "},"(":{"ha":481,"x_min":97,"x_max":457,"o":"m 176 -6 q 161 35 176 -6 q 122 200 146 75 q 97 445 97 325 q 121 683 97 565 q 178 888 144 800 q 301 1157 246 1069 l 325 1194 l 456 1194 q 380 1053 424 1144 q 306 878 336 961 q 250 677 275 794 q 225 463 225 560 q 238 279 225 367 q 271 121 250 192 q 316 -16 292 50 q 365 -132 340 -82 q 443 -272 417 -233 l 456 -292 l 325 -292 q 249 -169 293 -251 q 176 -6 206 -86 z "},")":{"ha":481,"x_min":25,"x_max":385,"o":"m 176 10 q 192 51 176 10 q 232 213 207 92 q 257 478 257 335 q 199 808 257 622 q 83 1094 142 993 l 26 1194 l 157 1194 q 232 1058 189 1147 q 305 885 275 968 q 360 684 335 803 q 385 445 385 565 q 361 201 385 325 q 304 -7 338 78 q 181 -260 235 -183 l 157 -292 l 26 -292 q 102 -160 58 -247 q 176 10 146 -72 z "},"*":{"ha":606,"x_min":64,"x_max":543,"o":"m 65 786 l 65 847 l 258 886 l 265 779 l 65 786 m 156 576 l 189 764 l 293 739 l 213 557 l 156 576 m 240 997 l 300 1021 l 401 854 l 303 811 l 240 997 m 282 657 l 342 747 l 494 621 l 461 572 l 282 657 m 344 793 l 511 900 l 542 846 l 414 711 l 344 793 z "},"+":{"ha":704,"x_min":63,"x_max":642,"o":"m 64 435 l 64 554 l 292 554 l 292 783 l 411 783 l 411 554 l 642 554 l 642 435 l 411 435 l 411 206 l 292 206 l 292 435 l 64 435 z "},",":{"ha":371,"x_min":110,"x_max":263,"o":"m 261 -15 q 147 -125 261 -125 q 132 -125 139 -125 l 117 -122 l 117 -72 q 147 -64 136 -72 q 160 -31 160 -54 l 160 0 l 144 0 q 119 9 129 0 q 110 35 110 18 l 110 122 q 144 160 110 160 l 228 160 q 261 122 261 160 l 261 -15 z "},"-":{"ha":492,"x_min":28,"x_max":464,"o":"m 28 343 l 28 463 l 464 463 l 464 343 l 28 343 z "},".":{"ha":374,"x_min":110,"x_max":265,"o":"m 110 32 l 110 124 q 143 158 110 158 l 229 158 q 264 124 264 158 l 264 32 q 229 0 264 0 l 143 0 q 119 9 129 0 q 110 32 110 18 z "},"/":{"ha":576,"x_min":25,"x_max":551,"o":"m 26 -100 l 417 1069 l 551 1069 l 161 -100 l 26 -100 z "},":":{"ha":374,"x_min":110,"x_max":265,"o":"m 110 32 l 110 124 q 143 158 110 158 l 229 158 q 264 124 264 158 l 264 32 q 229 0 264 0 l 143 0 q 119 9 129 0 q 110 32 110 18 m 110 613 l 110 704 q 143 739 110 739 l 229 739 q 264 704 264 739 l 264 613 q 229 581 264 581 l 143 581 q 117 592 124 581 q 110 613 110 603 z "},";":{"ha":376,"x_min":110,"x_max":268,"o":"m 261 -15 q 147 -125 261 -125 q 132 -125 139 -125 l 117 -122 l 117 -72 q 147 -64 136 -72 q 160 -31 160 -54 l 160 0 l 144 0 q 120 10 131 0 q 110 35 110 21 l 110 122 q 122 152 110 144 q 144 160 135 160 l 228 160 q 261 122 261 160 l 261 -15 m 113 614 l 113 706 q 146 740 113 740 l 232 740 q 267 706 267 740 l 267 614 q 232 582 267 582 l 146 582 q 119 593 126 582 q 113 614 113 604 z "},"<":{"ha":650,"x_min":64,"x_max":586,"o":"m 65 426 l 65 556 l 586 775 l 586 644 l 221 492 l 586 325 l 586 192 l 65 426 z "},"=":{"ha":649,"x_min":28,"x_max":621,"o":"m 28 283 l 28 403 l 621 403 l 621 283 l 28 283 m 28 576 l 28 696 l 621 696 l 621 576 l 28 576 z "},">":{"ha":650,"x_min":64,"x_max":586,"o":"m 65 192 l 65 325 l 429 492 l 65 644 l 65 775 l 586 556 l 586 426 l 65 192 z "},"?":{"ha":751,"x_min":25,"x_max":701,"o":"m 233 1024 q 247 1025 233 1024 q 277 1026 260 1026 q 315 1027 294 1026 q 356 1028 335 1028 q 435 1027 376 1028 q 551 1005 494 1026 q 639 946 607 983 q 700 765 700 874 l 700 635 q 611 443 700 500 q 444 401 544 401 q 369 407 410 401 l 369 271 l 250 271 l 250 508 l 438 508 q 553 564 517 511 q 574 636 574 593 l 574 758 q 531 868 574 835 q 394 901 489 901 l 26 901 l 26 996 q 69 1003 35 997 q 113 1010 104 1008 q 152 1015 122 1011 q 194 1019 182 1018 q 233 1024 207 1021 m 233 32 l 233 124 q 267 158 233 158 l 354 158 q 388 124 388 158 l 388 32 q 354 0 388 0 l 267 0 q 242 9 251 0 q 233 32 233 18 z "},"@":{"ha":1181,"x_min":83,"x_max":1072,"o":"m 332 711 l 622 711 q 771 672 708 711 q 843 511 843 628 l 843 0 l 753 0 l 731 86 q 717 76 731 86 q 681 52 704 67 q 631 22 658 38 q 493 -12 563 -12 q 488 -12 490 -12 q 363 35 413 -12 q 315 156 314 83 l 315 225 q 363 363 315 313 q 500 413 411 413 l 728 413 q 729 482 729 458 q 728 506 729 506 q 702 576 728 557 q 619 594 676 594 l 332 594 q 213 535 236 594 q 201 469 201 508 l 201 8 q 332 -136 201 -136 l 811 -136 q 942 -72 917 -136 q 954 8 954 -42 l 954 699 q 915 817 954 776 q 811 858 876 858 l 250 858 l 250 938 q 638 975 431 975 q 656 975 647 975 l 811 975 q 1000 904 929 974 q 1071 699 1071 835 l 1071 8 q 813 -256 1071 -256 l 332 -256 q 152 -190 219 -256 q 85 4 85 -124 l 85 471 q 144 647 85 585 q 218 692 169 674 q 332 711 267 711 m 511 104 q 514 104 513 104 q 517 104 515 104 q 728 175 601 104 l 728 331 l 511 310 q 453 283 474 306 q 435 225 433 260 q 433 197 433 224 q 435 169 433 169 q 458 125 435 146 q 511 104 481 104 z "},"A":{"ha":939,"x_min":58,"x_max":910,"o":"m 58 0 l 424 1017 l 558 1017 l 908 0 l 763 0 l 679 268 l 294 268 l 207 0 l 58 0 m 335 389 l 640 389 l 490 833 l 335 389 z "},"B":{"ha":831,"x_min":103,"x_max":782,"o":"m 503 1017 q 631 993 576 1017 q 715 929 686 969 q 774 750 774 851 q 642 528 774 564 q 740 453 699 515 q 782 288 782 392 q 724 86 782 164 q 504 0 660 0 l 104 0 l 104 1017 l 503 1017 m 233 122 l 501 122 q 654 292 654 122 q 616 421 654 369 q 501 472 578 472 l 233 472 l 233 122 m 233 592 l 500 592 q 608 631 571 592 q 646 746 646 669 q 551 889 646 864 q 500 894 528 894 l 233 894 l 233 592 z "},"C":{"ha":800,"x_min":71,"x_max":756,"o":"m 71 503 q 80 690 71 614 q 112 833 89 767 q 172 940 135 899 q 413 1028 254 1028 q 581 1017 482 1028 q 756 990 681 1006 l 756 889 q 748 890 756 889 q 728 891 740 890 q 698 893 715 892 q 660 895 681 894 q 616 897 639 896 q 568 900 593 899 q 518 903 543 901 q 413 904 467 904 q 319 889 360 904 q 251 830 279 874 q 210 709 222 786 q 199 545 199 632 q 202 415 199 458 q 213 331 206 372 q 232 258 221 290 q 261 198 243 225 q 303 153 279 171 q 421 115 351 115 q 706 122 554 115 l 756 125 l 756 24 q 588 1 686 10 q 453 -8 490 -8 q 413 -8 415 -8 q 144 138 224 -8 q 71 503 71 274 z "},"D":{"ha":914,"x_min":103,"x_max":856,"o":"m 104 0 l 104 1017 l 496 1017 q 651 983 585 1017 q 756 900 718 950 q 817 779 793 850 q 856 504 856 661 q 736 106 856 246 q 634 28 696 57 q 496 0 572 0 l 104 0 m 232 125 l 492 125 q 628 178 574 125 q 728 494 728 274 q 668 805 728 715 q 492 894 608 894 l 232 894 l 232 125 z "},"E":{"ha":788,"x_min":103,"x_max":732,"o":"m 281 1017 q 496 1007 285 1017 q 732 994 707 997 l 732 892 l 303 892 q 239 867 251 892 q 231 814 231 847 l 231 569 l 674 554 l 674 451 l 231 438 l 231 193 q 260 129 232 140 q 317 121 282 121 l 732 121 l 732 19 l 304 -4 q 282 -4 293 -4 q 103 179 103 -4 l 103 828 q 155 974 103 931 q 281 1017 207 1017 z "},"F":{"ha":788,"x_min":103,"x_max":732,"o":"m 281 1017 q 496 1007 285 1017 q 732 994 707 997 l 732 892 l 303 892 q 239 867 251 892 q 231 814 231 847 l 231 569 l 674 554 l 674 451 l 231 438 l 231 0 l 103 0 l 103 826 q 155 972 103 928 q 281 1017 207 1017 z "},"G":{"ha":853,"x_min":71,"x_max":782,"o":"m 657 68 q 393 -7 540 -7 q 161 89 239 -7 q 78 346 94 172 q 71 511 71 417 q 78 676 71 606 q 107 816 86 747 q 164 929 128 885 q 399 1028 242 1028 q 575 1017 471 1028 q 761 989 679 1006 l 761 888 q 736 890 760 888 q 675 894 713 892 q 594 900 638 897 q 424 907 490 907 q 322 891 358 907 q 260 846 285 875 q 224 767 236 817 q 199 483 199 679 q 244 203 199 288 q 415 117 292 117 q 519 132 460 117 q 617 164 579 147 l 654 181 l 654 432 l 446 432 l 446 517 q 688 551 554 551 q 782 547 732 551 l 782 0 l 688 0 l 657 68 z "},"H":{"ha":885,"x_min":103,"x_max":808,"o":"m 104 0 l 104 1017 l 232 1017 l 232 553 l 681 553 l 681 1017 l 808 1017 l 808 0 l 681 0 l 681 431 l 232 431 l 232 0 l 104 0 z "},"I":{"ha":308,"x_min":103,"x_max":232,"o":"m 104 0 l 104 1017 l 232 1017 l 232 0 l 104 0 z "},"J":{"ha":497,"x_min":44,"x_max":421,"o":"m 347 25 q 199 -8 294 -8 q 46 31 104 -8 l 50 126 q 70 122 54 125 q 99 117 86 119 q 133 111 111 114 q 169 109 156 108 q 201 112 182 110 q 231 120 221 114 q 255 137 242 126 q 275 164 268 147 q 292 253 292 201 l 292 1017 l 419 1017 l 419 229 q 417 155 419 185 q 397 85 414 125 q 347 25 379 46 z "},"K":{"ha":835,"x_min":103,"x_max":790,"o":"m 104 0 l 104 1017 l 229 1017 l 229 569 l 335 569 l 638 1017 l 790 1017 l 450 510 l 790 0 l 638 0 l 335 447 l 231 447 l 231 0 l 104 0 z "},"L":{"ha":767,"x_min":103,"x_max":722,"o":"m 104 181 l 104 1017 l 232 1017 l 232 196 q 261 132 232 143 q 318 124 282 124 l 722 124 l 722 0 l 299 0 q 119 88 157 0 q 104 181 104 125 z "},"M":{"ha":1129,"x_min":71,"x_max":1060,"o":"m 71 0 l 144 1017 l 321 1017 l 564 213 l 801 1017 l 976 1017 l 1060 0 l 932 0 l 868 789 l 633 0 l 497 0 l 256 789 l 199 0 l 71 0 z "},"N":{"ha":943,"x_min":103,"x_max":867,"o":"m 104 0 l 104 1017 l 235 1017 l 739 238 l 739 1017 l 867 1017 l 867 0 l 739 0 l 233 778 l 233 0 l 104 0 z "},"O":{"ha":936,"x_min":83,"x_max":879,"o":"m 85 522 q 105 738 85 640 q 156 891 125 836 q 243 976 188 946 q 351 1015 299 1007 q 472 1024 403 1024 q 581 1019 540 1024 q 666 1003 622 1015 q 740 968 710 990 q 798 907 769 946 q 843 814 826 868 q 879 501 879 693 q 831 171 879 276 q 776 80 807 115 q 696 26 744 44 q 483 -6 614 -6 q 221 49 293 -6 q 119 199 147 103 q 85 522 85 315 m 224 693 q 220 674 224 693 q 215 608 217 656 q 213 494 213 560 q 217 374 213 428 q 229 279 221 321 q 253 210 238 238 q 289 163 269 182 q 339 135 308 144 q 465 118 393 118 q 573 124 536 118 q 642 145 610 129 q 693 188 674 161 q 726 257 713 214 q 751 501 751 335 q 742 677 751 625 q 727 758 733 729 q 708 809 721 788 q 685 846 696 831 q 654 872 674 861 q 620 888 635 882 q 579 896 606 893 q 496 900 540 900 q 433 899 451 900 q 388 896 414 899 q 347 888 361 893 q 313 872 332 882 q 282 847 293 863 q 258 810 271 832 q 238 760 244 789 q 224 693 231 731 z "},"P":{"ha":814,"x_min":79,"x_max":757,"o":"m 81 0 l 81 1017 l 503 1017 q 757 717 757 1017 q 600 414 757 454 q 535 403 561 403 q 486 403 508 403 q 339 416 464 404 q 208 431 214 428 l 208 0 l 81 0 m 499 894 l 208 894 l 208 525 l 499 525 q 589 557 556 525 q 628 717 628 596 q 581 868 626 833 q 499 894 544 894 z "},"Q":{"ha":936,"x_min":83,"x_max":879,"o":"m 94 321 q 89 368 94 321 q 85 508 85 415 q 94 680 85 601 q 121 813 104 758 q 166 907 138 868 q 224 968 194 946 q 299 1003 254 990 q 453 1024 369 1024 q 578 1019 538 1024 q 664 1003 619 1015 q 738 968 708 990 q 797 907 768 946 q 843 814 826 868 q 879 501 879 693 q 831 171 879 276 q 774 80 806 115 q 694 26 743 44 q 481 -6 611 -6 q 244 33 313 -6 q 143 138 174 74 q 94 321 103 226 m 224 693 q 220 674 224 693 q 215 608 217 656 q 213 494 213 560 q 217 374 213 428 q 229 279 221 321 q 253 210 238 238 q 288 163 268 182 q 338 135 307 144 q 467 118 390 118 q 587 127 544 118 q 663 159 629 136 q 714 226 697 182 q 751 466 751 315 q 739 692 751 617 q 709 810 726 768 q 652 872 692 851 q 579 896 613 892 q 497 900 546 900 q 430 899 449 900 q 385 896 411 899 q 345 888 360 893 q 311 872 331 882 q 281 847 292 863 q 256 810 269 832 q 237 760 243 789 q 224 693 231 731 m 517 -46 q 649 -97 575 -97 q 747 -76 689 -97 l 747 -200 q 690 -212 715 -212 q 634 -210 665 -212 q 556 -192 603 -208 q 475 -137 510 -176 q 433 -46 440 -99 l 517 -46 z "},"R":{"ha":828,"x_min":79,"x_max":799,"o":"m 517 1017 q 763 708 763 1017 q 747 567 763 610 q 719 503 731 525 q 692 466 708 481 q 665 442 676 451 q 635 426 653 433 q 590 414 611 418 l 799 0 l 658 0 l 457 407 l 208 426 l 208 0 l 81 0 l 81 1017 l 517 1017 m 208 535 l 511 535 q 610 575 588 535 q 633 692 633 618 q 624 806 633 767 q 594 863 614 844 q 511 894 563 894 l 208 894 l 208 535 z "},"S":{"ha":813,"x_min":83,"x_max":756,"o":"m 164 975 q 250 1013 203 1001 q 330 1025 297 1025 q 396 1025 363 1025 q 547 1013 429 1025 q 719 990 665 1000 l 719 888 q 528 896 661 892 q 352 901 379 901 q 304 899 325 901 q 258 885 283 897 q 213 769 213 861 l 213 689 q 244 587 213 610 q 346 564 275 564 l 532 564 q 756 317 756 564 l 756 229 q 632 14 756 64 q 487 -11 569 -11 q 289 1 404 -11 q 115 25 174 13 l 115 128 q 378 113 268 113 q 504 114 488 113 q 546 122 521 115 q 588 139 571 128 q 628 228 628 168 l 628 311 q 604 403 628 371 q 519 436 581 436 l 336 436 q 107 550 156 436 q 85 683 85 604 l 85 774 q 164 975 85 919 z "},"T":{"ha":808,"x_min":57,"x_max":776,"o":"m 57 893 l 57 1017 l 775 1017 l 775 893 l 476 893 l 476 0 l 349 0 l 349 893 l 57 893 z "},"U":{"ha":935,"x_min":103,"x_max":858,"o":"m 485 -7 l 465 -7 q 249 28 301 -7 q 192 77 224 44 q 143 157 160 110 q 104 444 104 274 l 104 1017 l 232 1017 l 232 444 q 241 299 232 342 q 256 231 250 256 q 275 190 263 207 q 298 160 288 172 q 327 139 308 147 q 360 126 346 131 q 397 119 374 122 q 476 117 433 117 q 541 118 518 117 q 592 127 564 119 q 638 147 619 135 q 675 184 656 160 q 704 243 694 208 q 729 444 729 321 l 729 1017 l 858 1017 l 858 444 q 763 79 858 172 q 703 29 729 46 q 631 4 676 13 q 485 -7 572 -7 z "},"V":{"ha":936,"x_min":58,"x_max":904,"o":"m 58 1017 l 196 1017 l 475 189 l 767 1017 l 904 1017 l 542 0 l 406 0 l 58 1017 z "},"W":{"ha":1347,"x_min":58,"x_max":1317,"o":"m 58 1017 l 196 1017 l 474 201 l 706 1017 l 847 1017 l 760 708 l 938 194 l 1178 1017 l 1315 1017 l 1008 0 l 872 0 l 696 492 l 542 0 l 406 0 l 58 1017 z "},"X":{"ha":844,"x_min":58,"x_max":814,"o":"m 58 1017 l 199 1017 l 433 613 l 672 1017 l 813 1017 l 511 514 l 806 0 l 665 0 l 433 404 l 203 0 l 63 0 l 356 514 l 58 1017 z "},"Y":{"ha":885,"x_min":58,"x_max":853,"o":"m 506 0 l 378 0 l 378 349 l 58 1017 l 197 1017 l 443 496 l 714 1017 l 853 1017 l 506 349 l 506 0 z "},"Z":{"ha":779,"x_min":44,"x_max":735,"o":"m 46 0 l 46 124 l 572 893 l 46 893 l 46 1017 l 735 1017 l 735 893 l 214 124 l 735 124 l 735 0 l 46 0 z "},"[":{"ha":450,"x_min":110,"x_max":425,"o":"m 110 -42 l 110 925 q 147 1083 110 1026 q 311 1169 201 1169 l 425 1169 l 425 1050 l 324 1050 q 244 974 263 1050 q 238 918 238 949 l 238 -40 q 261 -137 238 -103 q 324 -172 285 -172 l 425 -172 l 425 -292 l 311 -292 q 223 -274 261 -292 q 164 -231 185 -257 q 131 -169 143 -206 q 110 -42 110 -112 z "},"\\":{"ha":576,"x_min":25,"x_max":551,"o":"m 26 1069 l 161 1069 l 551 -100 l 417 -100 l 26 1069 z "},"]":{"ha":450,"x_min":25,"x_max":342,"o":"m 26 -172 l 126 -172 q 190 -137 167 -172 q 213 -40 213 -103 l 213 918 q 190 1015 213 981 q 126 1050 167 1050 l 26 1050 l 26 1169 l 139 1169 q 268 1128 222 1169 q 324 1044 313 1086 q 340 925 340 978 l 340 -42 q 288 -231 340 -165 q 228 -274 267 -257 q 139 -292 190 -292 l 26 -292 l 26 -172 z "},"^":{"ha":540,"x_min":64,"x_max":478,"o":"m 65 738 l 224 919 l 335 919 l 476 738 l 369 738 l 276 832 l 174 738 l 65 738 z "},"_":{"ha":936,"x_min":28,"x_max":908,"o":"m 28 -1 l 28 118 l 908 118 l 908 -1 l 28 -1 z "},"`":{"ha":336,"x_min":25,"x_max":311,"o":"m 26 925 l 168 925 l 311 738 l 207 738 l 26 925 z "},"a":{"ha":721,"x_min":51,"x_max":657,"o":"m 75 707 q 433 751 217 751 q 625 660 569 751 q 656 531 656 608 l 656 0 l 558 0 l 528 86 q 482 60 524 82 q 369 15 440 39 q 244 -8 299 -8 q 105 43 158 -8 q 51 179 51 94 l 51 260 q 102 397 51 344 q 244 449 153 449 q 457 449 386 449 q 528 449 528 449 q 529 509 529 489 q 528 542 529 529 q 523 572 528 554 q 509 603 518 590 q 486 622 500 615 q 418 636 461 638 q 75 621 304 636 l 75 707 m 179 192 q 258 108 179 108 q 372 126 304 108 q 483 160 439 143 l 528 176 l 528 357 l 256 338 q 179 251 179 331 l 179 192 z "},"b":{"ha":769,"x_min":78,"x_max":707,"o":"m 203 1090 l 203 694 q 338 734 263 719 q 460 749 413 749 q 542 738 507 749 q 603 708 578 726 q 647 660 628 689 q 676 601 665 632 q 694 528 688 569 q 706 365 706 460 q 464 -8 706 -8 q 321 22 401 -8 q 204 81 240 53 l 175 0 l 78 0 l 78 1090 l 203 1090 m 450 111 q 578 367 578 111 q 544 581 578 525 q 450 632 513 632 q 204 599 325 632 l 204 171 q 450 111 336 111 z "},"c":{"ha":692,"x_min":64,"x_max":642,"o":"m 78 208 q 72 242 78 208 q 65 369 65 276 q 77 530 65 463 q 109 638 89 597 q 161 704 129 679 q 308 744 217 744 q 487 731 392 744 q 631 706 582 718 l 631 619 q 377 628 454 628 q 283 624 300 628 q 246 607 265 621 q 217 565 226 593 q 193 381 193 500 q 207 206 193 261 q 249 131 221 151 q 333 111 278 111 q 592 121 444 111 l 640 125 l 640 35 q 424 -4 543 1 q 238 -1 279 -11 q 163 34 196 10 q 110 99 131 58 q 78 208 90 140 z "},"d":{"ha":769,"x_min":64,"x_max":693,"o":"m 65 365 q 132 672 65 585 q 307 749 190 749 q 453 730 379 749 q 567 694 526 711 l 567 1090 l 693 1090 l 693 0 l 596 0 l 567 81 q 450 22 531 53 q 307 -8 369 -8 q 65 365 65 -8 m 193 367 q 321 111 193 111 q 567 171 435 111 l 567 599 q 321 632 446 632 q 251 613 278 632 q 193 367 193 567 z "},"e":{"ha":729,"x_min":64,"x_max":678,"o":"m 97 613 q 139 680 115 654 q 201 719 163 706 q 388 743 268 743 q 579 717 529 743 q 653 639 633 688 q 678 479 678 578 q 483 306 678 306 l 193 306 q 224 149 193 188 q 338 110 254 110 q 664 125 567 110 l 664 32 q 308 -7 536 -7 q 117 75 168 -7 q 65 347 65 157 q 97 613 65 538 m 550 482 q 544 561 550 535 q 520 603 539 588 q 474 624 501 619 q 402 628 446 628 q 342 627 358 628 q 301 624 325 626 q 265 616 276 621 q 239 601 254 611 q 217 575 224 590 q 204 538 211 560 q 193 418 193 501 l 469 418 q 550 482 550 418 z "},"f":{"ha":557,"x_min":25,"x_max":532,"o":"m 26 622 l 26 714 l 156 738 l 156 875 q 165 972 156 944 q 184 1017 175 1000 q 208 1047 193 1033 q 240 1071 222 1060 q 353 1092 276 1092 q 531 1058 431 1092 l 531 978 l 371 979 q 289 933 301 981 q 283 863 283 910 l 283 738 l 478 738 l 478 622 l 283 622 l 283 0 l 156 0 l 156 622 l 26 622 z "},"g":{"ha":771,"x_min":60,"x_max":747,"o":"m 63 156 q 83 231 63 196 q 144 275 104 265 q 64 467 64 326 q 128 674 64 608 q 308 740 192 740 l 746 740 l 746 653 l 642 628 q 651 610 643 625 q 663 587 660 594 q 671 561 665 579 q 681 485 681 529 q 676 409 681 440 q 656 340 671 378 q 615 274 640 303 q 547 226 590 246 q 446 207 503 207 l 242 207 q 185 168 185 207 q 242 124 185 124 l 518 124 q 658 71 608 124 q 708 -75 708 18 l 708 -161 q 585 -361 708 -318 q 493 -375 546 -375 l 285 -375 q 90 -281 146 -375 q 61 -161 61 -232 l 61 -50 l 118 35 q 63 156 63 72 m 250 6 q 189 15 215 6 l 189 -154 q 226 -242 189 -222 q 300 -258 257 -258 l 482 -258 q 559 -231 538 -258 q 581 -156 581 -204 l 581 -82 q 563 -15 581 -35 q 492 6 544 6 l 250 6 m 310 324 l 429 324 q 549 426 526 324 q 553 460 553 447 q 525 585 553 549 q 428 622 497 622 l 317 622 q 192 473 192 622 q 310 324 192 324 z "},"h":{"ha":757,"x_min":78,"x_max":694,"o":"m 206 1089 l 206 653 q 228 667 210 656 q 252 682 247 679 q 274 695 257 685 q 299 708 292 706 q 324 719 307 711 q 350 730 340 726 q 376 738 360 733 q 406 744 392 743 q 468 750 442 750 q 635 680 576 750 q 693 508 693 610 l 693 0 l 565 0 l 565 508 q 535 602 565 571 q 443 633 504 633 q 335 617 382 633 q 206 558 288 600 l 206 0 l 78 0 l 78 1089 l 206 1089 z "},"i":{"ha":285,"x_min":64,"x_max":221,"o":"m 65 854 l 65 942 q 99 978 65 978 l 189 978 q 213 967 204 978 q 221 942 221 957 l 221 854 q 189 822 221 822 l 99 822 q 74 831 83 822 q 65 854 65 840 m 76 0 l 76 738 l 204 738 l 204 0 l 76 0 z "},"j":{"ha":311,"x_min":78,"x_max":235,"o":"m 78 854 l 78 942 q 111 978 78 978 l 201 978 q 225 967 217 978 q 233 942 233 957 l 233 854 q 201 822 233 822 l 111 822 q 87 831 96 822 q 78 854 78 840 m 92 -375 l 92 738 l 219 738 l 219 -6 q 219 -36 219 -21 q 179 -375 219 -260 l 92 -375 z "},"k":{"ha":715,"x_min":78,"x_max":692,"o":"m 78 0 l 78 1086 l 206 1086 l 206 479 l 257 479 l 519 738 l 690 738 l 376 422 l 690 0 l 535 0 l 257 364 l 206 364 l 206 0 l 78 0 z "},"l":{"ha":421,"x_min":78,"x_max":397,"o":"m 78 263 l 78 1088 l 206 1088 l 206 271 q 224 157 206 189 q 281 115 243 125 q 396 86 386 86 l 396 0 l 264 0 q 78 263 78 0 z "},"m":{"ha":1238,"x_min":78,"x_max":1175,"o":"m 686 557 l 686 506 l 686 0 l 558 0 l 558 504 q 526 595 558 561 q 446 629 494 629 q 357 619 397 629 q 290 598 317 610 q 206 556 263 586 l 206 0 l 78 0 l 78 738 l 174 738 l 206 651 q 229 665 214 656 q 252 680 244 675 q 274 693 260 685 q 298 706 289 701 q 321 717 307 710 q 346 727 335 724 q 371 735 357 731 q 399 742 385 739 q 467 746 431 746 q 544 735 504 746 q 660 642 628 708 q 949 746 790 746 q 1112 678 1050 746 q 1174 503 1174 611 l 1174 0 l 1046 0 l 1046 504 q 992 614 1046 582 q 911 629 967 629 q 686 557 792 629 z "},"n":{"ha":757,"x_min":78,"x_max":694,"o":"m 78 0 l 78 738 l 174 738 l 206 653 q 228 667 210 656 q 253 682 247 679 q 276 695 258 685 q 300 708 293 706 q 324 719 307 711 q 350 731 340 728 q 376 738 360 733 q 406 744 392 743 q 468 750 442 750 q 635 680 576 750 q 693 508 693 610 l 693 0 l 565 0 l 565 508 q 497 625 565 600 q 430 633 478 633 q 335 617 382 633 q 206 558 288 600 l 206 0 l 78 0 z "},"o":{"ha":785,"x_min":64,"x_max":722,"o":"m 65 358 q 97 593 65 510 q 199 710 129 676 q 393 744 268 744 q 651 661 581 744 q 721 365 721 578 q 651 72 721 151 q 394 -7 581 -7 q 137 75 208 -7 q 65 358 65 157 m 213 539 q 207 524 213 539 q 197 465 201 508 q 193 361 193 421 q 198 260 193 301 q 215 191 203 218 q 242 148 228 164 q 283 124 257 132 q 382 110 324 110 q 468 115 440 111 q 523 131 496 118 q 564 172 550 144 q 593 358 593 232 q 578 527 593 486 q 549 585 563 568 q 511 613 536 603 q 413 628 472 628 q 328 625 353 628 q 277 613 303 622 q 238 587 251 604 q 213 539 225 569 z "},"p":{"ha":769,"x_min":78,"x_max":707,"o":"m 339 722 q 380 734 339 722 q 471 746 421 746 q 564 724 521 746 q 633 668 607 703 q 676 583 660 633 q 706 401 706 496 q 701 256 706 307 q 681 153 696 206 q 639 67 665 101 q 464 -11 581 -11 q 338 3 413 -11 q 203 42 263 18 l 203 -375 l 78 -375 l 78 738 l 175 738 l 204 658 q 339 722 257 699 m 450 106 q 519 125 493 106 q 578 369 578 171 q 450 626 578 626 q 204 567 335 626 l 204 139 q 450 106 324 106 z "},"q":{"ha":771,"x_min":64,"x_max":694,"o":"m 65 390 q 65 472 65 390 q 131 650 65 554 q 320 746 196 746 q 693 711 444 746 l 693 -375 l 565 -375 l 565 40 q 442 0 508 14 q 319 -14 375 -14 q 216 5 263 -14 q 141 56 169 24 q 94 139 113 89 q 65 390 65 226 m 244 133 q 251 127 244 133 q 281 112 258 121 q 343 103 304 103 q 414 106 382 103 q 565 136 472 110 l 565 631 l 335 631 q 236 582 267 631 q 200 489 204 532 q 193 374 193 426 l 193 360 q 201 219 193 247 q 219 167 208 190 q 244 133 229 144 z "},"r":{"ha":588,"x_min":78,"x_max":561,"o":"m 293 699 q 307 706 293 699 q 368 730 321 714 q 476 746 415 746 q 561 735 538 746 l 561 610 q 454 617 525 617 q 331 599 383 617 q 206 536 279 582 l 206 0 l 78 0 l 78 738 l 175 738 l 206 644 q 238 665 210 647 q 293 699 265 683 z "},"s":{"ha":703,"x_min":51,"x_max":653,"o":"m 248 744 q 302 744 248 744 q 469 735 356 744 q 614 718 582 725 l 614 626 l 260 626 q 193 610 207 626 q 179 554 179 593 l 179 499 q 203 438 179 449 q 260 428 222 428 l 467 428 q 571 403 528 428 q 651 244 651 357 l 651 175 q 471 -7 651 -7 q 260 3 400 -7 q 82 24 119 14 l 82 113 l 454 113 q 524 179 524 113 l 524 238 q 497 299 524 283 q 454 307 481 307 l 247 307 q 99 348 146 307 q 51 493 51 389 l 51 557 q 96 696 51 647 q 248 744 140 744 z "},"t":{"ha":526,"x_min":25,"x_max":489,"o":"m 286 944 l 286 739 l 488 739 l 488 624 l 286 624 l 286 272 q 305 158 286 190 q 361 117 324 126 q 476 88 467 88 l 476 1 l 342 1 q 158 264 158 1 l 158 624 l 26 624 l 26 710 l 158 739 l 186 944 l 286 944 z "},"u":{"ha":757,"x_min":64,"x_max":681,"o":"m 65 231 l 65 738 l 193 738 l 193 229 q 224 136 193 167 q 315 106 254 106 q 424 122 376 106 q 553 181 471 138 l 553 738 l 681 738 l 681 0 l 585 0 l 553 83 q 519 64 544 79 q 484 44 494 49 q 451 27 474 39 q 415 10 429 15 q 378 -1 400 6 q 290 -12 340 -12 q 123 58 181 -12 q 65 231 65 128 z "},"v":{"ha":754,"x_min":25,"x_max":731,"o":"m 26 738 l 164 738 l 376 172 l 592 738 l 729 738 l 442 0 l 307 0 l 26 738 z "},"w":{"ha":1121,"x_min":25,"x_max":1097,"o":"m 26 738 l 164 738 l 364 172 l 539 738 l 672 738 l 604 511 l 754 172 l 958 738 l 1096 738 l 826 0 l 692 0 l 543 336 l 432 0 l 292 0 l 26 738 z "},"x":{"ha":746,"x_min":31,"x_max":715,"o":"m 31 0 l 294 369 l 31 738 l 188 738 l 371 471 l 558 738 l 715 738 l 449 365 l 704 0 l 558 0 l 374 264 l 189 0 l 31 0 z "},"y":{"ha":778,"x_min":26,"x_max":750,"o":"m 28 738 l 165 738 l 329 178 q 414 122 350 110 q 417 124 417 124 l 611 738 l 750 738 l 443 -233 l 340 -375 l 256 -375 l 379 0 q 199 163 246 0 l 28 738 z "},"z":{"ha":639,"x_min":39,"x_max":603,"o":"m 39 618 l 39 738 l 601 738 l 601 618 l 228 121 l 601 121 l 601 1 l 60 1 l 60 121 l 442 618 l 39 618 z "},"{":{"ha":444,"x_min":25,"x_max":419,"o":"m 144 590 l 144 911 q 264 1133 144 1064 q 419 1169 328 1169 l 419 1050 q 310 1016 349 1050 q 272 894 272 982 l 272 588 q 239 505 272 536 q 150 464 206 474 q 238 423 204 456 q 271 344 271 390 l 271 -39 q 308 -140 271 -106 q 407 -175 346 -175 q 419 -175 413 -175 l 419 -292 q 157 -140 208 -292 q 143 -53 143 -100 l 143 336 q 110 392 143 375 q 56 410 78 410 q 26 410 33 410 l 26 517 q 40 518 29 517 q 60 520 51 519 q 83 524 68 521 q 108 531 99 526 q 126 544 117 536 q 144 590 144 558 z "},"|":{"ha":340,"x_min":111,"x_max":232,"o":"m 111 -100 l 111 1069 l 231 1069 l 231 -100 l 111 -100 z "},"}":{"ha":444,"x_min":25,"x_max":419,"o":"m 38 -175 q 136 -140 99 -175 q 174 -39 174 -106 l 174 344 q 232 442 174 407 q 294 464 260 458 q 206 505 239 474 q 172 588 172 536 l 172 894 q 131 1019 172 986 q 26 1050 92 1050 l 26 1169 q 231 1096 161 1169 q 300 911 300 1022 l 300 590 q 339 532 300 544 q 392 519 368 521 q 419 517 415 517 l 419 410 q 397 410 411 410 q 360 404 383 410 q 319 381 338 399 q 301 336 301 363 l 301 -53 q 244 -215 301 -149 q 26 -292 179 -292 l 26 -175 q 38 -175 32 -175 z "},"~":{"ha":600,"x_min":64,"x_max":538,"o":"m 153 874 q 162 880 153 874 q 189 891 171 886 q 233 896 207 896 q 304 872 260 896 q 369 847 349 847 q 403 850 389 847 q 425 856 417 853 q 448 866 433 858 q 467 876 463 874 q 488 890 472 879 q 506 903 503 901 l 536 838 q 522 823 532 833 q 506 806 513 813 q 490 790 500 800 q 471 774 479 781 q 451 760 463 767 q 428 747 439 753 q 374 738 403 738 q 298 762 346 738 q 225 786 250 786 q 181 780 200 786 q 135 758 161 774 q 96 738 110 743 l 65 800 q 94 826 74 807 q 125 854 115 846 q 153 874 135 863 z "},"¡":{"ha":375,"x_min":110,"x_max":260,"o":"m 110 522 l 110 608 q 143 640 110 638 l 225 640 q 251 626 243 639 q 258 604 258 614 l 258 524 q 226 486 256 486 l 143 486 q 110 522 110 486 m 114 -375 l 125 364 l 244 364 l 257 -375 l 114 -375 z "},"¢":{"ha":679,"x_min":51,"x_max":628,"o":"m 85 124 q 77 145 85 124 q 60 227 68 165 q 51 377 51 289 q 64 534 51 465 q 99 644 76 603 q 225 742 139 724 q 280 747 256 747 q 314 747 304 747 l 314 881 l 407 881 l 407 740 q 618 706 524 728 l 618 619 q 364 629 440 629 q 270 626 288 629 q 233 608 253 622 q 203 565 214 593 q 179 381 179 501 q 194 206 179 261 q 237 129 208 150 q 319 108 265 108 q 578 119 431 108 l 628 122 l 628 33 q 407 -6 532 0 l 407 -133 l 313 -133 l 313 -10 q 289 -10 310 -10 q 238 -5 268 -10 q 177 15 208 0 q 124 56 146 29 q 85 124 103 83 z "},"£":{"ha":822,"x_min":64,"x_max":758,"o":"m 65 0 l 65 100 l 163 124 l 163 451 l 65 451 l 65 525 l 163 550 l 163 693 q 232 946 163 878 q 328 1003 278 992 q 463 1017 400 1017 q 708 1000 560 1017 l 758 994 l 758 894 l 490 894 q 375 888 393 894 q 343 876 357 882 q 322 859 329 869 q 308 834 315 849 q 297 800 300 819 q 290 697 290 751 l 290 550 l 649 528 l 649 453 l 290 453 l 290 124 l 757 124 l 757 0 l 65 0 z "},"¤":{"ha":632,"x_min":65,"x_max":565,"o":"m 183 615 q 313 656 240 656 q 444 611 385 656 l 511 676 l 564 618 l 499 551 q 531 431 531 499 q 492 304 531 363 l 564 233 l 503 176 l 433 246 q 311 206 378 206 q 189 244 244 206 l 124 179 l 68 240 l 132 303 q 92 432 92 361 q 128 557 92 503 l 67 619 l 125 674 l 183 615 m 244 550 q 228 541 244 550 q 194 501 213 532 q 176 423 176 469 q 215 335 176 376 q 310 293 254 293 q 406 335 367 293 q 446 433 446 376 q 406 529 446 490 q 321 568 367 568 q 244 550 275 568 z "},"¥":{"ha":846,"x_min":25,"x_max":821,"o":"m 713 453 l 713 361 l 474 361 l 474 297 l 713 297 l 713 207 l 474 207 l 474 0 l 346 0 l 346 207 l 119 207 l 119 297 l 346 297 l 346 361 l 119 361 l 119 453 l 332 453 l 26 1017 l 165 1017 l 411 550 l 678 1017 l 821 1017 l 489 453 l 713 453 z "},"¦":{"ha":342,"x_min":111,"x_max":232,"o":"m 111 -100 l 111 356 l 231 356 l 231 -100 l 111 -100 m 111 596 l 111 1069 l 231 1069 l 231 596 l 111 596 z "},"§":{"ha":763,"x_min":71,"x_max":692,"o":"m 71 819 l 71 908 q 186 1079 71 1046 q 265 1089 218 1089 q 452 1079 313 1089 q 639 1063 592 1069 l 639 969 l 271 969 q 208 944 224 969 q 199 906 200 931 l 199 822 q 271 761 199 761 l 499 761 q 651 717 610 761 q 692 585 693 672 l 692 510 q 626 378 692 390 q 690 258 690 368 l 690 164 q 604 6 690 39 q 501 -11 561 -11 q 304 -1 440 -11 q 122 15 168 8 l 122 108 l 482 108 q 541 119 521 108 q 563 165 561 131 l 563 253 q 547 302 563 290 q 489 314 531 314 l 260 314 q 119 349 165 314 q 72 483 72 385 l 72 560 q 86 651 72 617 q 140 697 100 685 q 71 819 71 721 m 199 496 q 215 442 199 454 q 272 431 232 431 l 486 431 q 553 450 542 431 q 563 497 563 465 l 563 574 q 554 624 563 610 q 486 644 539 644 l 272 644 q 213 631 228 644 q 199 571 199 617 l 199 496 z "},"¨":{"ha":629,"x_min":64,"x_max":567,"o":"m 87 756 q 76 767 87 756 q 65 808 65 778 q 87 860 65 839 q 139 881 108 881 q 190 860 169 881 q 211 808 211 839 q 190 756 211 778 q 139 735 169 735 q 87 756 108 735 m 441 756 q 430 767 441 756 q 419 808 419 778 q 441 860 419 839 q 493 881 463 881 q 544 860 524 881 q 565 808 565 839 q 544 756 565 778 q 493 735 524 735 q 441 756 463 735 z "},"©":{"ha":1122,"x_min":71,"x_max":1051,"o":"m 71 511 q 397 1017 71 1017 l 757 1017 q 988 878 918 1017 q 1038 719 1028 799 q 1051 508 1051 613 q 1035 312 1051 403 q 983 150 1018 221 q 891 40 949 79 q 757 0 833 0 l 397 0 q 265 34 324 0 q 171 121 206 68 q 113 243 136 174 q 71 511 71 367 m 171 513 q 184 361 171 433 q 224 229 197 289 q 295 133 250 169 q 397 97 340 97 l 756 97 q 897 203 843 99 q 951 511 951 307 q 922 779 951 699 q 835 901 889 874 q 757 919 801 919 l 397 919 q 238 839 289 919 q 171 513 171 736 m 318 507 q 372 738 318 665 q 517 810 425 810 q 767 776 608 810 l 767 696 q 526 713 650 713 q 443 662 469 713 q 417 525 417 611 q 425 397 417 439 q 459 328 433 356 q 528 301 485 301 q 775 324 629 301 l 775 243 q 519 204 651 204 q 333 357 372 204 q 318 507 318 418 z "},"ª":{"ha":506,"x_min":39,"x_max":468,"o":"m 39 369 l 39 456 l 468 456 l 468 369 l 39 369 m 39 644 l 39 704 q 76 796 39 761 q 193 831 114 831 q 317 831 272 831 q 361 831 361 831 q 361 869 363 868 q 341 921 361 906 q 277 936 321 936 q 155 931 233 936 q 56 925 76 926 l 56 993 q 108 1003 67 994 q 168 1015 149 1013 q 303 1026 233 1026 q 419 991 372 1026 q 465 879 465 956 l 465 525 l 394 525 l 363 592 q 276 543 336 567 q 182 519 217 519 q 80 554 121 519 q 39 644 39 589 m 140 664 q 197 613 140 613 q 338 644 267 613 l 361 654 l 361 764 l 196 751 q 140 697 140 746 l 140 664 z "},"«":{"ha":774,"x_min":64,"x_max":711,"o":"m 65 492 l 351 774 l 432 693 l 226 492 l 439 285 l 358 203 l 65 492 m 336 492 l 622 774 l 704 693 l 497 492 l 710 285 l 629 203 l 336 492 z "},"¬":{"ha":719,"x_min":63,"x_max":657,"o":"m 64 350 l 64 467 l 656 467 l 656 221 l 539 221 l 539 350 l 64 350 z "},"­":{"ha":492,"x_min":28,"x_max":464,"o":"m 28 343 l 28 463 l 464 463 l 464 343 l 28 343 z "},"®":{"ha":1122,"x_min":71,"x_max":1051,"o":"m 71 511 q 397 1017 71 1017 l 757 1017 q 988 878 918 1017 q 1038 719 1028 799 q 1051 508 1051 613 q 1035 312 1051 403 q 983 150 1018 221 q 891 40 949 79 q 757 0 833 0 l 397 0 q 265 34 324 0 q 171 121 206 68 q 113 243 136 174 q 71 511 71 367 m 171 513 q 184 361 171 433 q 224 229 197 289 q 295 133 250 169 q 397 97 340 97 l 756 97 q 897 203 843 99 q 951 511 951 307 q 922 779 951 699 q 835 901 889 874 q 757 919 801 919 l 397 919 q 238 839 289 919 q 171 513 171 736 m 357 213 l 357 806 l 606 806 q 792 625 792 806 q 731 469 792 507 q 665 444 704 453 l 790 213 l 679 213 l 556 444 l 457 461 l 457 213 l 357 213 m 457 531 l 606 531 q 676 549 660 531 q 692 610 692 567 q 685 672 692 653 q 663 697 678 690 q 606 708 640 708 l 457 708 l 457 531 z "},"¯":{"ha":535,"x_min":64,"x_max":471,"o":"m 65 738 l 65 831 l 471 831 l 471 738 l 65 738 z "},"°":{"ha":411,"x_min":64,"x_max":347,"o":"m 84 806 q 75 823 84 806 q 65 878 65 839 q 84 949 65 917 q 135 1001 103 982 q 206 1021 168 1021 q 277 1001 244 1021 q 328 949 310 982 q 347 878 347 917 q 328 806 347 839 q 277 755 310 774 q 206 736 244 736 q 135 755 168 736 q 84 806 103 774 m 212 950 q 194 950 212 950 q 156 928 176 950 q 135 883 135 907 q 144 842 135 858 q 201 807 165 807 q 257 828 236 807 q 278 873 278 849 q 268 914 278 897 q 212 950 247 950 z "},"±":{"ha":721,"x_min":72,"x_max":651,"o":"m 72 114 l 72 233 l 650 233 l 650 114 l 72 114 m 72 536 l 72 656 l 300 656 l 300 883 l 419 883 l 419 656 l 650 656 l 650 536 l 419 536 l 419 306 l 300 306 l 300 536 l 72 536 z "},"²":{"ha":542,"x_min":40,"x_max":489,"o":"m 42 1125 l 42 1203 q 301 1225 206 1225 q 488 1033 488 1225 q 464 933 488 986 q 414 843 440 881 q 340 760 388 806 q 224 654 288 707 l 488 654 l 488 553 l 46 553 l 46 649 q 92 683 56 656 q 152 729 128 710 q 215 781 176 749 q 278 840 253 813 q 329 900 304 868 q 381 1022 381 965 q 357 1102 381 1079 q 275 1125 333 1125 l 42 1125 z "},"³":{"ha":564,"x_min":39,"x_max":488,"o":"m 39 1193 q 258 1218 113 1218 q 317 1218 283 1218 q 444 1172 401 1218 q 488 1054 488 1125 l 488 1007 q 453 907 488 943 q 417 883 438 892 q 488 751 488 844 l 488 714 q 447 590 488 633 q 310 547 406 547 l 257 547 q 44 574 117 547 l 46 647 l 285 649 q 375 679 357 649 q 383 725 383 696 l 383 753 q 290 839 383 836 l 100 846 l 100 926 l 290 936 q 385 1017 385 940 l 385 1043 q 290 1119 385 1119 l 39 1119 l 39 1193 z "},"´":{"ha":336,"x_min":25,"x_max":311,"o":"m 26 738 l 168 925 l 311 925 l 131 738 l 26 738 z "},"µ":{"ha":822,"x_min":117,"x_max":733,"o":"m 244 738 l 244 229 q 276 136 244 167 q 367 106 307 106 q 476 122 428 106 q 604 181 524 138 l 604 738 l 732 738 l 732 0 l 638 0 l 604 83 q 576 67 599 81 q 547 50 554 54 q 519 35 539 46 q 490 21 500 25 q 460 10 479 17 q 428 0 442 3 q 338 -10 385 -10 q 244 18 292 -10 l 244 -375 l 117 -375 l 117 231 l 117 738 l 244 738 z "},"¶":{"ha":804,"x_min":51,"x_max":781,"o":"m 51 693 l 51 822 q 115 966 51 915 q 268 1017 179 1017 l 779 1017 l 779 900 l 690 900 l 690 0 l 576 0 l 576 903 l 457 903 l 457 -375 l 343 -375 l 343 517 q 331 510 343 517 q 268 493 301 492 q 108 550 164 493 q 51 693 51 607 m 165 700 q 238 610 165 625 q 271 606 253 606 l 343 606 l 343 903 l 271 903 q 189 876 213 903 q 165 813 165 850 l 165 700 z "},"·":{"ha":374,"x_min":110,"x_max":265,"o":"m 110 486 l 110 578 q 143 613 110 613 l 229 613 q 264 578 264 613 l 264 486 q 229 454 264 454 l 143 454 q 117 465 124 454 q 110 486 110 476 z "},"¸":{"ha":346,"x_min":64,"x_max":283,"o":"m 179 -51 l 282 -51 q 252 -201 282 -160 q 138 -242 222 -242 l 65 -242 l 65 -182 l 135 -161 q 171 -124 163 -150 q 179 -51 179 -97 z "},"¹":{"ha":375,"x_min":19,"x_max":293,"o":"m 292 1217 l 292 553 l 189 553 l 189 1110 l 21 1065 l 21 1140 l 189 1217 l 292 1217 z "},"º":{"ha":543,"x_min":39,"x_max":506,"o":"m 273 518 q 207 518 273 518 q 90 574 140 518 q 39 771 39 629 q 89 968 39 913 q 272 1024 139 1024 q 455 968 406 1024 q 504 770 504 913 q 455 573 504 628 q 273 518 406 518 m 56 374 l 56 458 l 488 458 l 488 374 l 56 374 m 157 878 q 153 869 157 878 q 146 832 149 860 q 143 758 143 804 q 151 680 143 711 q 178 635 158 649 q 217 617 199 621 q 266 614 236 614 q 308 615 296 614 q 335 618 319 615 q 359 626 351 621 q 376 643 367 632 q 390 669 386 654 q 401 757 401 713 q 399 825 401 801 q 392 866 396 849 q 378 895 388 883 q 361 913 369 907 q 336 922 353 919 q 279 928 313 928 q 232 926 246 928 q 200 921 218 925 q 174 906 182 917 q 157 878 165 896 z "},"»":{"ha":774,"x_min":64,"x_max":711,"o":"m 65 285 l 276 492 l 71 693 l 153 774 l 439 492 l 146 203 l 65 285 m 336 285 l 549 492 l 342 693 l 424 774 l 710 492 l 417 203 l 336 285 z "},"¼":{"ha":1264,"x_min":19,"x_max":1239,"o":"m 292 1019 l 292 356 l 189 356 l 189 913 l 21 868 l 21 942 l 189 1019 l 292 1019 m 289 0 l 797 1025 l 900 1025 l 393 0 l 289 0 m 1056 261 l 1056 422 l 1093 490 l 1160 490 l 1160 261 l 1238 261 l 1238 178 l 1160 157 l 1160 -1 l 1056 -1 l 1056 157 l 724 157 l 692 199 l 968 661 l 1083 661 l 847 261 l 1056 261 z "},"½":{"ha":1358,"x_min":19,"x_max":1307,"o":"m 292 1019 l 292 356 l 189 356 l 189 913 l 21 868 l 21 942 l 189 1019 l 292 1019 m 281 0 l 789 1025 l 893 1025 l 385 0 l 281 0 m 858 571 q 857 594 857 571 q 857 631 857 617 l 858 650 q 1119 672 1024 672 q 1306 479 1306 672 q 1219 275 1306 382 q 1042 100 1150 190 l 1306 100 l 1306 0 l 863 0 l 863 94 q 917 137 868 100 q 992 194 965 174 q 1063 257 1018 215 q 1133 329 1108 299 q 1199 469 1199 411 q 1175 549 1199 526 q 1093 571 1151 571 l 858 571 z "},"¾":{"ha":1425,"x_min":39,"x_max":1358,"o":"m 39 994 q 254 1021 111 1021 q 318 1021 281 1021 q 446 974 403 1021 q 489 857 489 926 l 489 810 q 469 730 489 763 q 418 686 449 697 q 489 553 489 647 l 489 517 q 448 393 489 436 q 311 350 407 350 q 278 350 306 350 q 244 350 250 350 q 214 350 238 350 q 183 351 190 350 q 156 353 175 351 q 126 356 136 354 q 99 361 115 358 q 44 375 74 365 l 46 449 l 286 450 q 363 467 342 450 q 385 526 385 483 l 385 554 q 292 642 385 639 l 100 649 l 100 728 l 292 738 q 386 818 386 742 l 386 846 q 292 921 386 921 l 39 921 l 39 994 m 428 0 l 935 1025 l 1039 1025 l 532 0 l 428 0 m 1181 258 l 1181 424 l 1214 492 l 1281 492 l 1281 258 l 1358 258 l 1358 178 l 1281 158 l 1281 0 l 1181 0 l 1181 158 l 843 158 l 813 200 l 1088 661 l 1197 661 l 963 258 l 1181 258 z "},"¿":{"ha":754,"x_min":51,"x_max":729,"o":"m 519 -369 q 506 -370 519 -369 q 476 -372 493 -371 q 438 -373 458 -372 q 396 -374 417 -374 q 354 -373 375 -374 q 332 -372 333 -372 q 85 -253 149 -372 q 51 -107 51 -190 l 51 24 q 142 207 50 147 q 311 253 210 253 q 381 247 344 253 l 381 383 l 501 383 l 503 146 q 393 147 440 147 q 306 146 346 147 q 232 107 265 144 q 194 15 199 69 q 193 -107 193 -83 q 233 -208 193 -167 q 349 -249 272 -249 q 358 -249 354 -249 l 728 -247 q 726 -285 726 -247 q 726 -342 728 -331 q 682 -349 717 -343 q 638 -355 647 -354 q 599 -360 629 -356 q 558 -365 569 -364 q 519 -369 546 -367 m 514 622 l 514 535 q 485 500 513 501 l 394 500 q 367 535 368 506 l 367 619 q 376 643 367 633 q 400 654 386 653 l 481 654 q 514 622 514 653 z "},"À":{"ha":939,"x_min":58,"x_max":908,"o":"m 258 1294 l 401 1294 l 543 1107 l 439 1107 l 258 1294 m 58 0 l 424 1017 l 558 1017 l 908 0 l 763 0 l 679 268 l 294 268 l 207 0 l 58 0 m 335 389 l 640 389 l 490 833 l 335 389 z "},"Á":{"ha":939,"x_min":58,"x_max":908,"o":"m 439 1107 l 582 1294 l 724 1294 l 543 1107 l 439 1107 m 58 0 l 424 1017 l 558 1017 l 908 0 l 763 0 l 679 268 l 294 268 l 207 0 l 58 0 m 335 389 l 640 389 l 490 833 l 335 389 z "},"Â":{"ha":939,"x_min":58,"x_max":908,"o":"m 285 1107 l 444 1289 l 556 1289 l 697 1107 l 590 1107 l 496 1201 l 393 1107 l 285 1107 m 58 0 l 424 1017 l 558 1017 l 908 0 l 763 0 l 679 268 l 294 268 l 207 0 l 58 0 m 335 389 l 640 389 l 490 833 l 335 389 z "},"Ã":{"ha":939,"x_min":58,"x_max":908,"o":"m 571 1211 q 696 1263 608 1211 l 726 1197 q 705 1178 724 1194 q 679 1157 686 1163 q 655 1139 672 1151 q 625 1122 638 1126 q 485 1133 561 1093 q 418 1156 442 1156 q 338 1135 375 1156 q 286 1107 301 1114 l 256 1169 q 378 1253 335 1239 q 492 1242 432 1271 q 560 1212 551 1213 q 571 1211 569 1211 m 58 0 l 424 1017 l 558 1017 l 908 0 l 763 0 l 679 268 l 294 268 l 207 0 l 58 0 m 335 389 l 640 389 l 490 833 l 335 389 z "},"Ä":{"ha":939,"x_min":58,"x_max":908,"o":"m 263 1128 q 251 1139 263 1128 q 240 1181 240 1150 q 263 1232 240 1211 q 315 1253 285 1253 q 367 1232 346 1253 q 388 1181 388 1211 q 366 1128 388 1150 q 315 1107 344 1107 q 263 1128 285 1107 m 617 1128 q 606 1139 617 1128 q 594 1181 594 1150 q 617 1232 594 1211 q 669 1253 639 1253 q 721 1232 700 1253 q 742 1181 742 1211 q 720 1128 742 1150 q 669 1107 699 1107 q 617 1128 639 1107 m 58 0 l 424 1017 l 558 1017 l 908 0 l 763 0 l 679 268 l 294 268 l 207 0 l 58 0 m 335 389 l 640 389 l 490 833 l 335 389 z "},"Å":{"ha":939,"x_min":58,"x_max":908,"o":"m 350 1166 q 350 1141 350 1166 q 369 1084 350 1117 q 422 1033 389 1051 q 492 1014 454 1014 q 563 1033 531 1014 q 613 1084 594 1051 q 632 1166 632 1117 q 591 1257 632 1215 q 492 1299 550 1299 q 392 1257 433 1299 q 350 1166 350 1215 m 441 1106 q 430 1116 441 1106 q 419 1156 419 1126 q 441 1206 419 1185 q 498 1228 463 1228 q 553 1192 533 1228 q 563 1151 563 1175 q 542 1106 563 1126 q 492 1085 521 1085 q 441 1106 463 1085 m 58 0 l 424 1017 l 558 1017 l 908 0 l 763 0 l 679 268 l 294 268 l 207 0 l 58 0 m 335 389 l 640 389 l 490 833 l 335 389 z "},"Æ":{"ha":1292,"x_min":39,"x_max":1233,"o":"m 707 1018 l 763 1017 q 992 1007 776 1017 q 1233 994 1208 997 l 1233 890 l 804 890 q 744 867 756 890 q 735 817 736 849 l 735 563 l 1175 549 l 1175 446 l 735 432 l 735 190 q 740 155 735 164 q 747 140 744 146 q 757 132 750 135 q 767 127 764 129 q 781 124 771 125 q 793 124 790 124 q 807 124 796 124 q 821 124 818 124 l 1232 122 l 1232 17 l 808 -7 q 785 -7 796 -7 q 607 168 607 -7 l 607 303 l 328 303 l 179 0 l 39 0 l 447 828 q 576 983 506 944 q 707 1018 639 1018 m 607 424 l 607 869 l 388 424 l 607 424 z "},"Ç":{"ha":800,"x_min":71,"x_max":756,"o":"m 378 -50 l 481 -50 q 450 -200 481 -158 q 336 -242 419 -242 l 264 -242 l 264 -181 l 333 -160 q 369 -122 360 -149 q 378 -50 378 -96 m 71 503 q 80 690 71 614 q 112 833 89 767 q 172 940 135 899 q 413 1028 254 1028 q 756 990 582 1028 l 756 889 q 748 890 756 889 q 728 891 740 890 q 698 893 715 892 q 660 895 681 894 q 616 897 639 896 q 568 900 593 899 q 518 903 543 901 q 413 904 467 904 q 319 889 360 904 q 251 830 279 874 q 210 709 222 786 q 199 545 199 632 q 202 415 199 458 q 213 331 206 372 q 232 258 221 290 q 261 198 243 225 q 303 153 279 171 q 421 115 351 115 q 706 122 554 115 l 756 125 l 756 25 q 588 1 686 10 q 453 -8 490 -8 q 413 -8 415 -8 q 144 138 224 -8 q 71 503 71 274 z "},"È":{"ha":788,"x_min":103,"x_max":732,"o":"m 240 1288 l 382 1288 l 525 1101 l 421 1101 l 240 1288 m 103 179 l 103 828 q 156 974 103 931 q 281 1017 208 1017 q 497 1007 286 1017 q 732 994 707 997 l 732 892 l 303 892 q 239 867 251 892 q 231 814 231 847 l 231 569 l 674 556 l 674 451 l 231 438 l 231 193 q 260 129 232 140 q 317 121 282 121 l 732 121 l 732 19 l 304 -4 q 282 -4 293 -4 q 103 179 103 -4 z "},"É":{"ha":788,"x_min":103,"x_max":732,"o":"m 394 1101 l 536 1288 l 679 1288 l 499 1101 l 394 1101 m 103 179 l 103 828 q 156 974 103 931 q 281 1017 208 1017 q 497 1007 286 1017 q 732 994 707 997 l 732 892 l 303 892 q 239 867 251 892 q 231 814 231 847 l 231 569 l 674 556 l 674 451 l 231 438 l 231 193 q 260 129 232 140 q 317 121 282 121 l 732 121 l 732 19 l 304 -4 q 282 -4 293 -4 q 103 179 103 -4 z "},"Ê":{"ha":788,"x_min":103,"x_max":732,"o":"m 233 1107 l 393 1289 l 504 1289 l 646 1107 l 539 1107 l 444 1201 l 342 1107 l 233 1107 m 103 179 l 103 828 q 156 974 103 931 q 281 1017 208 1017 q 497 1007 286 1017 q 732 994 707 997 l 732 892 l 303 892 q 239 867 251 892 q 231 814 231 847 l 231 569 l 674 556 l 674 451 l 231 438 l 231 193 q 260 129 232 140 q 317 121 282 121 l 732 121 l 732 19 l 304 -4 q 282 -4 293 -4 q 103 179 103 -4 z "},"Ë":{"ha":788,"x_min":103,"x_max":732,"o":"m 210 1123 q 200 1134 210 1123 q 189 1175 189 1144 q 210 1226 189 1206 q 263 1247 232 1247 q 314 1226 293 1247 q 335 1175 335 1206 q 314 1123 335 1144 q 263 1101 293 1101 q 210 1123 232 1101 m 565 1123 q 554 1134 565 1123 q 543 1175 543 1144 q 565 1226 543 1206 q 617 1247 586 1247 q 668 1226 647 1247 q 689 1175 689 1206 q 668 1123 689 1144 q 617 1101 647 1101 q 565 1123 586 1101 m 103 179 l 103 828 q 156 974 103 931 q 281 1017 208 1017 q 497 1007 286 1017 q 732 994 707 997 l 732 892 l 303 892 q 239 867 251 892 q 231 814 231 847 l 231 569 l 674 556 l 674 451 l 231 438 l 231 193 q 260 129 232 140 q 317 121 282 121 l 732 121 l 732 19 l 304 -4 q 282 -4 293 -4 q 103 179 103 -4 z "},"Ì":{"ha":308,"x_min":-65,"x_max":232,"o":"m -65 1294 l 78 1294 l 219 1107 l 115 1107 l -65 1294 m 104 0 l 104 1017 l 232 1017 l 232 0 l 104 0 z "},"Í":{"ha":308,"x_min":103,"x_max":401,"o":"m 115 1107 l 258 1294 l 400 1294 l 219 1107 l 115 1107 m 104 0 l 104 1017 l 232 1017 l 232 0 l 104 0 z "},"Î":{"ha":308,"x_min":-39,"x_max":374,"o":"m -39 1107 l 121 1289 l 232 1289 l 374 1107 l 267 1107 l 172 1201 l 69 1107 l -39 1107 m 104 0 l 104 1017 l 232 1017 l 232 0 l 104 0 z "},"Ï":{"ha":308,"x_min":-83,"x_max":418,"o":"m -61 1128 q -72 1139 -61 1128 q -83 1181 -83 1150 q -61 1232 -83 1211 q -8 1253 -39 1253 q 43 1232 22 1253 q 64 1181 64 1211 q 43 1128 64 1150 q -8 1107 22 1107 q -61 1128 -39 1107 m 294 1128 q 283 1139 294 1128 q 272 1181 272 1150 q 294 1232 272 1211 q 346 1253 315 1253 q 397 1232 376 1253 q 418 1181 418 1211 q 397 1128 418 1150 q 346 1107 376 1107 q 294 1128 315 1107 m 104 0 l 104 1017 l 232 1017 l 232 0 l 104 0 z "},"Ð":{"ha":914,"x_min":13,"x_max":856,"o":"m 14 478 l 14 558 l 104 558 l 104 1015 q 497 1017 104 1017 q 767 883 678 1017 q 856 504 856 753 q 738 106 856 246 q 635 28 697 57 q 497 0 574 0 l 104 0 l 104 478 l 14 478 m 232 125 l 493 125 q 626 178 574 125 q 724 506 724 274 q 493 889 724 889 l 232 888 l 232 558 l 414 558 l 414 478 l 232 478 l 232 125 z "},"Ñ":{"ha":943,"x_min":103,"x_max":867,"o":"m 565 1211 q 689 1263 603 1211 l 721 1197 q 704 1183 715 1193 q 686 1167 693 1174 q 667 1153 679 1161 q 647 1138 656 1144 q 627 1126 639 1132 q 606 1115 615 1119 q 478 1133 550 1096 q 413 1156 436 1156 q 352 1144 374 1156 q 313 1123 331 1133 q 279 1107 294 1113 l 249 1169 q 371 1253 328 1239 q 485 1242 425 1271 q 554 1212 544 1213 q 565 1211 564 1211 m 104 0 l 104 1017 l 235 1017 l 739 238 l 739 1017 l 867 1017 l 867 0 l 739 0 l 233 778 l 233 0 l 104 0 z "},"Ò":{"ha":936,"x_min":83,"x_max":879,"o":"m 250 1294 l 393 1294 l 535 1107 l 431 1107 l 250 1294 m 85 503 q 95 680 85 601 q 122 813 106 758 q 168 907 139 868 q 228 968 197 946 q 303 1003 258 990 q 457 1024 374 1024 q 581 1019 540 1024 q 666 1003 622 1015 q 740 968 710 990 q 798 907 769 946 q 843 814 826 868 q 879 501 879 693 q 831 171 879 276 q 776 80 807 115 q 696 26 744 44 q 483 -6 614 -6 q 221 49 293 -6 q 119 199 147 103 q 85 503 85 315 m 256 810 q 247 790 256 810 q 225 693 238 769 q 213 531 213 617 q 215 400 213 444 q 223 318 218 356 q 237 253 228 281 q 257 203 246 225 q 285 167 268 182 q 320 143 301 153 q 365 128 339 133 q 480 118 413 118 q 589 127 547 118 q 664 159 631 136 q 715 226 697 182 q 751 501 751 314 q 742 677 751 625 q 727 758 733 729 q 708 809 721 788 q 685 846 696 831 q 654 872 674 861 q 620 888 635 882 q 579 896 606 893 q 479 900 540 900 q 385 896 418 900 q 313 872 353 892 q 256 810 274 851 z "},"Ó":{"ha":936,"x_min":83,"x_max":879,"o":"m 431 1107 l 574 1294 l 715 1294 l 535 1107 l 431 1107 m 85 503 q 95 680 85 601 q 122 813 106 758 q 168 907 139 868 q 228 968 197 946 q 303 1003 258 990 q 457 1024 374 1024 q 581 1019 540 1024 q 666 1003 622 1015 q 740 968 710 990 q 798 907 769 946 q 843 814 826 868 q 879 501 879 693 q 831 171 879 276 q 776 80 807 115 q 696 26 744 44 q 483 -6 614 -6 q 221 49 293 -6 q 119 199 147 103 q 85 503 85 315 m 256 810 q 247 790 256 810 q 225 693 238 769 q 213 531 213 617 q 215 400 213 444 q 223 318 218 356 q 237 253 228 281 q 257 203 246 225 q 285 167 268 182 q 320 143 301 153 q 365 128 339 133 q 480 118 413 118 q 589 127 547 118 q 664 159 631 136 q 715 226 697 182 q 751 501 751 314 q 742 677 751 625 q 727 758 733 729 q 708 809 721 788 q 685 846 696 831 q 654 872 674 861 q 620 888 635 882 q 579 896 606 893 q 479 900 540 900 q 385 896 418 900 q 313 872 353 892 q 256 810 274 851 z "},"Ô":{"ha":936,"x_min":83,"x_max":879,"o":"m 276 1107 l 436 1289 l 547 1289 l 689 1107 l 582 1107 l 488 1201 l 385 1107 l 276 1107 m 85 503 q 95 680 85 601 q 122 813 106 758 q 168 907 139 868 q 228 968 197 946 q 303 1003 258 990 q 457 1024 374 1024 q 581 1019 540 1024 q 666 1003 622 1015 q 740 968 710 990 q 798 907 769 946 q 843 814 826 868 q 879 501 879 693 q 831 171 879 276 q 776 80 807 115 q 696 26 744 44 q 483 -6 614 -6 q 221 49 293 -6 q 119 199 147 103 q 85 503 85 315 m 256 810 q 247 790 256 810 q 225 693 238 769 q 213 531 213 617 q 215 400 213 444 q 223 318 218 356 q 237 253 228 281 q 257 203 246 225 q 285 167 268 182 q 320 143 301 153 q 365 128 339 133 q 480 118 413 118 q 589 127 547 118 q 664 159 631 136 q 715 226 697 182 q 751 501 751 314 q 742 677 751 625 q 727 758 733 729 q 708 809 721 788 q 685 846 696 831 q 654 872 674 861 q 620 888 635 882 q 579 896 606 893 q 479 900 540 900 q 385 896 418 900 q 313 872 353 892 q 256 810 274 851 z "},"Õ":{"ha":936,"x_min":83,"x_max":879,"o":"m 563 1211 q 688 1263 600 1211 l 718 1197 q 697 1178 715 1194 q 671 1157 678 1163 q 647 1139 664 1151 q 617 1122 629 1126 q 476 1133 553 1093 q 410 1156 433 1156 q 329 1133 369 1156 q 278 1107 292 1113 l 247 1169 q 369 1253 326 1239 q 483 1242 424 1271 q 552 1212 543 1213 q 563 1211 561 1211 m 85 503 q 95 680 85 601 q 122 813 106 758 q 168 907 139 868 q 228 968 197 946 q 303 1003 258 990 q 457 1024 374 1024 q 581 1019 540 1024 q 666 1003 622 1015 q 740 968 710 990 q 798 907 769 946 q 843 814 826 868 q 879 501 879 693 q 831 171 879 276 q 776 80 807 115 q 696 26 744 44 q 483 -6 614 -6 q 221 49 293 -6 q 119 199 147 103 q 85 503 85 315 m 256 810 q 247 790 256 810 q 225 693 238 769 q 213 531 213 617 q 215 400 213 444 q 223 318 218 356 q 237 253 228 281 q 257 203 246 225 q 285 167 268 182 q 320 143 301 153 q 365 128 339 133 q 480 118 413 118 q 589 127 547 118 q 664 159 631 136 q 715 226 697 182 q 751 501 751 314 q 742 677 751 625 q 727 758 733 729 q 708 809 721 788 q 685 846 696 831 q 654 872 674 861 q 620 888 635 882 q 579 896 606 893 q 479 900 540 900 q 385 896 418 900 q 313 872 353 892 q 256 810 274 851 z "},"Ö":{"ha":936,"x_min":83,"x_max":879,"o":"m 254 1128 q 243 1139 254 1128 q 232 1181 232 1150 q 254 1232 232 1211 q 307 1253 276 1253 q 358 1232 338 1253 q 379 1181 379 1211 q 358 1128 379 1150 q 306 1107 336 1107 q 254 1128 276 1107 m 608 1128 q 597 1139 608 1128 q 586 1181 586 1150 q 608 1232 586 1211 q 661 1253 631 1253 q 713 1232 692 1253 q 733 1181 733 1211 q 712 1128 733 1150 q 660 1107 690 1107 q 608 1128 631 1107 m 85 503 q 95 680 85 601 q 122 813 106 758 q 168 907 139 868 q 228 968 197 946 q 303 1003 258 990 q 457 1024 374 1024 q 581 1019 540 1024 q 666 1003 622 1015 q 740 968 710 990 q 798 907 769 946 q 843 814 826 868 q 879 501 879 693 q 831 171 879 276 q 776 80 807 115 q 696 26 744 44 q 483 -6 614 -6 q 221 49 293 -6 q 119 199 147 103 q 85 503 85 315 m 256 810 q 247 790 256 810 q 225 693 238 769 q 213 531 213 617 q 215 400 213 444 q 223 318 218 356 q 237 253 228 281 q 257 203 246 225 q 285 167 268 182 q 320 143 301 153 q 365 128 339 133 q 480 118 413 118 q 589 127 547 118 q 664 159 631 136 q 715 226 697 182 q 751 501 751 314 q 742 677 751 625 q 727 758 733 729 q 708 809 721 788 q 685 846 696 831 q 654 872 674 861 q 620 888 635 882 q 579 896 606 893 q 479 900 540 900 q 385 896 418 900 q 313 872 353 892 q 256 810 274 851 z "},"×":{"ha":638,"x_min":72,"x_max":567,"o":"m 72 332 l 235 493 l 72 656 l 157 740 l 319 578 l 482 740 l 567 657 l 403 493 l 565 332 l 481 247 l 319 408 l 158 249 l 72 332 z "},"Ø":{"ha":939,"x_min":86,"x_max":882,"o":"m 168 907 q 227 968 197 946 q 301 1003 257 990 q 471 1024 372 1024 q 629 1013 569 1024 q 735 972 689 1003 l 764 1017 l 854 1017 l 790 919 q 881 501 881 803 q 775 79 881 181 q 651 10 719 26 q 488 -6 582 -6 q 331 6 393 -6 q 222 49 268 17 l 190 0 l 100 0 l 167 103 q 86 506 86 215 q 168 907 86 796 m 251 229 l 664 867 q 557 899 626 894 q 491 900 531 900 q 433 899 451 900 q 388 896 414 899 q 348 888 363 893 q 313 872 333 882 q 283 847 293 863 q 259 810 272 832 q 239 760 246 789 q 225 693 232 731 q 214 466 214 626 q 251 229 214 306 m 665 158 q 753 501 753 219 q 711 801 753 717 l 296 160 q 477 118 349 118 q 665 158 606 118 z "},"Ù":{"ha":935,"x_min":103,"x_max":858,"o":"m 249 1294 l 390 1294 l 533 1107 l 429 1107 l 249 1294 m 485 -7 l 465 -7 q 249 28 301 -7 q 192 77 224 44 q 143 157 160 110 q 104 444 104 274 l 104 1017 l 232 1017 l 232 444 q 241 299 232 342 q 256 231 250 256 q 275 190 263 207 q 298 160 288 172 q 327 139 308 147 q 360 126 346 131 q 397 119 374 122 q 476 117 433 117 q 541 118 518 117 q 592 127 564 119 q 638 147 619 135 q 675 184 656 160 q 704 243 694 208 q 729 444 729 321 l 729 1017 l 858 1017 l 858 444 q 763 79 858 172 q 703 29 729 46 q 631 4 676 13 q 485 -7 572 -7 z "},"Ú":{"ha":935,"x_min":103,"x_max":858,"o":"m 429 1107 l 571 1294 l 714 1294 l 533 1107 l 429 1107 m 485 -7 l 465 -7 q 249 28 301 -7 q 192 77 224 44 q 143 157 160 110 q 104 444 104 274 l 104 1017 l 232 1017 l 232 444 q 241 299 232 342 q 256 231 250 256 q 275 190 263 207 q 298 160 288 172 q 327 139 308 147 q 360 126 346 131 q 397 119 374 122 q 476 117 433 117 q 541 118 518 117 q 592 127 564 119 q 638 147 619 135 q 675 184 656 160 q 704 243 694 208 q 729 444 729 321 l 729 1017 l 858 1017 l 858 444 q 763 79 858 172 q 703 29 729 46 q 631 4 676 13 q 485 -7 572 -7 z "},"Û":{"ha":935,"x_min":103,"x_max":858,"o":"m 275 1107 l 433 1289 l 544 1289 l 686 1107 l 581 1107 l 486 1201 l 383 1107 l 275 1107 m 485 -7 l 465 -7 q 249 28 301 -7 q 192 77 224 44 q 143 157 160 110 q 104 444 104 274 l 104 1017 l 232 1017 l 232 444 q 241 299 232 342 q 256 231 250 256 q 275 190 263 207 q 298 160 288 172 q 327 139 308 147 q 360 126 346 131 q 397 119 374 122 q 476 117 433 117 q 541 118 518 117 q 592 127 564 119 q 638 147 619 135 q 675 184 656 160 q 704 243 694 208 q 729 444 729 321 l 729 1017 l 858 1017 l 858 444 q 763 79 858 172 q 703 29 729 46 q 631 4 676 13 q 485 -7 572 -7 z "},"Ü":{"ha":935,"x_min":103,"x_max":858,"o":"m 252 1128 q 241 1139 252 1128 q 231 1181 231 1150 q 252 1232 231 1211 q 304 1253 274 1253 q 356 1232 335 1253 q 378 1181 378 1211 q 356 1128 378 1150 q 304 1107 335 1107 q 252 1128 274 1107 m 606 1128 q 595 1139 606 1128 q 585 1181 585 1150 q 606 1232 585 1211 q 658 1253 628 1253 q 710 1232 689 1253 q 731 1181 731 1211 q 710 1128 731 1150 q 658 1107 689 1107 q 606 1128 628 1107 m 485 -7 l 465 -7 q 249 28 301 -7 q 192 77 224 44 q 143 157 160 110 q 104 444 104 274 l 104 1017 l 232 1017 l 232 444 q 241 299 232 342 q 256 231 250 256 q 275 190 263 207 q 298 160 288 172 q 327 139 308 147 q 360 126 346 131 q 397 119 374 122 q 476 117 433 117 q 541 118 518 117 q 592 127 564 119 q 638 147 619 135 q 675 184 656 160 q 704 243 694 208 q 729 444 729 321 l 729 1017 l 858 1017 l 858 444 q 763 79 858 172 q 703 29 729 46 q 631 4 676 13 q 485 -7 572 -7 z "},"Ý":{"ha":885,"x_min":58,"x_max":853,"o":"m 403 1107 l 546 1294 l 689 1294 l 508 1107 l 403 1107 m 506 0 l 378 0 l 378 349 l 58 1017 l 197 1017 l 443 496 l 714 1017 l 853 1017 l 506 349 l 506 0 z "},"Þ":{"ha":769,"x_min":78,"x_max":706,"o":"m 78 0 l 78 1013 l 206 1013 l 206 817 l 461 817 q 706 521 706 814 q 590 236 706 299 q 461 207 536 207 q 428 206 453 207 q 397 206 404 206 q 367 208 389 207 q 326 213 344 208 q 206 233 267 221 l 206 0 l 78 0 m 206 328 l 444 328 q 460 328 446 328 q 496 335 475 328 q 536 361 517 342 q 576 522 576 401 q 511 681 574 651 q 444 694 483 694 l 206 694 l 206 328 z "},"ß":{"ha":792,"x_min":78,"x_max":768,"o":"m 313 114 l 535 107 q 606 131 575 107 q 639 194 638 154 l 639 251 q 586 308 639 290 q 533 324 561 317 q 476 343 504 332 q 424 371 447 354 q 369 477 369 406 q 399 590 369 549 q 525 704 429 631 q 592 836 592 756 q 396 958 592 958 q 258 913 310 958 q 206 767 206 867 l 206 0 l 78 0 l 78 786 q 162 997 78 913 q 394 1081 246 1081 q 562 1056 492 1081 q 665 989 632 1031 q 719 843 719 925 q 686 715 719 774 q 615 628 653 657 q 576 594 601 615 q 541 563 551 572 q 518 540 531 554 q 496 488 496 515 q 524 445 496 460 q 591 419 551 431 q 671 392 631 408 q 739 339 711 375 q 767 247 767 303 l 767 188 q 746 91 767 132 q 690 29 725 50 q 543 -11 624 -11 q 395 1 469 -11 q 313 15 321 14 l 313 114 z "},"à":{"ha":721,"x_min":51,"x_max":657,"o":"m 138 1022 l 281 1022 l 422 835 l 318 835 l 138 1022 m 75 708 q 433 751 217 751 q 625 660 569 751 q 656 531 656 608 l 656 0 l 558 0 l 528 86 q 482 60 524 82 q 369 15 440 39 q 244 -8 299 -8 q 105 43 158 -8 q 51 179 51 94 l 51 260 q 102 397 51 344 q 244 449 153 449 q 457 449 386 449 q 528 449 528 449 q 529 509 529 489 q 528 542 529 529 q 523 572 528 554 q 509 603 518 590 q 486 622 500 615 q 418 636 461 638 q 75 621 304 636 l 75 708 m 179 192 q 258 108 179 108 q 372 126 304 108 q 483 160 439 143 l 528 176 l 528 357 l 256 338 q 179 251 179 331 l 179 192 z "},"á":{"ha":721,"x_min":51,"x_max":657,"o":"m 313 835 l 454 1022 l 597 1022 l 417 835 l 313 835 m 75 708 q 433 751 217 751 q 625 660 569 751 q 656 531 656 608 l 656 0 l 558 0 l 528 86 q 482 60 524 82 q 369 15 440 39 q 244 -8 299 -8 q 105 43 158 -8 q 51 179 51 94 l 51 260 q 102 397 51 344 q 244 449 153 449 q 457 449 386 449 q 528 449 528 449 q 529 509 529 489 q 528 542 529 529 q 523 572 528 554 q 509 603 518 590 q 486 622 500 615 q 418 636 461 638 q 75 621 304 636 l 75 708 m 179 192 q 258 108 179 108 q 372 126 304 108 q 483 160 439 143 l 528 176 l 528 357 l 256 338 q 179 251 179 331 l 179 192 z "},"â":{"ha":721,"x_min":51,"x_max":657,"o":"m 161 835 l 319 1017 l 431 1017 l 572 835 l 465 835 l 371 929 l 269 835 l 161 835 m 75 708 q 433 751 217 751 q 625 660 569 751 q 656 531 656 608 l 656 0 l 558 0 l 528 86 q 482 60 524 82 q 369 15 440 39 q 244 -8 299 -8 q 105 43 158 -8 q 51 179 51 94 l 51 260 q 102 397 51 344 q 244 449 153 449 q 457 449 386 449 q 528 449 528 449 q 529 509 529 489 q 528 542 529 529 q 523 572 528 554 q 509 603 518 590 q 486 622 500 615 q 418 636 461 638 q 75 621 304 636 l 75 708 m 179 192 q 258 108 179 108 q 372 126 304 108 q 483 160 439 143 l 528 176 l 528 357 l 256 338 q 179 251 179 331 l 179 192 z "},"ã":{"ha":721,"x_min":51,"x_max":657,"o":"m 440 939 q 565 990 478 939 l 596 925 q 574 906 593 922 q 548 885 556 890 q 523 867 540 879 q 494 850 506 854 q 378 850 436 824 q 330 872 351 861 q 298 883 308 883 q 274 883 288 883 q 240 876 260 883 q 195 856 221 869 q 156 835 169 842 l 125 897 q 247 981 203 967 q 361 969 301 999 q 430 940 421 940 q 440 939 439 939 m 75 708 q 433 751 217 751 q 625 660 569 751 q 656 531 656 608 l 656 0 l 558 0 l 528 86 q 482 60 524 82 q 369 15 440 39 q 244 -8 299 -8 q 105 43 158 -8 q 51 179 51 94 l 51 260 q 102 397 51 344 q 244 449 153 449 q 457 449 386 449 q 528 449 528 449 q 529 509 529 489 q 528 542 529 529 q 523 572 528 554 q 509 603 518 590 q 486 622 500 615 q 418 636 461 638 q 75 621 304 636 l 75 708 m 179 192 q 258 108 179 108 q 372 126 304 108 q 483 160 439 143 l 528 176 l 528 357 l 256 338 q 179 251 179 331 l 179 192 z "},"ä":{"ha":721,"x_min":51,"x_max":657,"o":"m 135 856 q 125 867 135 856 q 114 908 114 878 q 135 960 114 939 q 188 982 157 982 q 240 960 218 982 q 261 908 261 939 q 240 856 261 878 q 188 835 218 835 q 135 856 157 835 m 490 856 q 479 867 490 856 q 468 908 468 878 q 490 960 468 939 q 542 982 511 982 q 594 960 572 982 q 615 908 615 939 q 594 856 615 878 q 542 835 572 835 q 490 856 511 835 m 75 708 q 433 751 217 751 q 625 660 569 751 q 656 531 656 608 l 656 0 l 558 0 l 528 86 q 482 60 524 82 q 369 15 440 39 q 244 -8 299 -8 q 105 43 158 -8 q 51 179 51 94 l 51 260 q 102 397 51 344 q 244 449 153 449 q 457 449 386 449 q 528 449 528 449 q 529 509 529 489 q 528 542 529 529 q 523 572 528 554 q 509 603 518 590 q 486 622 500 615 q 418 636 461 638 q 75 621 304 636 l 75 708 m 179 192 q 258 108 179 108 q 372 126 304 108 q 483 160 439 143 l 528 176 l 528 357 l 256 338 q 179 251 179 331 l 179 192 z "},"å":{"ha":721,"x_min":51,"x_max":657,"o":"m 357 800 q 333 800 357 800 q 267 841 308 800 q 225 931 225 882 q 244 1013 225 981 q 297 1065 264 1046 q 367 1083 329 1083 q 438 1065 406 1083 q 488 1013 469 1046 q 507 941 507 981 q 488 869 507 901 q 438 819 469 838 q 357 800 406 800 m 316 992 q 305 981 316 992 q 294 941 294 971 q 316 891 294 911 q 367 871 338 871 q 417 891 396 871 q 438 941 438 911 q 417 992 438 971 q 367 1013 396 1013 q 316 992 338 1013 m 75 708 q 433 751 217 751 q 625 660 569 751 q 656 531 656 608 l 656 0 l 558 0 l 528 86 q 482 60 524 82 q 369 15 440 39 q 244 -8 299 -8 q 105 43 158 -8 q 51 179 51 94 l 51 260 q 102 397 51 344 q 244 449 153 449 q 457 449 386 449 q 528 449 528 449 q 529 509 529 489 q 528 542 529 529 q 523 572 528 554 q 509 603 518 590 q 486 622 500 615 q 418 636 461 638 q 75 621 304 636 l 75 708 m 179 192 q 258 108 179 108 q 372 126 304 108 q 483 160 439 143 l 528 176 l 528 357 l 256 338 q 179 251 179 331 l 179 192 z "},"æ":{"ha":1199,"x_min":51,"x_max":1149,"o":"m 75 715 q 433 758 199 758 q 610 683 554 758 q 753 746 658 735 q 851 750 794 750 q 942 747 908 750 q 1013 736 976 744 q 1072 710 1050 728 q 1113 664 1093 693 q 1147 489 1147 611 q 953 318 1147 318 l 663 318 q 694 158 663 199 q 807 117 725 117 q 1133 132 1038 117 l 1133 39 q 778 0 1007 0 q 653 24 697 0 q 567 97 608 47 q 510 68 563 92 q 378 22 457 44 q 244 -1 299 -1 q 105 51 158 -1 q 51 186 51 103 l 51 239 q 100 375 51 324 q 244 429 151 429 q 457 428 386 428 q 528 429 528 428 q 529 509 529 482 q 528 549 529 536 q 523 579 528 561 q 509 610 518 597 q 486 631 500 622 q 418 644 461 644 q 75 628 314 644 l 75 715 m 179 197 q 200 134 179 151 q 263 117 221 117 q 372 133 304 117 q 483 167 439 150 l 528 183 l 528 344 l 256 325 q 179 239 179 318 l 179 197 m 1019 492 q 1015 570 1019 543 q 990 613 1010 597 q 944 631 971 628 q 875 635 917 635 q 820 635 833 635 q 785 633 807 635 q 755 629 764 632 q 730 622 746 626 q 708 609 714 617 q 692 590 701 601 q 678 564 682 579 q 669 529 674 549 q 663 428 663 497 l 939 428 q 1019 492 1019 428 z "},"ç":{"ha":692,"x_min":64,"x_max":642,"o":"m 110 99 q 100 119 110 99 q 78 208 90 140 q 65 362 65 276 q 73 508 65 447 q 97 608 81 568 q 133 676 113 649 q 182 719 154 704 q 308 747 235 747 q 631 706 454 747 l 631 619 q 378 629 454 629 q 283 626 301 629 q 246 608 265 622 q 217 565 226 593 q 193 381 193 501 q 207 206 193 261 q 249 129 221 150 q 333 108 278 108 q 592 119 444 108 l 640 122 l 640 33 q 424 -7 543 0 q 238 -3 279 -14 q 163 33 196 8 q 110 99 131 57 m 350 -51 l 454 -51 q 424 -201 454 -160 q 310 -243 393 -243 l 236 -243 l 236 -182 l 307 -161 q 342 -124 333 -150 q 350 -51 350 -97 z "},"è":{"ha":729,"x_min":64,"x_max":678,"o":"m 156 1014 l 299 1014 l 440 828 l 336 828 l 156 1014 m 97 613 q 139 680 115 654 q 201 719 163 706 q 388 743 268 743 q 579 717 529 743 q 653 639 633 688 q 678 481 678 578 q 483 306 678 306 l 193 306 q 224 149 193 188 q 338 110 254 110 q 664 125 567 110 l 664 32 q 308 -7 536 -7 q 117 75 168 -7 q 65 347 65 157 q 97 613 65 538 m 469 418 q 550 482 550 418 q 544 561 550 535 q 520 603 539 588 q 474 624 501 619 q 404 628 446 628 q 347 627 363 628 q 309 625 331 626 q 276 619 288 624 q 250 608 265 615 q 228 590 235 601 q 213 564 221 579 q 201 528 204 549 q 193 418 193 476 l 469 418 z "},"é":{"ha":729,"x_min":64,"x_max":678,"o":"m 325 828 l 467 1014 l 610 1014 l 429 828 l 325 828 m 97 613 q 139 680 115 654 q 201 719 163 706 q 388 743 268 743 q 579 717 529 743 q 653 639 633 688 q 678 481 678 578 q 483 306 678 306 l 193 306 q 224 149 193 188 q 338 110 254 110 q 664 125 567 110 l 664 32 q 308 -7 536 -7 q 117 75 168 -7 q 65 347 65 157 q 97 613 65 538 m 469 418 q 550 482 550 418 q 544 561 550 535 q 520 603 539 588 q 474 624 501 619 q 404 628 446 628 q 347 627 363 628 q 309 625 331 626 q 276 619 288 624 q 250 608 265 615 q 228 590 235 601 q 213 564 221 579 q 201 528 204 549 q 193 418 193 476 l 469 418 z "},"ê":{"ha":729,"x_min":64,"x_max":678,"o":"m 172 828 l 331 1011 l 442 1011 l 583 828 l 476 828 l 382 922 l 281 828 l 172 828 m 97 613 q 139 680 115 654 q 201 719 163 706 q 388 743 268 743 q 579 717 529 743 q 653 639 633 688 q 678 481 678 578 q 483 306 678 306 l 193 306 q 224 149 193 188 q 338 110 254 110 q 664 125 567 110 l 664 32 q 308 -7 536 -7 q 117 75 168 -7 q 65 347 65 157 q 97 613 65 538 m 469 418 q 550 482 550 418 q 544 561 550 535 q 520 603 539 588 q 474 624 501 619 q 404 628 446 628 q 347 627 363 628 q 309 625 331 626 q 276 619 288 624 q 250 608 265 615 q 228 590 235 601 q 213 564 221 579 q 201 528 204 549 q 193 418 193 476 l 469 418 z "},"ë":{"ha":729,"x_min":64,"x_max":678,"o":"m 145 849 q 134 860 145 849 q 124 901 124 871 q 145 953 124 932 q 197 975 167 975 q 249 953 228 975 q 271 901 271 932 q 249 849 271 871 q 197 828 228 828 q 145 849 167 828 m 499 849 q 489 860 499 849 q 478 901 478 871 q 499 953 478 932 q 551 975 521 975 q 603 953 582 975 q 625 901 625 932 q 603 849 625 871 q 551 828 582 828 q 499 849 521 828 m 97 613 q 139 680 115 654 q 201 719 163 706 q 388 743 268 743 q 579 717 529 743 q 653 639 633 688 q 678 481 678 578 q 483 306 678 306 l 193 306 q 224 149 193 188 q 338 110 254 110 q 664 125 567 110 l 664 32 q 308 -7 536 -7 q 117 75 168 -7 q 65 347 65 157 q 97 613 65 538 m 469 418 q 550 482 550 418 q 544 561 550 535 q 520 603 539 588 q 474 624 501 619 q 404 628 446 628 q 347 627 363 628 q 309 625 331 626 q 276 619 288 624 q 250 608 265 615 q 228 590 235 601 q 213 564 221 579 q 201 528 204 549 q 193 418 193 476 l 469 418 z "},"ì":{"ha":283,"x_min":-92,"x_max":207,"o":"m -90 1014 l 51 1014 l 194 828 l 90 828 l -90 1014 m 78 0 l 78 738 l 206 738 l 206 0 l 78 0 z "},"í":{"ha":283,"x_min":78,"x_max":375,"o":"m 90 828 l 232 1014 l 375 1014 l 194 828 l 90 828 m 78 0 l 78 738 l 206 738 l 206 0 l 78 0 z "},"î":{"ha":283,"x_min":-65,"x_max":349,"o":"m -64 828 l 94 1011 l 206 1011 l 347 828 l 240 828 l 147 922 l 44 828 l -64 828 m 78 0 l 78 738 l 206 738 l 206 0 l 78 0 z "},"ï":{"ha":283,"x_min":-110,"x_max":393,"o":"m -87 849 q -98 860 -87 849 q -108 901 -108 871 q -87 953 -108 932 q -35 975 -65 975 q 17 953 -4 975 q 38 901 38 932 q 17 849 38 871 q -35 828 -4 828 q -87 849 -65 828 m 319 828 q 304 828 319 828 q 267 849 289 828 q 246 894 246 871 q 251 930 246 917 q 267 953 257 943 q 319 975 289 975 q 371 953 350 975 q 392 901 392 932 q 371 849 392 871 q 319 828 350 828 m 78 0 l 78 738 l 206 738 l 206 0 l 78 0 z "},"ð":{"ha":747,"x_min":51,"x_max":697,"o":"m 303 0 q 108 87 164 0 q 51 363 51 174 q 109 644 51 551 q 303 738 167 738 l 425 738 q 524 719 503 738 q 428 889 492 826 l 238 810 l 203 892 l 340 950 q 189 979 279 979 q 161 978 175 979 l 161 1088 q 469 1006 358 1088 l 624 1069 l 660 986 l 543 939 q 696 367 696 753 q 630 85 696 171 q 443 0 564 0 l 303 0 m 201 544 q 197 531 201 544 q 185 473 192 517 q 179 365 179 429 q 186 255 179 300 q 203 185 193 210 q 232 147 214 160 q 267 130 250 133 q 311 126 283 126 l 435 126 q 540 184 513 126 q 568 378 568 242 q 542 564 568 514 q 435 614 515 614 l 311 614 q 234 593 257 614 q 201 544 211 572 z "},"ñ":{"ha":757,"x_min":78,"x_max":694,"o":"m 465 938 q 590 989 503 938 l 621 924 q 599 905 618 921 q 574 883 581 889 q 549 865 567 878 q 519 849 532 853 q 379 860 456 819 q 313 882 336 882 q 233 861 269 882 q 181 833 196 840 l 150 896 q 272 979 229 965 q 386 968 326 997 q 455 938 446 939 q 465 938 464 938 m 78 0 l 78 738 l 174 738 l 206 653 q 235 672 211 657 q 279 697 260 686 q 332 722 299 708 q 468 750 393 750 q 635 680 576 750 q 693 508 693 610 l 693 0 l 565 0 l 565 508 q 535 602 565 571 q 443 633 504 633 q 335 617 382 633 q 206 558 288 600 l 206 0 l 78 0 z "},"ò":{"ha":785,"x_min":64,"x_max":722,"o":"m 172 1014 l 314 1014 l 457 828 l 353 828 l 172 1014 m 65 358 q 97 593 65 510 q 199 710 129 676 q 393 744 268 744 q 651 661 581 744 q 721 365 721 578 q 651 72 721 151 q 394 -7 581 -7 q 137 75 208 -7 q 65 358 65 157 m 213 539 q 207 524 213 539 q 197 465 201 508 q 193 361 193 421 q 198 260 193 301 q 215 191 203 218 q 242 148 228 164 q 283 124 257 132 q 382 110 324 110 q 468 115 440 111 q 523 131 496 118 q 564 172 550 144 q 593 358 593 232 q 578 527 593 486 q 549 585 563 568 q 511 613 536 603 q 413 628 472 628 q 328 625 353 628 q 277 613 303 622 q 238 587 251 604 q 213 539 225 569 z "},"ó":{"ha":785,"x_min":64,"x_max":722,"o":"m 340 828 l 483 1014 l 625 1014 l 444 828 l 340 828 m 65 358 q 97 593 65 510 q 199 710 129 676 q 393 744 268 744 q 651 661 581 744 q 721 365 721 578 q 651 72 721 151 q 394 -7 581 -7 q 137 75 208 -7 q 65 358 65 157 m 213 539 q 207 524 213 539 q 197 465 201 508 q 193 361 193 421 q 198 260 193 301 q 215 191 203 218 q 242 148 228 164 q 283 124 257 132 q 382 110 324 110 q 468 115 440 111 q 523 131 496 118 q 564 172 550 144 q 593 358 593 232 q 578 527 593 486 q 549 585 563 568 q 511 613 536 603 q 413 628 472 628 q 328 625 353 628 q 277 613 303 622 q 238 587 251 604 q 213 539 225 569 z "},"ô":{"ha":785,"x_min":64,"x_max":722,"o":"m 193 828 l 351 1011 l 463 1011 l 604 828 l 497 828 l 404 922 l 301 828 l 193 828 m 65 358 q 97 593 65 510 q 199 710 129 676 q 393 744 268 744 q 651 661 581 744 q 721 365 721 578 q 651 72 721 151 q 394 -7 581 -7 q 137 75 208 -7 q 65 358 65 157 m 213 539 q 207 524 213 539 q 197 465 201 508 q 193 361 193 421 q 198 260 193 301 q 215 191 203 218 q 242 148 228 164 q 283 124 257 132 q 382 110 324 110 q 468 115 440 111 q 523 131 496 118 q 564 172 550 144 q 593 358 593 232 q 578 527 593 486 q 549 585 563 568 q 511 613 536 603 q 413 628 472 628 q 328 625 353 628 q 277 613 303 622 q 238 587 251 604 q 213 539 225 569 z "},"õ":{"ha":785,"x_min":64,"x_max":722,"o":"m 483 932 q 608 983 521 932 l 639 918 q 617 899 636 915 q 592 878 599 883 q 567 860 585 872 q 538 843 550 847 q 397 854 474 814 q 331 876 354 876 q 251 856 288 876 q 199 828 214 835 l 168 890 q 222 936 201 919 q 322 980 281 981 q 390 967 363 979 q 442 944 418 956 q 483 932 465 932 m 65 358 q 97 593 65 510 q 199 710 129 676 q 393 744 268 744 q 651 661 581 744 q 721 365 721 578 q 651 72 721 151 q 394 -7 581 -7 q 137 75 208 -7 q 65 358 65 157 m 213 539 q 207 524 213 539 q 197 465 201 508 q 193 361 193 421 q 198 260 193 301 q 215 191 203 218 q 242 148 228 164 q 283 124 257 132 q 382 110 324 110 q 468 115 440 111 q 523 131 496 118 q 564 172 550 144 q 593 358 593 232 q 578 527 593 486 q 549 585 563 568 q 511 613 536 603 q 413 628 472 628 q 328 625 353 628 q 277 613 303 622 q 238 587 251 604 q 213 539 225 569 z "},"ö":{"ha":785,"x_min":64,"x_max":722,"o":"m 166 849 q 155 860 166 849 q 144 901 144 871 q 166 953 144 932 q 218 975 188 975 q 269 953 249 975 q 290 901 290 932 q 269 849 290 871 q 218 828 249 828 q 166 849 188 828 m 520 849 q 509 860 520 849 q 499 901 499 871 q 520 953 499 932 q 572 975 542 975 q 624 953 603 975 q 644 901 644 932 q 624 849 644 871 q 572 828 603 828 q 520 849 542 828 m 65 358 q 97 593 65 510 q 199 710 129 676 q 393 744 268 744 q 651 661 581 744 q 721 365 721 578 q 651 72 721 151 q 394 -7 581 -7 q 137 75 208 -7 q 65 358 65 157 m 213 539 q 207 524 213 539 q 197 465 201 508 q 193 361 193 421 q 198 260 193 301 q 215 191 203 218 q 242 148 228 164 q 283 124 257 132 q 382 110 324 110 q 468 115 440 111 q 523 131 496 118 q 564 172 550 144 q 593 358 593 232 q 578 527 593 486 q 549 585 563 568 q 511 613 536 603 q 413 628 472 628 q 328 625 353 628 q 277 613 303 622 q 238 587 251 604 q 213 539 225 569 z "},"÷":{"ha":710,"x_min":64,"x_max":646,"o":"m 65 431 l 65 550 l 644 550 l 644 431 l 65 431 m 285 233 l 285 314 q 318 347 285 347 l 396 347 q 429 314 429 347 l 429 233 q 396 201 429 201 l 318 201 q 294 210 303 201 q 285 233 285 219 m 285 658 l 285 738 q 318 772 285 772 l 396 772 q 429 738 429 772 l 429 658 q 396 626 429 626 l 318 626 q 286 647 293 626 q 285 658 285 653 z "},"ø":{"ha":793,"x_min":65,"x_max":726,"o":"m 131 88 q 69 338 69 167 q 101 593 69 510 q 203 710 133 676 q 400 744 272 744 q 597 708 528 744 l 619 738 l 715 738 l 657 660 q 725 365 725 578 q 655 72 725 151 q 397 -7 585 -7 q 185 38 258 -7 l 156 0 l 67 0 l 131 88 m 217 539 q 211 524 217 539 q 201 465 206 508 q 197 338 197 421 q 221 203 197 254 l 521 608 q 421 628 485 628 q 332 625 357 628 q 281 613 307 622 q 242 587 256 604 q 217 539 229 569 m 391 111 q 438 111 391 111 q 519 128 485 111 q 568 172 554 144 q 597 364 597 232 q 569 549 597 496 l 261 138 q 391 111 297 111 z "},"ù":{"ha":757,"x_min":64,"x_max":681,"o":"m 151 1014 l 294 1014 l 436 828 l 332 828 l 151 1014 m 65 231 l 65 738 l 193 738 l 193 229 q 224 136 193 167 q 315 106 254 106 q 424 122 376 106 q 553 181 471 138 l 553 738 l 681 738 l 681 0 l 585 0 l 553 83 q 519 64 544 79 q 484 44 494 49 q 451 27 474 39 q 415 10 429 15 q 378 -1 400 6 q 290 -12 340 -12 q 123 58 181 -12 q 65 231 65 128 z "},"ú":{"ha":757,"x_min":64,"x_max":681,"o":"m 321 828 l 463 1014 l 606 1014 l 425 828 l 321 828 m 65 231 l 65 738 l 193 738 l 193 229 q 224 136 193 167 q 315 106 254 106 q 424 122 376 106 q 553 181 471 138 l 553 738 l 681 738 l 681 0 l 585 0 l 553 83 q 519 64 544 79 q 484 44 494 49 q 451 27 474 39 q 415 10 429 15 q 378 -1 400 6 q 290 -12 340 -12 q 123 58 181 -12 q 65 231 65 128 z "},"û":{"ha":757,"x_min":64,"x_max":681,"o":"m 167 828 l 325 1011 l 436 1011 l 578 828 l 471 828 l 378 922 l 275 828 l 167 828 m 65 231 l 65 738 l 193 738 l 193 229 q 224 136 193 167 q 315 106 254 106 q 424 122 376 106 q 553 181 471 138 l 553 738 l 681 738 l 681 0 l 585 0 l 553 83 q 519 64 544 79 q 484 44 494 49 q 451 27 474 39 q 415 10 429 15 q 378 -1 400 6 q 290 -12 340 -12 q 123 58 181 -12 q 65 231 65 128 z "},"ü":{"ha":757,"x_min":64,"x_max":681,"o":"m 144 849 q 133 860 144 849 q 122 901 122 871 q 144 953 122 932 q 196 975 165 975 q 247 953 226 975 q 268 901 268 932 q 247 849 268 871 q 196 828 226 828 q 144 849 165 828 m 498 849 q 487 860 498 849 q 476 901 476 871 q 498 953 476 932 q 550 975 519 975 q 601 953 581 975 q 622 901 622 932 q 601 849 622 871 q 550 828 581 828 q 498 849 519 828 m 65 231 l 65 738 l 193 738 l 193 229 q 224 136 193 167 q 315 106 254 106 q 424 122 376 106 q 553 181 471 138 l 553 738 l 681 738 l 681 0 l 585 0 l 553 83 q 519 64 544 79 q 484 44 494 49 q 451 27 474 39 q 415 10 429 15 q 378 -1 400 6 q 290 -12 340 -12 q 123 58 181 -12 q 65 231 65 128 z "},"ý":{"ha":778,"x_min":26,"x_max":750,"o":"m 336 828 l 479 1014 l 621 1014 l 440 828 l 336 828 m 28 738 l 165 738 l 329 178 q 414 122 350 110 q 417 124 417 124 l 611 738 l 750 738 l 443 -233 l 340 -375 l 256 -375 l 379 0 q 199 163 246 0 l 28 738 z "},"þ":{"ha":769,"x_min":90,"x_max":719,"o":"m 90 -375 l 90 1086 l 218 1086 l 218 656 q 354 723 275 699 q 482 747 433 747 q 572 727 531 747 q 641 672 614 707 q 686 589 668 638 q 718 369 718 499 q 653 64 718 151 q 476 -15 594 -15 q 350 -1 424 -15 q 218 39 276 14 l 218 -375 l 90 -375 m 531 122 q 544 133 531 122 q 574 203 557 143 q 590 380 590 264 q 556 562 590 496 q 463 628 522 628 q 218 564 354 622 l 218 133 q 429 103 304 108 q 463 101 456 101 q 531 122 504 101 z "},"ÿ":{"ha":778,"x_min":26,"x_max":750,"o":"m 160 849 q 149 860 160 849 q 138 901 138 871 q 160 953 138 932 q 213 975 182 975 q 264 953 243 975 q 285 901 285 932 q 263 849 285 871 q 212 828 242 828 q 160 849 182 828 m 514 849 q 503 860 514 849 q 492 901 492 871 q 514 953 492 932 q 567 975 536 975 q 618 953 597 975 q 639 901 639 932 q 617 849 639 871 q 566 828 596 828 q 514 849 536 828 m 28 738 l 165 738 l 329 178 q 414 122 350 110 q 417 124 417 124 l 611 738 l 750 738 l 443 -233 l 340 -375 l 256 -375 l 379 0 q 199 163 246 0 l 28 738 z "},"Ā":{"ha":939,"x_min":58,"x_max":908,"o":"m 289 1107 l 289 1200 l 694 1200 l 694 1107 l 289 1107 m 58 0 l 424 1017 l 558 1017 l 908 0 l 763 0 l 679 268 l 294 268 l 207 0 l 58 0 m 335 389 l 640 389 l 490 833 l 335 389 z "},"ā":{"ha":721,"x_min":51,"x_max":657,"o":"m 175 835 l 175 928 l 581 928 l 581 835 l 175 835 m 75 708 q 433 751 217 751 q 625 660 569 751 q 656 531 656 608 l 656 0 l 558 0 l 528 86 q 482 60 524 82 q 369 15 440 39 q 244 -8 299 -8 q 105 43 158 -8 q 51 179 51 94 l 51 260 q 102 397 51 344 q 244 449 153 449 q 457 449 386 449 q 528 449 528 449 q 529 509 529 489 q 528 542 529 529 q 523 572 528 554 q 509 603 518 590 q 486 622 500 615 q 418 636 461 638 q 75 621 304 636 l 75 708 m 179 192 q 258 108 179 108 q 372 126 304 108 q 483 160 439 143 l 528 176 l 528 357 l 256 338 q 179 251 179 331 l 179 192 z "},"Ă":{"ha":939,"x_min":58,"x_max":908,"o":"m 332 1265 l 401 1265 q 428 1202 401 1228 q 492 1176 454 1176 q 556 1201 531 1176 q 582 1265 582 1225 l 651 1265 q 603 1149 651 1192 q 490 1107 554 1107 q 379 1151 426 1107 q 332 1265 332 1194 m 58 0 l 424 1017 l 558 1017 l 908 0 l 763 0 l 679 268 l 294 268 l 207 0 l 58 0 m 335 389 l 640 389 l 490 833 l 335 389 z "},"ă":{"ha":721,"x_min":51,"x_max":657,"o":"m 218 993 l 288 993 q 315 930 288 956 q 379 904 342 904 q 442 928 417 904 q 468 993 468 953 l 538 993 q 490 877 538 919 q 378 835 442 835 q 266 878 314 835 q 218 993 218 922 m 75 708 q 433 751 217 751 q 625 660 569 751 q 656 531 656 608 l 656 0 l 558 0 l 528 86 q 482 60 524 82 q 369 15 440 39 q 244 -8 299 -8 q 105 43 158 -8 q 51 179 51 94 l 51 260 q 102 397 51 344 q 244 449 153 449 q 457 449 386 449 q 528 449 528 449 q 529 509 529 489 q 528 542 529 529 q 523 572 528 554 q 509 603 518 590 q 486 622 500 615 q 418 636 461 638 q 75 621 304 636 l 75 708 m 179 192 q 258 108 179 108 q 372 126 304 108 q 483 160 439 143 l 528 176 l 528 357 l 256 338 q 179 251 179 331 l 179 192 z "},"Ą":{"ha":939,"x_min":58,"x_max":908,"o":"m 792 -110 q 876 -164 792 -162 l 876 -253 q 839 -256 861 -256 q 783 -243 817 -256 q 726 -201 749 -231 q 699 -130 699 -164 q 725 -61 699 -96 q 810 0 751 -26 l 869 0 q 792 -110 792 -64 m 58 0 l 424 1017 l 558 1017 l 908 0 l 763 0 l 679 268 l 294 268 l 207 0 l 58 0 m 335 389 l 640 389 l 490 833 l 335 389 z "},"ą":{"ha":721,"x_min":51,"x_max":657,"o":"m 563 -110 q 646 -164 563 -162 l 646 -253 q 608 -256 631 -256 q 552 -244 586 -256 q 496 -201 518 -232 q 468 -130 468 -164 q 494 -61 468 -96 q 579 0 521 -26 l 639 0 q 563 -110 563 -64 m 75 708 q 433 751 217 751 q 625 660 569 751 q 656 531 656 608 l 656 0 l 558 0 l 528 86 q 482 60 524 82 q 369 15 440 39 q 244 -8 299 -8 q 105 43 158 -8 q 51 179 51 94 l 51 260 q 102 397 51 344 q 244 449 153 449 q 457 449 386 449 q 528 449 528 449 q 529 509 529 489 q 528 542 529 529 q 523 572 528 554 q 509 603 518 590 q 486 622 500 615 q 418 636 461 638 q 75 621 304 636 l 75 708 m 179 192 q 258 108 179 108 q 372 126 304 108 q 483 160 439 143 l 528 176 l 528 357 l 256 338 q 179 251 179 331 l 179 192 z "},"Ć":{"ha":800,"x_min":71,"x_max":756,"o":"m 406 1111 l 549 1297 l 690 1297 l 510 1111 l 406 1111 m 71 503 q 80 690 71 614 q 112 833 89 767 q 172 940 135 899 q 413 1028 254 1028 q 756 990 582 1028 l 756 889 q 748 890 756 889 q 728 891 740 890 q 698 893 715 892 q 660 895 681 894 q 616 897 639 896 q 568 900 593 899 q 518 903 543 901 q 413 904 467 904 q 319 889 360 904 q 251 830 279 874 q 210 709 222 786 q 199 545 199 632 q 202 415 199 458 q 213 331 206 372 q 232 258 221 290 q 261 198 243 225 q 303 153 279 171 q 421 115 351 115 q 706 122 554 115 l 756 125 l 756 25 q 588 1 686 10 q 453 -8 490 -8 q 413 -8 415 -8 q 144 138 224 -8 q 71 503 71 274 z "},"ć":{"ha":692,"x_min":64,"x_max":642,"o":"m 324 831 l 465 1017 l 608 1017 l 428 831 l 324 831 m 78 208 q 72 242 78 208 q 65 369 65 276 q 77 530 65 463 q 109 638 89 597 q 161 704 129 679 q 292 744 217 744 q 631 706 465 744 l 631 619 q 377 628 454 628 q 283 624 300 628 q 246 607 265 621 q 217 565 226 593 q 193 381 193 500 q 207 206 193 261 q 249 131 221 151 q 333 111 278 111 q 592 121 444 111 l 640 125 l 640 35 q 491 2 565 10 q 340 -6 417 -6 q 230 1 264 -7 q 163 34 196 10 q 110 99 131 58 q 78 208 90 140 z "},"Ĉ":{"ha":800,"x_min":71,"x_max":756,"o":"m 251 1111 l 411 1294 l 522 1294 l 664 1111 l 557 1111 l 463 1206 l 360 1111 l 251 1111 m 71 503 q 80 690 71 614 q 112 833 89 767 q 172 940 135 899 q 413 1028 254 1028 q 756 990 582 1028 l 756 889 q 748 890 756 889 q 728 891 740 890 q 698 893 715 892 q 660 895 681 894 q 616 897 639 896 q 568 900 593 899 q 518 903 543 901 q 413 904 467 904 q 319 889 360 904 q 251 830 279 874 q 210 709 222 786 q 199 545 199 632 q 202 415 199 458 q 213 331 206 372 q 232 258 221 290 q 261 198 243 225 q 303 153 279 171 q 421 115 351 115 q 706 122 554 115 l 756 125 l 756 25 q 588 1 686 10 q 453 -8 490 -8 q 413 -8 415 -8 q 144 138 224 -8 q 71 503 71 274 z "},"ĉ":{"ha":692,"x_min":64,"x_max":642,"o":"m 182 831 l 342 1013 l 453 1013 l 594 831 l 488 831 l 393 925 l 290 831 l 182 831 m 78 208 q 72 242 78 208 q 65 369 65 276 q 77 530 65 463 q 109 638 89 597 q 161 704 129 679 q 292 744 217 744 q 631 706 465 744 l 631 619 q 377 628 454 628 q 283 624 300 628 q 246 607 265 621 q 217 565 226 593 q 193 381 193 500 q 207 206 193 261 q 249 131 221 151 q 333 111 278 111 q 592 121 444 111 l 640 125 l 640 35 q 491 2 565 10 q 340 -6 417 -6 q 230 1 264 -7 q 163 34 196 10 q 110 99 131 58 q 78 208 90 140 z "},"Ċ":{"ha":800,"x_min":71,"x_max":756,"o":"m 396 1146 l 396 1229 q 429 1264 396 1264 l 507 1264 q 531 1254 522 1264 q 539 1229 539 1244 l 539 1146 q 507 1114 539 1114 l 429 1114 q 405 1122 414 1114 q 396 1146 396 1131 m 71 503 q 80 690 71 614 q 112 833 89 767 q 172 940 135 899 q 413 1028 254 1028 q 756 990 582 1028 l 756 889 q 748 890 756 889 q 728 891 740 890 q 698 893 715 892 q 660 895 681 894 q 616 897 639 896 q 568 900 593 899 q 518 903 543 901 q 413 904 467 904 q 319 889 360 904 q 251 830 279 874 q 210 709 222 786 q 199 545 199 632 q 202 415 199 458 q 213 331 206 372 q 232 258 221 290 q 261 198 243 225 q 303 153 279 171 q 421 115 351 115 q 706 122 554 115 l 756 125 l 756 25 q 588 1 686 10 q 453 -8 490 -8 q 413 -8 415 -8 q 144 138 224 -8 q 71 503 71 274 z "},"ċ":{"ha":692,"x_min":64,"x_max":642,"o":"m 332 864 l 332 947 q 365 982 332 982 l 443 982 q 467 972 458 982 q 475 947 475 963 l 475 864 q 443 832 475 832 l 365 832 q 342 841 351 832 q 332 864 332 850 m 78 208 q 72 242 78 208 q 65 369 65 276 q 77 530 65 463 q 109 638 89 597 q 161 704 129 679 q 292 744 217 744 q 631 706 465 744 l 631 619 q 377 628 454 628 q 283 624 300 628 q 246 607 265 621 q 217 565 226 593 q 193 381 193 500 q 207 206 193 261 q 249 131 221 151 q 333 111 278 111 q 592 121 444 111 l 640 125 l 640 35 q 491 2 565 10 q 340 -6 417 -6 q 230 1 264 -7 q 163 34 196 10 q 110 99 131 58 q 78 208 90 140 z "},"Č":{"ha":800,"x_min":71,"x_max":756,"o":"m 260 1294 l 368 1294 l 472 1200 l 564 1294 l 671 1294 l 528 1111 l 417 1111 l 260 1294 m 71 503 q 80 690 71 614 q 112 833 89 767 q 172 940 135 899 q 413 1028 254 1028 q 756 990 582 1028 l 756 889 q 748 890 756 889 q 728 891 740 890 q 698 893 715 892 q 660 895 681 894 q 616 897 639 896 q 568 900 593 899 q 518 903 543 901 q 413 904 467 904 q 319 889 360 904 q 251 830 279 874 q 210 709 222 786 q 199 545 199 632 q 202 415 199 458 q 213 331 206 372 q 232 258 221 290 q 261 198 243 225 q 303 153 279 171 q 421 115 351 115 q 706 122 554 115 l 756 125 l 756 25 q 588 1 686 10 q 453 -8 490 -8 q 413 -8 415 -8 q 144 138 224 -8 q 71 503 71 274 z "},"č":{"ha":692,"x_min":64,"x_max":642,"o":"m 168 1013 l 275 1013 l 381 918 l 472 1013 l 579 1013 l 436 831 l 325 831 l 168 1013 m 78 208 q 72 242 78 208 q 65 369 65 276 q 77 530 65 463 q 109 638 89 597 q 161 704 129 679 q 292 744 217 744 q 631 706 465 744 l 631 619 q 377 628 454 628 q 283 624 300 628 q 246 607 265 621 q 217 565 226 593 q 193 381 193 500 q 207 206 193 261 q 249 131 221 151 q 333 111 278 111 q 592 121 444 111 l 640 125 l 640 35 q 491 2 565 10 q 340 -6 417 -6 q 230 1 264 -7 q 163 34 196 10 q 110 99 131 58 q 78 208 90 140 z "},"Ď":{"ha":914,"x_min":103,"x_max":856,"o":"m 236 1283 l 344 1283 l 449 1189 l 540 1283 l 647 1283 l 504 1101 l 393 1101 l 236 1283 m 104 0 l 104 1017 l 496 1017 q 651 983 585 1017 q 756 900 718 950 q 817 779 793 850 q 856 504 856 661 q 736 106 856 246 q 634 28 696 57 q 496 0 572 0 l 104 0 m 232 125 l 492 125 q 628 178 574 125 q 728 494 728 274 q 668 805 728 715 q 492 894 608 894 l 232 894 l 232 125 z "},"ď":{"ha":789,"x_min":64,"x_max":872,"o":"m 65 365 q 132 672 65 585 q 307 749 190 749 q 453 730 379 749 q 567 694 526 711 l 567 1090 l 693 1090 l 693 0 l 596 0 l 567 81 q 450 22 531 53 q 307 -8 369 -8 q 65 365 65 -8 m 193 367 q 321 111 193 111 q 567 171 435 111 l 567 599 q 321 632 446 632 q 251 613 278 632 q 193 367 193 567 m 872 1083 l 872 990 l 857 804 l 775 804 l 761 990 l 760 1083 l 872 1083 z "},"Đ":{"ha":914,"x_min":13,"x_max":856,"o":"m 14 478 l 14 558 l 104 558 l 104 1015 q 497 1017 104 1017 q 767 883 678 1017 q 856 504 856 753 q 738 106 856 246 q 635 28 697 57 q 497 0 574 0 l 104 0 l 104 478 l 14 478 m 232 125 l 493 125 q 626 178 574 125 q 724 506 724 274 q 493 889 724 889 l 232 888 l 232 558 l 414 558 l 414 478 l 232 478 l 232 125 z "},"đ":{"ha":772,"x_min":63,"x_max":790,"o":"m 64 365 q 131 672 64 585 q 306 749 189 749 q 451 730 378 749 q 565 694 525 711 l 565 851 l 401 851 l 401 931 l 565 931 l 565 1090 l 692 1090 l 692 931 l 789 931 l 789 851 l 692 851 l 692 0 l 594 0 l 565 81 q 449 22 529 53 q 306 -8 368 -8 q 64 365 64 -8 m 192 367 q 319 111 192 111 q 565 171 433 111 l 565 599 q 319 632 444 632 q 250 613 276 632 q 192 367 192 567 z "},"Ē":{"ha":788,"x_min":103,"x_max":732,"o":"m 238 1104 l 238 1199 l 643 1199 l 643 1104 l 238 1104 m 103 179 l 103 828 q 156 974 103 931 q 281 1017 208 1017 q 497 1007 286 1017 q 732 994 707 997 l 732 892 l 303 892 q 239 867 251 892 q 231 814 231 847 l 231 569 l 674 556 l 674 451 l 231 438 l 231 193 q 260 129 232 140 q 317 121 282 121 l 732 121 l 732 19 l 304 -4 q 282 -4 293 -4 q 103 179 103 -4 z "},"ē":{"ha":729,"x_min":64,"x_max":678,"o":"m 178 826 l 178 921 l 583 921 l 583 826 l 178 826 m 97 613 q 139 680 115 654 q 201 719 163 706 q 388 743 268 743 q 579 717 529 743 q 653 639 633 688 q 678 481 678 578 q 483 306 678 306 l 193 306 q 224 149 193 188 q 338 110 254 110 q 664 125 567 110 l 664 32 q 308 -7 536 -7 q 117 75 168 -7 q 65 347 65 157 q 97 613 65 538 m 469 418 q 550 482 550 418 q 544 561 550 535 q 520 603 539 588 q 474 624 501 619 q 404 628 446 628 q 347 627 363 628 q 309 625 331 626 q 276 619 288 624 q 250 608 265 615 q 228 590 235 601 q 213 564 221 579 q 201 528 204 549 q 193 418 193 476 l 469 418 z "},"Ė":{"ha":788,"x_min":103,"x_max":732,"o":"m 375 1135 l 375 1218 q 408 1253 375 1253 l 486 1253 q 510 1243 501 1253 q 518 1218 518 1233 l 518 1135 q 486 1103 518 1103 l 408 1103 q 385 1112 394 1103 q 375 1135 375 1121 m 103 179 l 103 828 q 156 974 103 931 q 281 1017 208 1017 q 497 1007 286 1017 q 732 994 707 997 l 732 892 l 303 892 q 239 867 251 892 q 231 814 231 847 l 231 569 l 674 556 l 674 451 l 231 438 l 231 193 q 260 129 232 140 q 317 121 282 121 l 732 121 l 732 19 l 304 -4 q 282 -4 293 -4 q 103 179 103 -4 z "},"ė":{"ha":729,"x_min":64,"x_max":678,"o":"m 307 860 l 307 943 q 340 978 307 978 l 418 978 q 442 968 433 978 q 450 943 450 958 l 450 860 q 418 828 450 828 l 340 828 q 316 837 325 828 q 307 860 307 846 m 97 613 q 139 680 115 654 q 201 719 163 706 q 388 743 268 743 q 579 717 529 743 q 653 639 633 688 q 678 481 678 578 q 483 306 678 306 l 193 306 q 224 149 193 188 q 338 110 254 110 q 664 125 567 110 l 664 32 q 308 -7 536 -7 q 117 75 168 -7 q 65 347 65 157 q 97 613 65 538 m 469 418 q 550 482 550 418 q 544 561 550 535 q 520 603 539 588 q 474 624 501 619 q 404 628 446 628 q 347 627 363 628 q 309 625 331 626 q 276 619 288 624 q 250 608 265 615 q 228 590 235 601 q 213 564 221 579 q 201 528 204 549 q 193 418 193 476 l 469 418 z "},"Ę":{"ha":788,"x_min":103,"x_max":739,"o":"m 654 -90 q 738 -144 654 -143 l 738 -235 q 700 -236 722 -236 q 644 -224 678 -236 q 588 -182 610 -212 q 560 -110 560 -144 q 586 -42 560 -76 q 671 19 613 -7 l 732 19 q 654 -90 654 -46 m 103 179 l 103 828 q 156 974 103 931 q 281 1017 208 1017 q 497 1007 286 1017 q 732 994 707 997 l 732 892 l 303 892 q 239 867 251 892 q 231 814 231 847 l 231 569 l 674 556 l 674 451 l 231 438 l 231 193 q 260 129 232 140 q 317 121 282 121 l 732 121 l 732 19 l 304 -4 q 282 -4 293 -4 q 103 179 103 -4 z "},"ę":{"ha":729,"x_min":64,"x_max":678,"o":"m 586 -78 q 669 -132 586 -131 l 669 -222 q 632 -224 654 -224 q 576 -212 610 -224 q 519 -169 542 -200 q 492 -98 492 -132 q 518 -29 492 -64 q 603 32 544 6 l 664 32 q 586 -78 586 -32 m 97 613 q 139 680 115 654 q 201 719 163 706 q 388 743 268 743 q 579 717 529 743 q 653 639 633 688 q 678 481 678 578 q 483 306 678 306 l 193 306 q 224 149 193 188 q 338 110 254 110 q 664 125 567 110 l 664 32 q 308 -7 536 -7 q 117 75 168 -7 q 65 347 65 157 q 97 613 65 538 m 469 418 q 550 482 550 418 q 544 561 550 535 q 520 603 539 588 q 474 624 501 619 q 404 628 446 628 q 347 627 363 628 q 309 625 331 626 q 276 619 288 624 q 250 608 265 615 q 228 590 235 601 q 213 564 221 579 q 201 528 204 549 q 193 418 193 476 l 469 418 z "},"Ě":{"ha":788,"x_min":103,"x_max":732,"o":"m 233 1283 l 342 1283 l 446 1189 l 538 1283 l 644 1283 l 501 1101 l 390 1101 l 233 1283 m 103 179 l 103 828 q 156 974 103 931 q 281 1017 208 1017 q 497 1007 286 1017 q 732 994 707 997 l 732 892 l 303 892 q 239 867 251 892 q 231 814 231 847 l 231 569 l 674 556 l 674 451 l 231 438 l 231 193 q 260 129 232 140 q 317 121 282 121 l 732 121 l 732 19 l 304 -4 q 282 -4 293 -4 q 103 179 103 -4 z "},"ě":{"ha":729,"x_min":64,"x_max":678,"o":"m 178 1004 l 285 1004 l 390 910 l 482 1004 l 589 1004 l 446 822 l 335 822 l 178 1004 m 97 613 q 139 680 115 654 q 201 719 163 706 q 388 743 268 743 q 579 717 529 743 q 653 639 633 688 q 678 481 678 578 q 483 306 678 306 l 193 306 q 224 149 193 188 q 338 110 254 110 q 664 125 567 110 l 664 32 q 308 -7 536 -7 q 117 75 168 -7 q 65 347 65 157 q 97 613 65 538 m 469 418 q 550 482 550 418 q 544 561 550 535 q 520 603 539 588 q 474 624 501 619 q 404 628 446 628 q 347 627 363 628 q 309 625 331 626 q 276 619 288 624 q 250 608 265 615 q 228 590 235 601 q 213 564 221 579 q 201 528 204 549 q 193 418 193 476 l 469 418 z "},"Ĝ":{"ha":853,"x_min":71,"x_max":782,"o":"m 260 1111 l 419 1294 l 531 1294 l 672 1111 l 565 1111 l 471 1206 l 368 1111 l 260 1111 m 657 68 q 393 -7 540 -7 q 161 89 239 -7 q 78 346 94 172 q 71 511 71 417 q 78 676 71 606 q 107 816 86 747 q 164 929 128 885 q 399 1028 242 1028 q 575 1017 471 1028 q 761 989 679 1006 l 761 888 q 736 890 760 888 q 675 894 713 892 q 594 900 638 897 q 428 906 490 906 q 334 896 367 906 q 278 864 301 886 q 239 811 254 842 q 215 735 224 781 q 199 511 199 651 q 244 203 199 288 q 415 117 292 117 q 519 132 460 117 q 617 164 579 147 l 654 181 l 654 432 l 446 432 l 446 517 q 688 550 554 550 q 782 547 732 550 l 782 0 l 688 0 l 657 68 z "},"ĝ":{"ha":771,"x_min":60,"x_max":747,"o":"m 178 829 l 336 1011 l 447 1011 l 589 829 l 482 829 l 388 924 l 286 829 l 178 829 m 63 156 q 83 231 63 196 q 144 275 104 265 q 83 358 103 301 q 64 478 64 414 q 128 674 64 608 q 308 740 192 740 l 746 740 l 746 653 l 642 628 q 651 610 643 625 q 663 587 660 594 q 671 561 665 579 q 681 485 681 529 q 676 409 681 440 q 656 340 671 378 q 615 274 640 303 q 547 226 590 246 q 446 207 503 207 l 242 207 q 185 168 185 207 q 242 124 185 124 l 518 124 q 658 71 608 124 q 708 -75 708 18 l 708 -161 q 585 -361 708 -318 q 493 -375 546 -375 l 285 -375 q 90 -281 146 -375 q 61 -161 61 -232 l 61 -50 l 118 35 q 63 156 63 72 m 250 6 q 189 15 215 6 l 189 -154 q 226 -242 189 -222 q 300 -258 257 -258 l 482 -258 q 559 -231 538 -258 q 581 -156 581 -204 l 581 -82 q 563 -15 581 -35 q 492 6 544 6 l 250 6 m 310 325 l 429 325 q 549 426 526 325 q 553 460 553 447 q 552 494 553 474 q 546 539 551 514 q 526 585 540 564 q 428 622 500 622 l 317 622 q 192 474 192 622 q 310 325 192 325 z "},"Ğ":{"ha":853,"x_min":71,"x_max":782,"o":"m 303 1269 l 372 1269 q 399 1206 372 1232 q 465 1181 426 1181 q 528 1205 503 1181 q 553 1269 553 1229 l 622 1269 q 574 1153 622 1196 q 463 1111 526 1111 q 351 1155 399 1111 q 303 1269 303 1199 m 657 68 q 393 -7 540 -7 q 161 89 239 -7 q 78 346 94 172 q 71 511 71 417 q 78 676 71 606 q 107 816 86 747 q 164 929 128 885 q 399 1028 242 1028 q 575 1017 471 1028 q 761 989 679 1006 l 761 888 q 736 890 760 888 q 675 894 713 892 q 594 900 638 897 q 428 906 490 906 q 334 896 367 906 q 278 864 301 886 q 239 811 254 842 q 215 735 224 781 q 199 511 199 651 q 244 203 199 288 q 415 117 292 117 q 519 132 460 117 q 617 164 579 147 l 654 181 l 654 432 l 446 432 l 446 517 q 688 550 554 550 q 782 547 732 550 l 782 0 l 688 0 l 657 68 z "},"ğ":{"ha":771,"x_min":60,"x_max":747,"o":"m 222 988 l 292 988 q 319 924 292 949 q 383 899 346 899 q 447 922 421 899 q 472 988 472 946 l 542 988 q 518 900 542 938 q 381 829 471 829 q 270 873 318 829 q 222 988 222 917 m 63 156 q 83 231 63 196 q 144 275 104 265 q 83 358 103 301 q 64 478 64 414 q 128 674 64 608 q 308 740 192 740 l 746 740 l 746 653 l 642 628 q 651 610 643 625 q 663 587 660 594 q 671 561 665 579 q 681 485 681 529 q 676 409 681 440 q 656 340 671 378 q 615 274 640 303 q 547 226 590 246 q 446 207 503 207 l 242 207 q 185 168 185 207 q 242 124 185 124 l 518 124 q 658 71 608 124 q 708 -75 708 18 l 708 -161 q 585 -361 708 -318 q 493 -375 546 -375 l 285 -375 q 90 -281 146 -375 q 61 -161 61 -232 l 61 -50 l 118 35 q 63 156 63 72 m 250 6 q 189 15 215 6 l 189 -154 q 226 -242 189 -222 q 300 -258 257 -258 l 482 -258 q 559 -231 538 -258 q 581 -156 581 -204 l 581 -82 q 563 -15 581 -35 q 492 6 544 6 l 250 6 m 310 325 l 429 325 q 549 426 526 325 q 553 460 553 447 q 552 494 553 474 q 546 539 551 514 q 526 585 540 564 q 428 622 500 622 l 317 622 q 192 474 192 622 q 310 325 192 325 z "},"Ġ":{"ha":853,"x_min":71,"x_max":782,"o":"m 383 1143 l 383 1226 q 417 1261 383 1261 l 494 1261 q 517 1251 508 1261 q 526 1226 526 1242 l 526 1143 q 494 1111 526 1111 l 417 1111 q 392 1120 401 1111 q 383 1143 383 1129 m 657 68 q 393 -7 540 -7 q 161 89 239 -7 q 78 346 94 172 q 71 511 71 417 q 78 676 71 606 q 107 816 86 747 q 164 929 128 885 q 399 1028 242 1028 q 575 1017 471 1028 q 761 989 679 1006 l 761 888 q 736 890 760 888 q 675 894 713 892 q 594 900 638 897 q 428 906 490 906 q 334 896 367 906 q 278 864 301 886 q 239 811 254 842 q 215 735 224 781 q 199 511 199 651 q 244 203 199 288 q 415 117 292 117 q 519 132 460 117 q 617 164 579 147 l 654 181 l 654 432 l 446 432 l 446 517 q 688 550 554 550 q 782 547 732 550 l 782 0 l 688 0 l 657 68 z "},"ġ":{"ha":771,"x_min":60,"x_max":747,"o":"m 315 864 l 315 947 q 349 982 315 982 l 426 982 q 450 972 442 982 q 458 947 458 961 l 458 864 q 426 832 458 832 l 349 832 q 324 840 333 832 q 315 864 315 849 m 63 156 q 83 231 63 196 q 144 275 104 265 q 83 358 103 301 q 64 478 64 414 q 128 674 64 608 q 308 740 192 740 l 746 740 l 746 653 l 642 628 q 651 610 643 625 q 663 587 660 594 q 671 561 665 579 q 681 485 681 529 q 676 409 681 440 q 656 340 671 378 q 615 274 640 303 q 547 226 590 246 q 446 207 503 207 l 242 207 q 185 168 185 207 q 242 124 185 124 l 518 124 q 658 71 608 124 q 708 -75 708 18 l 708 -161 q 585 -361 708 -318 q 493 -375 546 -375 l 285 -375 q 90 -281 146 -375 q 61 -161 61 -232 l 61 -50 l 118 35 q 63 156 63 72 m 250 6 q 189 15 215 6 l 189 -154 q 226 -242 189 -222 q 300 -258 257 -258 l 482 -258 q 559 -231 538 -258 q 581 -156 581 -204 l 581 -82 q 563 -15 581 -35 q 492 6 544 6 l 250 6 m 310 325 l 429 325 q 549 426 526 325 q 553 460 553 447 q 552 494 553 474 q 546 539 551 514 q 526 585 540 564 q 428 622 500 622 l 317 622 q 192 474 192 622 q 310 325 192 325 z "},"Ģ":{"ha":853,"x_min":71,"x_max":782,"o":"m 382 -312 q 421 -275 421 -314 l 421 -249 l 407 -249 q 375 -217 375 -249 l 375 -139 q 407 -104 375 -104 l 482 -104 q 511 -139 511 -104 l 511 -262 q 408 -361 511 -361 q 382 -358 401 -361 l 382 -312 m 657 68 q 393 -7 540 -7 q 161 89 239 -7 q 78 346 94 172 q 71 511 71 417 q 78 676 71 606 q 107 816 86 747 q 164 929 128 885 q 399 1028 242 1028 q 575 1017 471 1028 q 761 989 679 1006 l 761 888 q 736 890 760 888 q 675 894 713 892 q 594 900 638 897 q 428 906 490 906 q 334 896 367 906 q 278 864 301 886 q 239 811 254 842 q 215 735 224 781 q 199 511 199 651 q 244 203 199 288 q 415 117 292 117 q 519 132 460 117 q 617 164 579 147 l 654 181 l 654 432 l 446 432 l 446 517 q 688 550 554 550 q 782 547 732 550 l 782 0 l 688 0 l 657 68 z "},"ģ":{"ha":771,"x_min":60,"x_max":747,"o":"m 313 981 q 415 1081 313 1081 q 442 1078 422 1081 l 442 1032 q 415 1025 425 1032 q 403 994 403 1015 l 403 967 l 417 967 q 449 936 449 967 l 449 857 q 417 824 449 824 l 342 824 q 313 857 313 824 l 313 981 m 63 154 q 83 231 63 196 q 144 275 104 267 q 64 467 64 326 q 128 674 64 608 q 308 740 192 740 l 746 740 l 746 651 l 642 626 q 651 610 643 625 q 663 587 660 594 q 671 561 665 579 q 681 485 681 529 q 676 409 681 440 q 656 340 671 378 q 615 274 640 303 q 547 226 590 246 q 446 207 503 207 l 242 207 q 185 165 185 207 q 199 133 185 142 q 242 121 213 125 l 501 89 q 682 -11 631 72 q 708 -115 708 -54 l 708 -161 q 585 -361 708 -318 q 493 -375 546 -375 l 285 -375 q 90 -281 146 -375 q 61 -161 61 -232 l 61 -47 l 121 36 q 63 154 63 76 m 189 -154 q 226 -242 189 -222 q 300 -258 257 -258 l 482 -258 q 559 -231 538 -258 q 581 -156 581 -204 l 581 -119 q 468 -25 581 -39 l 263 1 l 189 13 l 189 -154 m 192 478 q 250 336 192 371 q 310 322 275 322 l 429 322 q 549 425 526 322 q 553 460 553 447 q 525 588 553 550 q 428 625 497 625 l 317 625 q 192 478 192 625 z "},"Ĥ":{"ha":885,"x_min":103,"x_max":808,"o":"m 250 1107 l 408 1289 l 519 1289 l 661 1107 l 556 1107 l 461 1201 l 358 1107 l 250 1107 m 104 0 l 104 1017 l 232 1017 l 232 553 l 681 553 l 681 1017 l 808 1017 l 808 0 l 681 0 l 681 431 l 232 431 l 232 0 l 104 0 z "},"ĥ":{"ha":757,"x_min":-82,"x_max":678,"o":"m -81 1172 l 78 1354 l 189 1354 l 331 1172 l 224 1172 l 129 1267 l 28 1172 l -81 1172 m 63 0 l 63 1089 l 189 1089 l 189 653 q 212 667 193 656 q 236 682 231 679 q 259 695 242 685 q 283 708 276 706 q 307 719 290 711 q 333 730 324 726 q 360 738 343 733 q 389 744 376 743 q 451 750 425 750 q 619 680 561 750 q 678 508 678 610 l 678 0 l 550 0 l 550 508 q 519 602 550 571 q 427 633 489 633 q 318 617 365 633 q 190 558 271 600 l 190 0 l 63 0 z "},"Ħ":{"ha":924,"x_min":24,"x_max":899,"o":"m 25 717 l 25 796 l 110 796 l 110 1017 l 238 1017 l 238 796 l 686 796 l 686 1017 l 814 1017 l 814 796 l 897 796 l 897 717 l 814 717 l 814 0 l 686 0 l 686 431 l 238 431 l 238 0 l 110 0 l 110 717 l 25 717 m 238 553 l 686 553 l 686 717 l 238 717 l 238 553 z "},"ħ":{"ha":763,"x_min":-21,"x_max":699,"o":"m 83 924 l 83 1089 l 214 1089 l 214 924 l 393 924 l 393 844 l 214 844 l 214 653 q 301 701 265 683 q 481 750 399 750 q 485 750 482 750 q 493 750 489 750 q 645 682 592 750 q 699 510 699 614 l 699 0 l 567 0 l 567 507 q 538 603 564 571 q 449 635 511 635 q 215 558 351 631 l 215 0 l 83 0 l 83 844 l -19 844 l -19 924 l 83 924 z "},"Ĩ":{"ha":308,"x_min":-68,"x_max":404,"o":"m 247 1211 q 372 1263 285 1211 l 403 1197 q 381 1178 400 1194 q 356 1157 363 1163 q 331 1139 349 1151 q 301 1122 314 1126 q 161 1133 238 1093 q 94 1156 118 1156 q 15 1135 51 1156 q -37 1107 -22 1114 l -68 1169 q 54 1253 11 1239 q 168 1242 108 1271 q 237 1212 228 1213 q 247 1211 246 1211 m 104 0 l 104 1017 l 232 1017 l 232 0 l 104 0 z "},"ĩ":{"ha":283,"x_min":-94,"x_max":378,"o":"m 222 932 q 346 983 260 932 l 378 918 q 356 899 374 915 q 330 878 338 883 q 305 860 322 872 q 276 843 288 847 q 160 843 218 817 q 111 865 132 854 q 80 876 90 876 q 55 876 69 876 q 21 869 40 876 q -24 849 1 863 q -64 828 -49 835 l -94 890 q -40 936 -61 919 q 59 980 18 981 q 128 967 100 979 q 179 944 157 956 q 222 932 204 932 m 78 0 l 78 738 l 206 738 l 206 0 l 78 0 z "},"Ī":{"ha":308,"x_min":-36,"x_max":371,"o":"m -35 1107 l -35 1200 l 371 1200 l 371 1107 l -35 1107 m 104 0 l 104 1017 l 232 1017 l 232 0 l 104 0 z "},"ī":{"ha":283,"x_min":-61,"x_max":346,"o":"m -61 828 l -61 922 l 344 922 l 344 828 l -61 828 m 78 0 l 78 738 l 206 738 l 206 0 l 78 0 z "},"Į":{"ha":308,"x_min":31,"x_max":232,"o":"m 125 -110 q 210 -164 125 -162 l 210 -253 q 172 -256 194 -256 q 115 -244 150 -256 q 60 -201 81 -232 q 32 -130 32 -164 q 58 -61 32 -96 q 143 0 83 -26 l 203 0 q 125 -110 125 -64 m 104 0 l 104 1017 l 232 1017 l 232 0 l 104 0 z "},"į":{"ha":285,"x_min":6,"x_max":221,"o":"m 100 -110 q 183 -164 100 -162 l 183 -253 q 146 -256 168 -256 q 90 -244 124 -256 q 33 -201 56 -232 q 6 -130 6 -164 q 32 -61 6 -96 q 117 0 58 -26 l 178 0 q 100 -110 100 -64 m 65 854 l 65 942 q 99 978 65 978 l 189 978 q 213 967 204 978 q 221 942 221 957 l 221 854 q 189 822 221 822 l 99 822 q 74 831 83 822 q 65 854 65 840 m 76 0 l 76 738 l 204 738 l 204 0 l 76 0 z "},"İ":{"ha":308,"x_min":96,"x_max":240,"o":"m 96 1139 l 96 1222 q 129 1257 96 1257 l 207 1257 q 231 1247 222 1257 q 239 1222 239 1238 l 239 1139 q 207 1107 239 1107 l 129 1107 q 106 1116 115 1107 q 96 1139 96 1125 m 104 0 l 104 1017 l 232 1017 l 232 0 l 104 0 z "},"ı":{"ha":283,"x_min":78,"x_max":207,"o":"m 78 0 l 78 738 l 206 738 l 206 0 l 78 0 z "},"Ĵ":{"ha":497,"x_min":44,"x_max":563,"o":"m 150 1107 l 310 1289 l 421 1289 l 563 1107 l 456 1107 l 361 1201 l 258 1107 l 150 1107 m 347 25 q 199 -8 294 -8 q 46 31 104 -8 l 50 126 q 72 122 54 125 q 103 116 89 118 q 142 110 117 114 q 182 109 168 107 q 216 115 196 111 q 247 129 236 118 q 271 156 258 140 q 292 253 292 185 l 292 1017 l 419 1017 l 419 229 q 417 155 419 185 q 397 85 414 125 q 347 25 379 46 z "},"ĵ":{"ha":311,"x_min":-53,"x_max":361,"o":"m -51 831 l 107 1049 l 218 1049 l 360 831 l 265 831 l 158 949 l 44 831 l -51 831 m 90 -375 l 90 738 l 224 738 l 224 -6 q 224 -29 224 -18 q 183 -375 224 -232 l 90 -375 z "},"Ķ":{"ha":835,"x_min":103,"x_max":790,"o":"m 392 -354 q 367 -351 381 -354 l 367 -306 q 393 -299 383 -306 q 404 -269 404 -290 l 404 -242 l 392 -242 q 360 -210 360 -242 l 360 -131 q 392 -97 360 -97 l 467 -97 q 496 -131 496 -97 l 496 -256 q 392 -354 496 -354 m 104 0 l 104 1017 l 229 1017 l 229 569 l 335 569 l 638 1017 l 790 1017 l 450 510 l 790 0 l 638 0 l 335 447 l 231 447 l 231 0 l 104 0 z "},"ķ":{"ha":715,"x_min":78,"x_max":692,"o":"m 331 -354 q 304 -351 324 -354 l 304 -306 q 331 -299 322 -306 q 343 -269 343 -290 l 343 -242 l 329 -242 q 299 -210 299 -242 l 299 -131 q 329 -97 299 -97 l 404 -97 q 435 -131 435 -97 l 435 -256 q 331 -354 435 -354 m 78 0 l 78 1086 l 206 1086 l 206 479 l 257 479 l 519 738 l 690 738 l 376 422 l 690 0 l 535 0 l 257 364 l 206 364 l 206 0 l 78 0 z "},"ĸ":{"ha":738,"x_min":78,"x_max":714,"o":"m 78 0 l 78 738 l 206 738 l 206 422 l 310 422 l 557 738 l 713 738 l 425 367 l 692 0 l 536 0 l 306 308 l 207 308 l 206 0 l 78 0 z "},"Ĺ":{"ha":767,"x_min":103,"x_max":722,"o":"m 115 1107 l 258 1294 l 400 1294 l 219 1107 l 115 1107 m 104 181 l 104 1017 l 232 1017 l 232 196 q 261 132 232 143 q 318 124 282 124 l 722 124 l 722 0 l 299 0 q 119 88 157 0 q 104 181 104 125 z "},"ĺ":{"ha":421,"x_min":78,"x_max":413,"o":"m 126 1171 l 269 1358 l 411 1358 l 231 1171 l 126 1171 m 78 263 l 78 1088 l 206 1088 l 206 271 q 224 157 206 189 q 281 115 243 125 q 396 86 386 86 l 396 0 l 264 0 q 78 263 78 0 z "},"Ļ":{"ha":767,"x_min":103,"x_max":722,"o":"m 389 -353 q 363 -350 382 -353 l 363 -304 q 400 -276 397 -306 q 401 -268 401 -274 l 401 -240 l 388 -240 q 356 -208 356 -240 l 356 -131 q 388 -96 356 -96 l 463 -96 q 492 -131 492 -96 l 492 -254 q 389 -353 492 -353 m 104 181 l 104 1017 l 232 1017 l 232 196 q 261 132 232 143 q 318 124 282 124 l 722 124 l 722 0 l 299 0 q 119 88 157 0 q 104 181 104 125 z "},"ļ":{"ha":421,"x_min":78,"x_max":397,"o":"m 174 -304 q 213 -268 213 -306 l 213 -240 l 199 -240 q 167 -210 167 -240 l 167 -131 q 199 -97 167 -97 l 274 -97 q 303 -131 303 -97 l 303 -254 q 200 -354 303 -354 q 174 -350 193 -354 l 174 -304 m 78 263 l 78 1088 l 206 1088 l 206 271 q 224 157 206 189 q 281 115 243 125 q 396 86 386 86 l 396 0 l 264 0 q 78 263 78 0 z "},"Ľ":{"ha":767,"x_min":103,"x_max":722,"o":"m 104 181 l 104 1017 l 232 1017 l 232 196 q 261 132 232 143 q 318 124 282 124 l 722 124 l 722 0 l 299 0 q 119 88 157 0 q 104 181 104 125 m 333 1072 l 444 1072 l 444 979 l 431 793 l 349 793 l 333 979 l 333 1072 z "},"ľ":{"ha":438,"x_min":78,"x_max":419,"o":"m 78 263 l 78 1088 l 206 1088 l 206 271 q 221 158 206 186 q 281 115 236 129 q 396 86 386 86 l 396 0 l 264 0 q 121 59 164 0 q 78 263 78 118 m 307 1085 l 418 1085 l 418 992 l 404 806 l 322 806 l 307 992 l 307 1085 z "},"Ł":{"ha":776,"x_min":1,"x_max":735,"o":"m 115 1017 l 243 1017 l 243 632 l 428 711 l 426 622 l 243 543 l 243 196 q 272 132 243 143 q 329 124 294 124 l 733 124 l 733 0 l 311 0 q 132 88 168 0 q 115 181 115 125 l 115 488 l 3 439 l 3 528 l 115 576 l 115 1017 z "},"ł":{"ha":468,"x_min":14,"x_max":442,"o":"m 124 1088 l 251 1088 l 251 696 l 439 778 l 438 689 l 251 608 l 251 271 q 269 157 251 189 q 326 115 288 125 q 442 86 432 86 l 442 0 l 308 0 q 124 263 124 0 l 124 553 l 14 506 l 14 594 l 124 640 l 124 1088 z "},"Ń":{"ha":943,"x_min":103,"x_max":867,"o":"m 444 1107 l 588 1294 l 729 1294 l 549 1107 l 444 1107 m 104 0 l 104 1017 l 235 1017 l 739 238 l 739 1017 l 867 1017 l 867 0 l 739 0 l 233 778 l 233 0 l 104 0 z "},"ń":{"ha":757,"x_min":78,"x_max":694,"o":"m 329 833 l 472 1019 l 614 1019 l 433 833 l 329 833 m 78 0 l 78 738 l 174 738 l 206 653 q 235 672 211 657 q 279 697 260 686 q 332 722 299 708 q 468 750 393 750 q 635 680 576 750 q 693 508 693 610 l 693 0 l 565 0 l 565 508 q 535 602 565 571 q 443 633 504 633 q 335 617 382 633 q 206 558 288 600 l 206 0 l 78 0 z "},"Ņ":{"ha":943,"x_min":103,"x_max":867,"o":"m 447 -354 q 421 -351 436 -354 l 421 -306 q 447 -299 439 -306 q 460 -269 460 -290 l 460 -242 l 446 -242 q 415 -210 415 -242 l 415 -131 q 446 -97 415 -97 l 521 -97 q 551 -131 551 -97 l 551 -256 q 447 -354 551 -354 m 104 0 l 104 1017 l 235 1017 l 739 238 l 739 1017 l 867 1017 l 867 0 l 739 0 l 233 778 l 233 0 l 104 0 z "},"ņ":{"ha":757,"x_min":78,"x_max":694,"o":"m 350 -354 q 324 -351 343 -354 l 324 -306 q 350 -299 342 -306 q 363 -269 363 -290 l 363 -242 l 349 -242 q 318 -210 318 -242 l 318 -131 q 349 -97 318 -97 l 424 -97 q 454 -131 454 -97 l 454 -256 q 350 -354 454 -354 m 78 0 l 78 738 l 174 738 l 206 653 q 235 672 211 657 q 279 697 260 686 q 332 722 299 708 q 468 750 393 750 q 635 680 576 750 q 693 508 693 610 l 693 0 l 565 0 l 565 508 q 535 602 565 571 q 443 633 504 633 q 335 617 382 633 q 206 558 288 600 l 206 0 l 78 0 z "},"Ň":{"ha":943,"x_min":103,"x_max":867,"o":"m 290 1289 l 399 1289 l 504 1194 l 596 1289 l 703 1289 l 560 1107 l 449 1107 l 290 1289 m 104 0 l 104 1017 l 235 1017 l 739 238 l 739 1017 l 867 1017 l 867 0 l 739 0 l 233 778 l 233 0 l 104 0 z "},"ň":{"ha":757,"x_min":78,"x_max":694,"o":"m 193 1017 l 301 1017 l 406 922 l 497 1017 l 604 1017 l 461 833 l 350 833 l 193 1017 m 78 0 l 78 738 l 174 738 l 206 653 q 235 672 211 657 q 279 697 260 686 q 332 722 299 708 q 468 750 393 750 q 635 680 576 750 q 693 508 693 610 l 693 0 l 565 0 l 565 508 q 535 602 565 571 q 443 633 504 633 q 335 617 382 633 q 206 558 288 600 l 206 0 l 78 0 z "},"Ŋ":{"ha":940,"x_min":103,"x_max":864,"o":"m 104 0 l 104 1017 l 235 1017 l 736 250 l 736 1017 l 864 1017 l 864 -112 q 732 -335 864 -290 q 572 -357 668 -357 q 551 -357 563 -357 l 551 -261 q 592 -253 563 -258 q 635 -244 621 -247 q 673 -229 650 -240 q 707 -203 696 -218 q 736 -94 736 -162 l 736 0 l 235 778 l 232 0 l 104 0 z "},"ŋ":{"ha":771,"x_min":78,"x_max":694,"o":"m 468 750 q 635 680 576 750 q 693 508 693 610 l 693 0 l 692 -117 q 622 -293 686 -235 q 494 -361 569 -340 q 453 -372 481 -365 l 410 -306 q 428 -296 414 -303 q 448 -285 442 -289 q 468 -274 454 -282 q 490 -261 482 -267 q 509 -246 497 -256 q 527 -228 521 -236 q 542 -208 533 -219 q 554 -183 550 -196 q 565 -122 565 -153 l 565 508 q 497 625 565 600 q 430 633 478 633 q 335 617 382 633 q 206 558 288 600 l 206 0 l 78 0 l 78 738 l 174 738 l 206 654 q 232 669 215 658 q 259 685 249 679 q 285 699 269 690 q 312 713 300 708 q 339 725 324 718 q 368 735 354 732 q 399 743 382 739 q 468 750 429 750 z "},"Ō":{"ha":936,"x_min":83,"x_max":879,"o":"m 281 1107 l 281 1200 l 686 1200 l 686 1107 l 281 1107 m 85 503 q 95 680 85 601 q 122 813 106 758 q 168 907 139 868 q 228 968 197 946 q 303 1003 258 990 q 457 1024 374 1024 q 581 1019 540 1024 q 666 1003 622 1015 q 740 968 710 990 q 798 907 769 946 q 843 814 826 868 q 879 501 879 693 q 831 171 879 276 q 776 80 807 115 q 696 26 744 44 q 483 -6 614 -6 q 221 49 293 -6 q 119 199 147 103 q 85 503 85 315 m 256 810 q 247 790 256 810 q 225 693 238 769 q 213 531 213 617 q 215 400 213 444 q 223 318 218 356 q 237 253 228 281 q 257 203 246 225 q 285 167 268 182 q 320 143 301 153 q 365 128 339 133 q 480 118 413 118 q 589 127 547 118 q 664 159 631 136 q 715 226 697 182 q 751 501 751 314 q 742 677 751 625 q 727 758 733 729 q 708 809 721 788 q 685 846 696 831 q 654 872 674 861 q 620 888 635 882 q 579 896 606 893 q 479 900 540 900 q 385 896 418 900 q 313 872 353 892 q 256 810 274 851 z "},"ō":{"ha":785,"x_min":64,"x_max":722,"o":"m 190 828 l 190 922 l 596 922 l 596 828 l 190 828 m 65 358 q 97 593 65 510 q 199 710 129 676 q 393 744 268 744 q 651 661 581 744 q 721 365 721 578 q 651 72 721 151 q 394 -7 581 -7 q 137 75 208 -7 q 65 358 65 157 m 213 539 q 207 524 213 539 q 197 465 201 508 q 193 361 193 421 q 198 260 193 301 q 215 191 203 218 q 242 148 228 164 q 283 124 257 132 q 382 110 324 110 q 468 115 440 111 q 523 131 496 118 q 564 172 550 144 q 593 358 593 232 q 578 527 593 486 q 549 585 563 568 q 511 613 536 603 q 413 628 472 628 q 328 625 353 628 q 277 613 303 622 q 238 587 251 604 q 213 539 225 569 z "},"Ő":{"ha":936,"x_min":83,"x_max":879,"o":"m 333 1107 l 475 1294 l 618 1294 l 438 1107 l 333 1107 m 528 1107 l 671 1294 l 814 1294 l 633 1107 l 528 1107 m 85 503 q 95 680 85 601 q 122 813 106 758 q 168 907 139 868 q 228 968 197 946 q 303 1003 258 990 q 457 1024 374 1024 q 581 1019 540 1024 q 666 1003 622 1015 q 740 968 710 990 q 798 907 769 946 q 843 814 826 868 q 879 501 879 693 q 831 171 879 276 q 776 80 807 115 q 696 26 744 44 q 483 -6 614 -6 q 221 49 293 -6 q 119 199 147 103 q 85 503 85 315 m 256 810 q 247 790 256 810 q 225 693 238 769 q 213 531 213 617 q 215 400 213 444 q 223 318 218 356 q 237 253 228 281 q 257 203 246 225 q 285 167 268 182 q 320 143 301 153 q 365 128 339 133 q 480 118 413 118 q 589 127 547 118 q 664 159 631 136 q 715 226 697 182 q 751 501 751 314 q 742 677 751 625 q 727 758 733 729 q 708 809 721 788 q 685 846 696 831 q 654 872 674 861 q 620 888 635 882 q 579 896 606 893 q 479 900 540 900 q 385 896 418 900 q 313 872 353 892 q 256 810 274 851 z "},"ő":{"ha":785,"x_min":64,"x_max":724,"o":"m 243 828 l 386 1014 l 528 1014 l 347 828 l 243 828 m 439 828 l 581 1014 l 724 1014 l 543 828 l 439 828 m 65 358 q 97 593 65 510 q 199 710 129 676 q 393 744 268 744 q 651 661 581 744 q 721 365 721 578 q 651 72 721 151 q 394 -7 581 -7 q 137 75 208 -7 q 65 358 65 157 m 213 539 q 207 524 213 539 q 197 465 201 508 q 193 361 193 421 q 198 260 193 301 q 215 191 203 218 q 242 148 228 164 q 283 124 257 132 q 382 110 324 110 q 468 115 440 111 q 523 131 496 118 q 564 172 550 144 q 593 358 593 232 q 578 527 593 486 q 549 585 563 568 q 511 613 536 603 q 413 628 472 628 q 328 625 353 628 q 277 613 303 622 q 238 587 251 604 q 213 539 225 569 z "},"Œ":{"ha":1447,"x_min":83,"x_max":1378,"o":"m 224 693 q 220 674 224 693 q 215 608 217 656 q 213 488 213 560 q 217 357 213 417 q 236 253 222 297 q 269 184 250 210 q 321 143 288 158 q 460 118 374 118 q 588 127 546 118 q 663 159 629 136 q 715 226 697 182 q 751 501 751 314 q 742 677 751 625 q 727 758 733 729 q 708 809 721 788 q 684 846 694 831 q 654 872 674 861 q 619 888 635 882 q 578 896 604 893 q 495 900 540 900 q 431 899 450 900 q 387 896 413 899 q 346 888 361 893 q 311 872 331 882 q 281 847 292 863 q 256 810 269 832 q 237 760 243 789 q 224 693 231 731 m 776 931 q 925 1017 815 1017 q 1142 1007 932 1017 q 1376 994 1353 997 l 1376 892 l 951 892 q 888 867 899 892 q 879 814 879 847 l 879 569 l 1319 554 l 1319 451 l 879 438 l 879 193 q 918 125 879 135 q 965 121 935 121 l 1376 121 l 1376 19 l 953 -4 q 932 -4 942 -4 q 772 83 808 -4 q 600 1 713 15 q 486 -6 550 -6 q 381 -2 422 -6 q 294 14 339 1 q 220 49 250 26 q 163 108 190 71 q 119 199 135 144 q 85 501 85 315 q 114 785 85 682 q 196 942 147 897 q 308 1006 256 994 q 470 1024 389 1024 q 600 1018 551 1024 q 776 931 715 1003 z "},"œ":{"ha":1254,"x_min":64,"x_max":1204,"o":"m 65 358 q 97 593 65 510 q 199 710 129 676 q 393 744 268 744 q 651 656 583 744 q 797 736 696 722 q 901 743 843 743 q 988 742 958 743 q 1051 734 1018 740 q 1106 717 1085 728 q 1147 686 1126 706 q 1179 639 1168 667 q 1204 479 1204 578 q 1010 306 1204 306 l 719 306 q 719 260 719 294 q 732 186 719 225 q 864 110 756 110 q 1190 124 1093 110 l 1190 32 q 835 -7 1063 -7 q 647 75 699 -7 q 394 -7 579 -7 q 137 75 208 -7 q 65 358 65 157 m 213 539 q 207 524 213 539 q 197 465 201 508 q 193 361 193 421 q 198 260 193 301 q 215 191 203 218 q 242 148 228 164 q 283 124 257 132 q 381 110 324 110 q 469 115 439 110 q 522 132 499 119 q 558 161 544 144 q 578 210 571 178 q 592 371 592 261 q 574 534 592 481 q 515 607 556 588 q 414 626 475 626 q 328 624 353 626 q 277 613 303 622 q 238 587 251 604 q 213 539 225 569 m 1076 482 q 1071 561 1076 535 q 1046 603 1065 588 q 999 624 1026 619 q 924 628 972 628 q 852 626 876 628 q 801 617 828 624 q 761 596 775 610 q 719 450 719 554 q 719 418 719 435 l 996 418 q 1076 482 1076 418 z "},"Ŕ":{"ha":828,"x_min":79,"x_max":799,"o":"m 357 1101 l 499 1288 l 642 1288 l 461 1101 l 357 1101 m 81 0 l 81 1017 l 517 1017 q 763 708 763 1017 q 748 578 763 635 q 715 494 733 522 q 669 447 697 467 q 626 423 640 428 q 590 414 611 418 l 799 0 l 658 0 l 457 407 l 208 426 l 208 0 l 81 0 m 208 535 l 511 535 q 610 575 588 535 q 633 692 633 618 q 624 806 633 767 q 594 863 614 844 q 511 894 563 894 l 208 894 l 208 535 z "},"ŕ":{"ha":588,"x_min":78,"x_max":575,"o":"m 290 831 l 432 1017 l 575 1017 l 394 831 l 290 831 m 78 0 l 78 738 l 175 738 l 206 644 q 238 665 210 647 q 293 699 265 683 q 368 730 321 714 q 476 746 415 746 q 561 735 538 746 l 561 610 q 454 617 525 617 q 331 599 383 617 q 206 536 279 582 l 206 0 l 78 0 z "},"Ŗ":{"ha":828,"x_min":79,"x_max":799,"o":"m 381 -353 q 354 -350 368 -353 l 354 -304 q 381 -297 371 -304 q 393 -267 393 -287 l 393 -240 l 379 -240 q 347 -208 347 -240 l 347 -129 q 379 -96 347 -96 l 454 -96 q 483 -129 483 -96 l 483 -254 q 381 -353 483 -353 m 81 0 l 81 1017 l 517 1017 q 763 708 763 1017 q 748 578 763 635 q 715 494 733 522 q 669 447 697 467 q 626 423 640 428 q 590 414 611 418 l 799 0 l 658 0 l 457 407 l 208 426 l 208 0 l 81 0 m 208 535 l 511 535 q 610 575 588 535 q 633 692 633 618 q 624 806 633 767 q 594 863 614 844 q 511 894 563 894 l 208 894 l 208 535 z "},"ŗ":{"ha":588,"x_min":71,"x_max":560,"o":"m 104 -354 q 78 -351 97 -354 l 78 -306 q 104 -299 94 -306 q 117 -269 117 -290 l 117 -242 l 103 -242 q 71 -210 71 -242 l 71 -131 q 103 -97 71 -97 l 178 -97 q 207 -131 207 -97 l 207 -256 q 104 -354 207 -354 m 76 0 l 76 738 l 174 738 l 204 644 q 231 662 208 647 q 273 688 253 676 q 326 715 293 700 q 463 746 389 746 q 558 735 536 746 l 558 610 q 453 617 524 617 q 329 599 382 617 q 204 536 276 582 l 204 0 l 76 0 z "},"Ř":{"ha":828,"x_min":79,"x_max":799,"o":"m 200 1289 l 308 1289 l 413 1194 l 504 1289 l 611 1289 l 468 1107 l 357 1107 l 200 1289 m 81 0 l 81 1017 l 517 1017 q 763 708 763 1017 q 748 578 763 635 q 715 494 733 522 q 669 447 697 467 q 626 423 640 428 q 590 414 611 418 l 799 0 l 658 0 l 457 407 l 208 426 l 208 0 l 81 0 m 208 535 l 511 535 q 610 575 588 535 q 633 692 633 618 q 624 806 633 767 q 594 863 614 844 q 511 894 563 894 l 208 894 l 208 535 z "},"ř":{"ha":588,"x_min":78,"x_max":561,"o":"m 114 1011 l 221 1011 l 326 917 l 418 1011 l 525 1011 l 382 829 l 271 829 l 114 1011 m 78 0 l 78 738 l 175 738 l 206 644 q 238 665 210 647 q 293 699 265 683 q 368 730 321 714 q 476 746 415 746 q 561 735 538 746 l 561 610 q 454 617 525 617 q 331 599 383 617 q 206 536 279 582 l 206 0 l 78 0 z "},"Ś":{"ha":813,"x_min":83,"x_max":756,"o":"m 374 1108 l 517 1296 l 658 1296 l 478 1108 l 374 1108 m 85 683 l 85 774 q 164 975 85 919 q 365 1025 236 1025 q 547 1013 429 1025 q 719 990 665 1000 l 719 888 q 528 896 661 892 q 352 901 379 901 q 304 899 325 901 q 258 885 283 897 q 213 769 213 861 l 213 689 q 244 587 213 610 q 344 564 275 564 l 532 564 q 756 317 756 564 l 756 229 q 632 14 756 64 q 487 -11 569 -11 q 289 1 404 -11 q 115 25 174 13 l 115 128 q 378 113 268 113 q 504 114 488 113 q 546 122 521 115 q 588 139 571 128 q 628 228 628 168 l 628 311 q 604 403 628 371 q 519 436 581 436 l 336 436 q 107 550 156 436 q 85 683 85 604 z "},"ś":{"ha":703,"x_min":51,"x_max":653,"o":"m 297 833 l 439 1021 l 582 1021 l 401 833 l 297 833 m 51 493 l 51 557 q 96 696 51 647 q 229 744 140 744 q 442 736 318 744 q 614 718 567 728 l 614 626 l 260 626 q 190 606 203 626 q 179 554 179 589 l 179 499 q 199 440 179 451 q 260 428 218 428 l 467 428 q 571 403 528 428 q 651 244 651 357 l 651 175 q 471 -7 651 -7 q 260 3 400 -7 q 82 24 119 14 l 82 113 l 454 113 q 524 179 524 113 l 524 238 q 508 290 524 274 q 454 307 493 307 l 247 307 q 99 348 146 307 q 51 493 51 389 z "},"Ŝ":{"ha":813,"x_min":83,"x_max":756,"o":"m 228 1108 l 386 1292 l 497 1292 l 639 1108 l 532 1108 l 439 1203 l 336 1108 l 228 1108 m 85 683 l 85 774 q 164 975 85 919 q 365 1025 236 1025 q 547 1013 429 1025 q 719 990 665 1000 l 719 888 q 528 896 661 892 q 352 901 379 901 q 304 899 325 901 q 258 885 283 897 q 213 769 213 861 l 213 689 q 244 587 213 610 q 344 564 275 564 l 532 564 q 756 317 756 564 l 756 229 q 632 14 756 64 q 487 -11 569 -11 q 289 1 404 -11 q 115 25 174 13 l 115 128 q 378 113 268 113 q 504 114 488 113 q 546 122 521 115 q 588 139 571 128 q 628 228 628 168 l 628 311 q 604 403 628 371 q 519 436 581 436 l 336 436 q 107 550 156 436 q 85 683 85 604 z "},"ŝ":{"ha":703,"x_min":51,"x_max":653,"o":"m 146 828 l 306 1011 l 417 1011 l 558 828 l 451 828 l 357 922 l 254 828 l 146 828 m 51 493 l 51 557 q 96 696 51 647 q 229 744 140 744 q 442 736 318 744 q 614 718 567 728 l 614 626 l 260 626 q 190 606 203 626 q 179 554 179 589 l 179 499 q 199 440 179 451 q 260 428 218 428 l 467 428 q 571 403 528 428 q 651 244 651 357 l 651 175 q 471 -7 651 -7 q 260 3 400 -7 q 82 24 119 14 l 82 113 l 454 113 q 524 179 524 113 l 524 238 q 508 290 524 274 q 454 307 493 307 l 247 307 q 99 348 146 307 q 51 493 51 389 z "},"Ş":{"ha":813,"x_min":83,"x_max":756,"o":"m 386 -62 l 489 -62 q 459 -211 489 -169 q 344 -253 429 -253 l 272 -253 l 272 -193 l 343 -172 q 378 -135 369 -161 q 386 -62 386 -108 m 85 683 l 85 774 q 164 975 85 919 q 365 1025 236 1025 q 547 1013 429 1025 q 719 990 665 1000 l 719 888 q 528 896 661 892 q 352 901 379 901 q 304 899 325 901 q 258 885 283 897 q 213 769 213 861 l 213 689 q 244 587 213 610 q 344 564 275 564 l 532 564 q 756 317 756 564 l 756 229 q 632 14 756 64 q 487 -11 569 -11 q 289 1 404 -11 q 115 25 174 13 l 115 128 q 378 113 268 113 q 504 114 488 113 q 546 122 521 115 q 588 139 571 128 q 628 228 628 168 l 628 311 q 604 403 628 371 q 519 436 581 436 l 336 436 q 107 550 156 436 q 85 683 85 604 z "},"ş":{"ha":703,"x_min":51,"x_max":653,"o":"m 296 -54 l 399 -54 q 369 -203 399 -161 q 254 -244 339 -244 l 182 -244 l 182 -185 l 251 -164 q 288 -126 279 -153 q 296 -54 296 -100 m 51 493 l 51 557 q 96 696 51 647 q 229 744 140 744 q 442 736 318 744 q 614 718 567 728 l 614 626 l 260 626 q 190 606 203 626 q 179 554 179 589 l 179 499 q 199 440 179 451 q 260 428 218 428 l 467 428 q 571 403 528 428 q 651 244 651 357 l 651 175 q 471 -7 651 -7 q 260 3 400 -7 q 82 24 119 14 l 82 113 l 454 113 q 524 179 524 113 l 524 238 q 508 290 524 274 q 454 307 493 307 l 247 307 q 99 348 146 307 q 51 493 51 389 z "},"Š":{"ha":813,"x_min":83,"x_max":756,"o":"m 219 1292 l 328 1292 l 432 1197 l 524 1292 l 632 1292 l 488 1108 l 376 1108 l 219 1292 m 85 683 l 85 774 q 164 975 85 919 q 365 1025 236 1025 q 547 1013 429 1025 q 719 990 665 1000 l 719 888 q 528 896 661 892 q 352 901 379 901 q 304 899 325 901 q 258 885 283 897 q 213 769 213 861 l 213 689 q 244 587 213 610 q 344 564 275 564 l 532 564 q 756 317 756 564 l 756 229 q 632 14 756 64 q 487 -11 569 -11 q 289 1 404 -11 q 115 25 174 13 l 115 128 q 378 113 268 113 q 504 114 488 113 q 546 122 521 115 q 588 139 571 128 q 628 228 628 168 l 628 311 q 604 403 628 371 q 519 436 581 436 l 336 436 q 107 550 156 436 q 85 683 85 604 z "},"š":{"ha":703,"x_min":51,"x_max":653,"o":"m 151 1017 l 260 1017 l 364 922 l 456 1017 l 563 1017 l 419 833 l 308 833 l 151 1017 m 51 493 l 51 557 q 96 696 51 647 q 229 744 140 744 q 442 736 318 744 q 614 718 567 728 l 614 626 l 260 626 q 190 606 203 626 q 179 554 179 589 l 179 499 q 199 440 179 451 q 260 428 218 428 l 467 428 q 571 403 528 428 q 651 244 651 357 l 651 175 q 471 -7 651 -7 q 260 3 400 -7 q 82 24 119 14 l 82 113 l 454 113 q 524 179 524 113 l 524 238 q 508 290 524 274 q 454 307 493 307 l 247 307 q 99 348 146 307 q 51 493 51 389 z "},"Ţ":{"ha":808,"x_min":57,"x_max":776,"o":"m 328 -65 l 431 -65 q 401 -215 431 -174 q 286 -257 371 -257 l 214 -257 l 214 -196 l 283 -175 q 319 -137 311 -164 q 328 -65 328 -111 m 57 893 l 57 1017 l 775 1017 l 775 893 l 476 893 l 476 0 l 349 0 l 349 893 l 57 893 z "},"ţ":{"ha":526,"x_min":25,"x_max":489,"o":"m 228 -68 l 332 -68 q 301 -217 332 -176 q 188 -258 271 -258 l 114 -258 l 114 -199 l 185 -178 q 219 -140 211 -167 q 228 -68 228 -114 m 26 624 l 26 710 l 158 739 l 186 944 l 286 944 l 286 739 l 488 739 l 488 624 l 286 624 l 286 272 q 305 158 286 190 q 361 117 324 126 q 476 88 467 88 l 476 1 l 342 1 q 158 264 158 1 l 158 624 l 26 624 z "},"Ť":{"ha":808,"x_min":57,"x_max":776,"o":"m 199 1289 l 307 1289 l 411 1194 l 503 1289 l 611 1289 l 467 1107 l 356 1107 l 199 1289 m 57 893 l 57 1017 l 775 1017 l 775 893 l 476 893 l 476 0 l 349 0 l 349 893 l 57 893 z "},"ť":{"ha":528,"x_min":25,"x_max":489,"o":"m 286 944 l 286 739 l 488 739 l 488 624 l 286 624 l 286 272 q 305 158 286 190 q 361 117 324 126 q 476 88 467 88 l 476 1 l 342 1 q 158 264 158 1 l 158 624 l 26 624 l 26 710 l 158 739 l 186 944 l 286 944 m 482 1111 l 482 1018 l 467 832 l 385 832 l 371 1018 l 369 1111 l 482 1111 z "},"Ŧ":{"ha":804,"x_min":43,"x_max":763,"o":"m 43 893 l 43 1017 l 761 1017 l 761 893 l 463 893 l 463 613 l 621 613 l 621 533 l 463 533 l 463 0 l 335 0 l 335 533 l 176 533 l 176 613 l 335 613 l 335 893 l 43 893 z "},"ŧ":{"ha":513,"x_min":25,"x_max":489,"o":"m 26 624 l 26 710 l 158 739 l 186 944 l 286 944 l 286 739 l 488 739 l 488 624 l 286 624 l 286 447 l 424 447 l 424 368 l 286 368 l 286 272 q 317 135 288 157 q 397 108 331 125 q 465 90 463 90 l 465 1 l 342 1 q 238 26 276 1 q 158 264 158 76 l 158 368 l 50 368 l 50 447 l 158 447 l 158 624 l 26 624 z "},"Ũ":{"ha":935,"x_min":103,"x_max":858,"o":"m 560 1206 q 685 1257 599 1206 l 717 1192 q 694 1173 713 1189 q 668 1151 675 1157 q 644 1133 661 1146 q 615 1115 626 1121 q 474 1128 550 1088 q 407 1150 431 1150 q 327 1128 364 1150 q 275 1101 290 1107 l 244 1164 q 367 1247 324 1233 q 481 1236 421 1265 q 549 1206 540 1207 q 560 1206 558 1206 m 485 -7 l 465 -7 q 249 28 301 -7 q 192 77 224 44 q 143 157 160 110 q 104 444 104 274 l 104 1017 l 232 1017 l 232 444 q 241 299 232 342 q 256 231 250 256 q 275 190 263 207 q 298 160 288 172 q 327 139 308 147 q 360 126 346 131 q 397 119 374 122 q 476 117 433 117 q 541 118 518 117 q 592 127 564 119 q 638 147 619 135 q 675 184 656 160 q 704 243 694 208 q 729 444 729 321 l 729 1017 l 858 1017 l 858 444 q 763 79 858 172 q 703 29 729 46 q 631 4 676 13 q 485 -7 572 -7 z "},"ũ":{"ha":757,"x_min":64,"x_max":681,"o":"m 453 932 q 576 983 490 932 l 608 918 q 586 899 604 915 q 560 878 568 883 q 535 860 553 872 q 507 843 518 847 q 365 854 442 814 q 300 876 324 876 q 219 856 257 876 q 167 828 182 835 l 136 890 q 258 974 215 960 q 372 963 313 992 q 442 933 432 933 q 453 932 451 932 m 65 231 l 65 738 l 193 738 l 193 229 q 224 136 193 167 q 315 106 254 106 q 424 122 376 106 q 553 181 471 138 l 553 738 l 681 738 l 681 0 l 585 0 l 553 83 q 519 64 544 79 q 484 44 494 49 q 451 27 474 39 q 415 10 429 15 q 378 -1 400 6 q 290 -12 340 -12 q 123 58 181 -12 q 65 231 65 128 z "},"Ū":{"ha":935,"x_min":103,"x_max":858,"o":"m 278 1107 l 278 1200 l 683 1200 l 683 1107 l 278 1107 m 485 -7 l 465 -7 q 249 28 301 -7 q 192 77 224 44 q 143 157 160 110 q 104 444 104 274 l 104 1017 l 232 1017 l 232 444 q 241 299 232 342 q 256 231 250 256 q 275 190 263 207 q 298 160 288 172 q 327 139 308 147 q 360 126 346 131 q 397 119 374 122 q 476 117 433 117 q 541 118 518 117 q 592 127 564 119 q 638 147 619 135 q 675 184 656 160 q 704 243 694 208 q 729 444 729 321 l 729 1017 l 858 1017 l 858 444 q 763 79 858 172 q 703 29 729 46 q 631 4 676 13 q 485 -7 572 -7 z "},"ū":{"ha":757,"x_min":64,"x_max":681,"o":"m 169 828 l 169 922 l 575 922 l 575 828 l 169 828 m 65 231 l 65 738 l 193 738 l 193 229 q 224 136 193 167 q 315 106 254 106 q 424 122 376 106 q 553 181 471 138 l 553 738 l 681 738 l 681 0 l 585 0 l 553 83 q 519 64 544 79 q 484 44 494 49 q 451 27 474 39 q 415 10 429 15 q 378 -1 400 6 q 290 -12 340 -12 q 123 58 181 -12 q 65 231 65 128 z "},"Ŭ":{"ha":935,"x_min":103,"x_max":858,"o":"m 321 1265 l 390 1265 q 417 1202 390 1228 q 482 1176 444 1176 q 545 1201 519 1176 q 571 1265 571 1225 l 640 1265 q 592 1149 640 1192 q 481 1107 544 1107 q 369 1151 417 1107 q 321 1265 321 1194 m 485 -7 l 465 -7 q 249 28 301 -7 q 192 77 224 44 q 143 157 160 110 q 104 444 104 274 l 104 1017 l 232 1017 l 232 444 q 241 299 232 342 q 256 231 250 256 q 275 190 263 207 q 298 160 288 172 q 327 139 308 147 q 360 126 346 131 q 397 119 374 122 q 476 117 433 117 q 541 118 518 117 q 592 127 564 119 q 638 147 619 135 q 675 184 656 160 q 704 243 694 208 q 729 444 729 321 l 729 1017 l 858 1017 l 858 444 q 763 79 858 172 q 703 29 729 46 q 631 4 676 13 q 485 -7 572 -7 z "},"ŭ":{"ha":757,"x_min":64,"x_max":681,"o":"m 222 986 l 292 986 q 319 923 292 949 q 383 897 346 897 q 447 922 421 897 q 472 986 472 946 l 542 986 q 494 870 542 913 q 382 828 446 828 q 270 872 318 828 q 222 986 222 915 m 65 231 l 65 738 l 193 738 l 193 229 q 224 136 193 167 q 315 106 254 106 q 424 122 376 106 q 553 181 471 138 l 553 738 l 681 738 l 681 0 l 585 0 l 553 83 q 519 64 544 79 q 484 44 494 49 q 451 27 474 39 q 415 10 429 15 q 378 -1 400 6 q 290 -12 340 -12 q 123 58 181 -12 q 65 231 65 128 z "},"Ů":{"ha":935,"x_min":103,"x_max":858,"o":"m 359 1177 q 350 1193 359 1177 q 340 1249 340 1210 q 359 1320 340 1288 q 410 1372 378 1353 q 492 1392 443 1392 q 581 1350 540 1392 q 622 1259 622 1308 q 603 1177 622 1210 q 552 1126 585 1144 q 481 1107 519 1107 q 410 1126 443 1107 q 359 1177 378 1144 m 431 1299 q 420 1289 431 1299 q 410 1249 410 1278 q 431 1199 410 1219 q 481 1178 451 1178 q 532 1199 511 1178 q 553 1244 553 1219 q 543 1285 553 1268 q 487 1321 522 1321 q 431 1299 451 1321 m 485 -7 l 465 -7 q 249 28 301 -7 q 192 77 224 44 q 143 157 160 110 q 104 444 104 274 l 104 1017 l 232 1017 l 232 444 q 241 299 232 342 q 256 231 250 256 q 275 190 263 207 q 298 160 288 172 q 327 139 308 147 q 360 126 346 131 q 397 119 374 122 q 476 117 433 117 q 541 118 518 117 q 592 127 564 119 q 638 147 619 135 q 675 184 656 160 q 704 243 694 208 q 729 444 729 321 l 729 1017 l 858 1017 l 858 444 q 763 79 858 172 q 703 29 729 46 q 631 4 676 13 q 485 -7 572 -7 z "},"ů":{"ha":757,"x_min":64,"x_max":681,"o":"m 273 869 q 264 878 273 869 q 243 914 254 888 q 232 974 232 940 q 251 1041 232 1008 q 302 1093 269 1074 q 373 1113 335 1113 q 444 1093 411 1113 q 495 1041 476 1074 q 514 969 514 1008 q 495 898 514 931 q 444 847 476 865 q 378 828 411 828 q 318 839 344 828 q 273 869 292 850 m 322 1020 q 312 1009 322 1020 q 301 969 301 999 q 322 919 301 940 q 373 899 343 899 q 424 919 403 899 q 444 965 444 940 q 435 1006 444 989 q 378 1042 414 1042 q 322 1020 343 1042 m 65 231 l 65 738 l 193 738 l 193 229 q 224 136 193 167 q 315 106 254 106 q 424 122 376 106 q 553 181 471 138 l 553 738 l 681 738 l 681 0 l 585 0 l 553 83 q 519 64 544 79 q 484 44 494 49 q 451 27 474 39 q 415 10 429 15 q 378 -1 400 6 q 290 -12 340 -12 q 123 58 181 -12 q 65 231 65 128 z "},"Ű":{"ha":935,"x_min":103,"x_max":858,"o":"m 331 1107 l 474 1294 l 615 1294 l 435 1107 l 331 1107 m 526 1107 l 669 1294 l 811 1294 l 631 1107 l 526 1107 m 485 -7 l 465 -7 q 249 28 301 -7 q 192 77 224 44 q 143 157 160 110 q 104 444 104 274 l 104 1017 l 232 1017 l 232 444 q 241 299 232 342 q 256 231 250 256 q 275 190 263 207 q 298 160 288 172 q 327 139 308 147 q 360 126 346 131 q 397 119 374 122 q 476 117 433 117 q 541 118 518 117 q 592 127 564 119 q 638 147 619 135 q 675 184 656 160 q 704 243 694 208 q 729 444 729 321 l 729 1017 l 858 1017 l 858 444 q 763 79 858 172 q 703 29 729 46 q 631 4 676 13 q 485 -7 572 -7 z "},"ű":{"ha":757,"x_min":64,"x_max":704,"o":"m 222 828 l 365 1014 l 507 1014 l 326 828 l 222 828 m 418 828 l 561 1014 l 703 1014 l 522 828 l 418 828 m 65 231 l 65 738 l 193 738 l 193 229 q 224 136 193 167 q 315 106 254 106 q 424 122 376 106 q 553 181 471 138 l 553 738 l 681 738 l 681 0 l 585 0 l 553 83 q 519 64 544 79 q 484 44 494 49 q 451 27 474 39 q 415 10 429 15 q 378 -1 400 6 q 290 -12 340 -12 q 123 58 181 -12 q 65 231 65 128 z "},"Ų":{"ha":935,"x_min":103,"x_max":858,"o":"m 431 -115 q 515 -168 431 -168 l 515 -258 q 478 -261 500 -261 q 421 -249 456 -261 q 365 -207 386 -236 q 338 -135 338 -169 q 364 -65 338 -100 q 449 -4 390 -31 l 508 -4 q 431 -115 431 -69 m 485 -7 l 465 -7 q 249 28 301 -7 q 192 77 224 44 q 143 157 160 110 q 104 444 104 274 l 104 1017 l 232 1017 l 232 444 q 241 299 232 342 q 256 231 250 256 q 275 190 263 207 q 298 160 288 172 q 327 139 308 147 q 360 126 346 131 q 397 119 374 122 q 476 117 433 117 q 541 118 518 117 q 592 127 564 119 q 638 147 619 135 q 675 184 656 160 q 704 243 694 208 q 729 444 729 321 l 729 1017 l 858 1017 l 858 444 q 763 79 858 172 q 703 29 729 46 q 631 4 676 13 q 485 -7 572 -7 z "},"ų":{"ha":757,"x_min":64,"x_max":681,"o":"m 586 -111 q 669 -164 586 -164 l 669 -254 q 633 -257 654 -257 q 576 -244 611 -257 q 519 -203 542 -232 q 492 -131 492 -165 q 518 -61 492 -96 q 603 0 544 -26 l 664 0 q 586 -111 586 -65 m 65 231 l 65 738 l 193 738 l 193 229 q 224 136 193 167 q 315 106 254 106 q 424 122 376 106 q 553 181 471 138 l 553 738 l 681 738 l 681 0 l 585 0 l 553 83 q 519 64 544 79 q 484 44 494 49 q 451 27 474 39 q 415 10 429 15 q 378 -1 400 6 q 290 -12 340 -12 q 123 58 181 -12 q 65 231 65 128 z "},"Ŵ":{"ha":1347,"x_min":58,"x_max":1317,"o":"m 494 1101 l 653 1283 l 764 1283 l 907 1101 l 800 1101 l 706 1196 l 603 1101 l 494 1101 m 58 1017 l 196 1017 l 474 201 l 706 1017 l 847 1017 l 760 708 l 938 194 l 1178 1017 l 1315 1017 l 1008 0 l 872 0 l 696 492 l 542 0 l 406 0 l 58 1017 z "},"ŵ":{"ha":1121,"x_min":25,"x_max":1097,"o":"m 364 822 l 522 1004 l 633 1004 l 775 822 l 668 822 l 575 917 l 472 822 l 364 822 m 26 738 l 164 738 l 364 172 l 539 738 l 672 738 l 604 511 l 754 172 l 958 738 l 1096 738 l 826 0 l 692 0 l 543 336 l 432 0 l 292 0 l 26 738 z "},"Ŷ":{"ha":885,"x_min":58,"x_max":853,"o":"m 238 1101 l 397 1283 l 508 1283 l 650 1101 l 543 1101 l 449 1196 l 346 1101 l 238 1101 m 506 0 l 378 0 l 378 349 l 58 1017 l 197 1017 l 443 496 l 714 1017 l 853 1017 l 506 349 l 506 0 z "},"ŷ":{"ha":778,"x_min":26,"x_max":750,"o":"m 183 828 l 342 1011 l 453 1011 l 594 828 l 488 828 l 394 922 l 292 828 l 183 828 m 28 738 l 165 738 l 329 178 q 414 122 350 110 q 417 124 417 124 l 611 738 l 750 738 l 443 -233 l 340 -375 l 256 -375 l 379 0 q 199 163 246 0 l 28 738 z "},"Ÿ":{"ha":885,"x_min":58,"x_max":853,"o":"m 227 1128 q 216 1139 227 1128 q 206 1181 206 1150 q 227 1232 206 1211 q 279 1253 249 1253 q 331 1232 310 1253 q 351 1181 351 1211 q 331 1128 351 1150 q 279 1107 310 1107 q 227 1128 249 1107 m 581 1128 q 570 1139 581 1128 q 560 1181 560 1150 q 581 1232 560 1211 q 633 1253 603 1253 q 685 1232 664 1253 q 706 1181 706 1211 q 685 1128 706 1150 q 633 1107 664 1107 q 581 1128 603 1107 m 506 0 l 378 0 l 378 349 l 58 1017 l 197 1017 l 443 496 l 714 1017 l 853 1017 l 506 349 l 506 0 z "},"Ź":{"ha":779,"x_min":44,"x_max":735,"o":"m 338 1107 l 481 1294 l 622 1294 l 442 1107 l 338 1107 m 46 0 l 46 124 l 572 893 l 46 893 l 46 1017 l 735 1017 l 735 893 l 214 124 l 735 124 l 735 0 l 46 0 z "},"ź":{"ha":639,"x_min":39,"x_max":603,"o":"m 268 828 l 411 1014 l 553 1014 l 372 828 l 268 828 m 39 618 l 39 738 l 601 738 l 601 618 l 228 121 l 601 121 l 601 1 l 60 1 l 60 121 l 442 618 l 39 618 z "},"Ż":{"ha":779,"x_min":44,"x_max":735,"o":"m 318 1139 l 318 1222 q 351 1257 318 1257 l 429 1257 q 453 1247 444 1257 q 461 1222 461 1238 l 461 1139 q 429 1107 461 1107 l 351 1107 q 328 1116 338 1107 q 318 1139 318 1125 m 46 0 l 46 124 l 572 893 l 46 893 l 46 1017 l 735 1017 l 735 893 l 214 124 l 735 124 l 735 0 l 46 0 z "},"ż":{"ha":639,"x_min":39,"x_max":603,"o":"m 249 860 l 249 943 q 282 978 249 978 l 360 978 q 383 968 375 978 q 392 943 392 958 l 392 860 q 360 828 392 828 l 282 828 q 258 837 267 828 q 249 860 249 846 m 39 618 l 39 738 l 601 738 l 601 618 l 228 121 l 601 121 l 601 1 l 60 1 l 60 121 l 442 618 l 39 618 z "},"Ž":{"ha":779,"x_min":44,"x_max":735,"o":"m 183 1289 l 292 1289 l 397 1194 l 489 1289 l 596 1289 l 453 1107 l 342 1107 l 183 1289 m 46 0 l 46 124 l 572 893 l 46 893 l 46 1017 l 735 1017 l 735 893 l 214 124 l 735 124 l 735 0 l 46 0 z "},"ž":{"ha":639,"x_min":39,"x_max":603,"o":"m 114 1011 l 222 1011 l 328 917 l 419 1011 l 526 1011 l 382 828 l 271 828 l 114 1011 m 39 618 l 39 738 l 601 738 l 601 618 l 228 121 l 601 121 l 601 1 l 60 1 l 60 121 l 442 618 l 39 618 z "},"ƒ":{"ha":822,"x_min":25,"x_max":797,"o":"m 153 -167 q 286 40 247 -167 q 300 122 293 75 l 365 543 l 231 543 l 250 660 l 386 660 l 392 703 q 551 1079 439 1003 q 657 1111 597 1111 q 786 1082 722 1111 q 797 1076 796 1076 l 785 994 l 672 994 q 596 947 625 994 q 553 849 565 897 q 524 703 536 778 l 517 658 l 703 658 l 683 543 l 497 543 l 432 122 q 329 -207 393 -126 q 169 -283 269 -283 q 84 -270 129 -283 q 26 -249 39 -257 l 38 -167 l 153 -167 z "},"ˆ":{"ha":540,"x_min":64,"x_max":478,"o":"m 65 738 l 224 919 l 335 919 l 476 738 l 369 738 l 275 832 l 174 738 l 65 738 z "},"ˇ":{"ha":540,"x_min":64,"x_max":478,"o":"m 65 919 l 174 919 l 278 825 l 369 919 l 476 919 l 333 738 l 222 738 l 65 919 z "},"˘":{"ha":447,"x_min":64,"x_max":385,"o":"m 65 894 l 135 894 q 161 831 135 857 q 219 806 188 806 q 271 817 250 806 q 315 894 315 839 l 385 894 q 336 778 385 821 q 224 736 288 736 q 113 780 160 736 q 65 894 65 824 z "},"˙":{"ha":272,"x_min":64,"x_max":208,"o":"m 65 768 l 65 851 q 99 886 65 886 l 176 886 q 200 876 192 886 q 208 851 208 867 l 208 768 q 176 736 208 736 l 99 736 q 74 745 83 736 q 65 768 65 754 z "},"˚":{"ha":411,"x_min":64,"x_max":347,"o":"m 84 806 q 75 823 84 806 q 65 878 65 839 q 84 949 65 917 q 135 1001 103 982 q 206 1021 168 1021 q 277 1001 244 1021 q 328 949 310 982 q 347 878 347 917 q 328 806 347 839 q 277 755 310 774 q 206 736 244 736 q 135 755 168 736 q 84 806 103 774 m 212 950 q 194 950 212 950 q 156 928 176 950 q 135 883 135 907 q 144 842 135 858 q 201 807 165 807 q 257 828 236 807 q 278 873 278 849 q 268 914 278 897 q 212 950 247 950 z "},"˛":{"ha":304,"x_min":63,"x_max":242,"o":"m 157 -110 q 240 -164 157 -162 l 240 -253 q 203 -256 225 -256 q 147 -244 182 -256 q 90 -201 113 -232 q 63 -130 63 -164 q 89 -61 63 -96 q 174 0 115 -26 l 235 0 q 157 -110 157 -64 z "},"˜":{"ha":600,"x_min":64,"x_max":538,"o":"m 381 842 q 506 893 418 842 l 536 828 q 515 809 533 825 q 488 788 496 793 q 463 769 481 782 q 435 753 446 757 q 294 764 371 724 q 228 786 251 786 q 147 765 185 786 q 96 738 110 744 l 65 800 q 188 883 143 869 q 301 872 242 901 q 370 842 361 843 q 381 842 379 842 z "},"˝":{"ha":535,"x_min":25,"x_max":507,"o":"m 26 738 l 168 925 l 311 925 l 131 738 l 26 738 m 221 738 l 364 925 l 506 925 l 325 738 l 221 738 z "},"̸":{"ha":888,"x_min":90,"x_max":799,"o":"m 90 231 l 90 783 q 158 956 90 896 q 335 1017 226 1017 l 563 1017 q 785 874 740 1017 q 797 786 797 833 l 797 231 q 735 56 797 113 q 561 0 674 0 l 333 0 q 158 56 225 0 q 90 231 90 113 m 218 265 q 231 203 218 222 l 578 890 q 550 893 568 893 l 344 893 q 249 860 279 893 q 218 778 218 826 l 218 265 m 346 124 l 549 124 q 669 239 669 124 l 669 756 q 650 835 669 810 l 294 132 q 346 124 319 124 z "},"Ω":{"ha":1075,"x_min":83,"x_max":993,"o":"m 89 403 q 87 427 89 403 q 85 474 85 451 q 85 547 85 497 q 93 651 85 597 q 121 762 101 706 q 176 865 140 818 q 258 947 211 911 q 539 1026 361 1026 q 926 817 822 1026 q 985 533 985 700 q 944 269 985 356 q 822 125 904 186 l 992 111 l 992 0 l 667 0 l 667 128 q 842 351 814 228 q 857 535 857 421 q 539 903 857 903 q 213 528 213 903 q 224 366 213 418 q 257 282 236 314 q 407 128 306 207 l 407 0 l 93 0 l 93 114 l 269 128 q 119 292 154 201 q 89 403 93 356 z "},"π":{"ha":889,"x_min":25,"x_max":864,"o":"m 26 614 l 26 738 l 796 738 l 796 614 l 632 614 l 632 239 q 654 139 632 167 q 728 111 676 111 l 863 111 l 863 36 q 703 -7 800 -7 q 556 49 607 -7 q 504 236 504 106 l 504 614 l 269 614 l 269 0 l 142 0 l 142 614 l 26 614 z "},"Ḃ":{"ha":831,"x_min":103,"x_max":782,"o":"m 354 1135 l 354 1218 q 388 1253 354 1253 l 465 1253 q 489 1243 481 1253 q 497 1218 497 1233 l 497 1135 q 465 1103 497 1103 l 388 1103 q 364 1111 374 1103 q 354 1135 354 1119 m 104 0 l 104 1017 l 503 1017 q 631 993 576 1017 q 715 929 686 969 q 774 750 774 851 q 642 528 774 564 q 740 453 699 515 q 782 288 782 392 q 724 86 782 164 q 504 0 660 0 l 104 0 m 233 122 l 501 122 q 654 292 654 122 q 616 421 654 369 q 501 472 578 472 l 233 472 l 233 122 m 500 592 q 646 746 646 592 q 551 889 646 864 q 500 894 528 894 l 233 894 l 233 592 l 500 592 z "},"ḃ":{"ha":769,"x_min":69,"x_max":704,"o":"m 69 1217 l 69 1300 q 103 1335 69 1335 l 181 1335 q 204 1325 196 1335 q 213 1300 213 1315 l 213 1217 q 181 1185 213 1185 l 103 1185 q 79 1193 89 1185 q 69 1217 69 1201 m 76 0 l 76 1090 l 201 1090 l 201 694 q 335 734 260 719 q 466 749 410 749 q 567 727 522 749 q 637 672 611 706 q 678 586 663 638 q 704 365 704 500 q 461 -8 704 -8 q 319 22 399 -8 q 203 81 239 53 l 174 0 l 76 0 m 447 111 q 576 367 576 111 q 518 613 576 567 q 447 632 492 632 q 203 599 322 632 l 203 171 q 447 111 333 111 z "},"Ḋ":{"ha":914,"x_min":103,"x_max":856,"o":"m 369 1144 l 369 1228 q 403 1263 369 1263 l 481 1263 q 504 1253 496 1263 q 513 1228 513 1243 l 513 1144 q 481 1113 513 1113 l 403 1113 q 378 1122 388 1113 q 369 1144 369 1131 m 104 0 l 104 1017 l 496 1017 q 651 983 585 1017 q 756 900 718 950 q 817 779 793 850 q 856 504 856 661 q 736 106 856 246 q 634 28 696 57 q 496 0 572 0 l 104 0 m 232 125 l 492 125 q 628 178 574 125 q 728 494 728 274 q 668 805 728 715 q 492 894 608 894 l 232 894 l 232 125 z "},"ḋ":{"ha":769,"x_min":64,"x_max":699,"o":"m 554 1207 l 554 1290 q 588 1325 554 1325 l 665 1325 q 689 1315 681 1325 q 697 1290 697 1306 l 697 1207 q 665 1175 697 1175 l 588 1175 q 564 1183 574 1175 q 554 1207 554 1192 m 65 365 q 132 672 65 585 q 307 749 190 749 q 453 730 379 749 q 567 694 526 711 l 567 1090 l 693 1090 l 693 0 l 596 0 l 567 81 q 450 22 531 53 q 307 -8 369 -8 q 65 365 65 -8 m 193 367 q 321 111 193 111 q 567 171 435 111 l 567 599 q 321 632 446 632 q 251 613 278 632 q 193 367 193 567 z "},"Ḟ":{"ha":788,"x_min":103,"x_max":732,"o":"m 367 1135 l 367 1218 q 400 1253 367 1253 l 478 1253 q 501 1243 493 1253 q 510 1218 510 1233 l 510 1135 q 478 1103 510 1103 l 400 1103 q 376 1111 386 1103 q 367 1135 367 1119 m 103 0 l 103 826 q 155 972 103 928 q 281 1017 207 1017 q 496 1007 285 1017 q 732 994 707 997 l 732 892 l 303 892 q 239 867 251 892 q 231 814 231 847 l 231 569 l 674 556 l 674 451 l 231 438 l 231 0 l 103 0 z "},"ḟ":{"ha":557,"x_min":25,"x_max":532,"o":"m 282 1232 l 282 1315 q 315 1350 282 1350 l 393 1350 q 417 1340 408 1350 q 425 1315 425 1331 l 425 1232 q 393 1200 425 1200 l 315 1200 q 291 1208 300 1200 q 282 1232 282 1217 m 26 622 l 26 714 l 156 738 l 156 875 q 203 1042 156 989 q 339 1092 247 1092 q 531 1058 431 1092 l 531 978 l 371 979 q 353 979 368 979 q 321 972 339 979 q 294 946 303 965 q 283 863 283 919 l 283 738 l 478 738 l 478 622 l 283 622 l 283 0 l 156 0 l 156 622 l 26 622 z "},"Ṁ":{"ha":1129,"x_min":71,"x_max":1060,"o":"m 489 1139 l 489 1222 q 522 1257 489 1257 l 600 1257 q 624 1247 615 1257 q 632 1222 632 1238 l 632 1139 q 600 1107 632 1107 l 522 1107 q 498 1116 507 1107 q 489 1139 489 1125 m 71 0 l 144 1017 l 321 1017 l 564 213 l 801 1017 l 976 1017 l 1058 0 l 932 0 l 868 789 l 633 0 l 497 0 l 256 789 l 199 0 l 71 0 z "},"ṁ":{"ha":1238,"x_min":78,"x_max":1175,"o":"m 611 861 l 611 944 q 644 979 611 979 l 722 979 q 746 969 738 979 q 754 944 754 960 l 754 861 q 722 829 754 829 l 644 829 q 620 838 629 829 q 611 861 611 847 m 686 557 l 686 506 l 686 0 l 558 0 l 558 504 q 526 595 558 561 q 451 629 494 629 q 380 625 408 629 q 321 610 351 621 q 206 556 279 594 l 206 0 l 78 0 l 78 738 l 174 738 l 206 651 q 229 665 214 656 q 252 680 244 675 q 274 693 260 685 q 298 706 289 701 q 321 717 307 710 q 346 727 335 724 q 371 735 357 731 q 399 742 385 739 q 460 746 431 746 q 582 718 528 746 q 660 642 636 690 q 949 746 790 746 q 1112 678 1050 746 q 1174 503 1174 611 l 1174 0 l 1046 0 l 1046 504 q 992 614 1046 582 q 911 629 967 629 q 686 557 792 629 z "},"Ṗ":{"ha":814,"x_min":79,"x_max":757,"o":"m 331 1147 l 331 1231 q 364 1265 331 1265 l 442 1265 q 465 1256 457 1265 q 474 1231 474 1246 l 474 1147 q 442 1115 474 1115 l 364 1115 q 340 1124 350 1115 q 331 1147 331 1133 m 81 0 l 81 1017 l 503 1017 q 757 717 757 1017 q 600 414 757 454 q 535 403 561 403 q 486 403 508 403 q 339 416 464 404 q 208 431 214 428 l 208 0 l 81 0 m 208 525 l 499 525 q 589 557 556 525 q 628 717 628 596 q 581 868 626 833 q 499 894 544 894 l 208 894 l 208 525 z "},"ṗ":{"ha":769,"x_min":78,"x_max":707,"o":"m 340 875 l 340 958 q 374 993 340 993 l 451 993 q 475 983 467 993 q 483 958 483 974 l 483 875 q 451 843 483 843 l 374 843 q 349 852 358 843 q 340 875 340 861 m 78 -375 l 78 738 l 175 738 l 204 658 q 339 722 257 699 q 471 746 421 746 q 564 724 521 746 q 633 668 607 703 q 676 583 660 633 q 706 401 706 496 q 701 256 706 307 q 681 153 696 206 q 639 67 665 101 q 464 -11 581 -11 q 338 3 413 -11 q 203 42 263 18 l 203 -375 l 78 -375 m 450 106 q 519 125 493 106 q 578 369 578 171 q 450 626 578 626 q 204 567 335 626 l 204 139 q 450 106 324 106 z "},"Ṡ":{"ha":813,"x_min":83,"x_max":756,"o":"m 344 1153 l 344 1236 q 378 1271 344 1271 l 456 1271 q 478 1261 469 1271 q 486 1236 486 1251 l 486 1153 q 456 1121 486 1121 l 378 1121 q 353 1129 363 1121 q 344 1153 344 1138 m 85 683 l 85 774 q 164 975 85 919 q 365 1025 236 1025 q 547 1013 429 1025 q 719 990 665 1000 l 719 888 q 528 896 661 892 q 352 901 379 901 q 304 899 325 901 q 258 885 283 897 q 213 769 213 861 l 213 689 q 244 587 213 610 q 344 564 275 564 l 532 564 q 756 317 756 564 l 756 229 q 632 14 756 64 q 487 -11 569 -11 q 289 1 404 -11 q 115 25 174 13 l 115 128 q 378 113 268 113 q 504 114 488 113 q 546 122 521 115 q 588 139 571 128 q 628 228 628 168 l 628 311 q 604 403 628 371 q 519 436 581 436 l 336 436 q 107 550 156 436 q 85 683 85 604 z "},"ṡ":{"ha":703,"x_min":51,"x_max":653,"o":"m 306 874 l 306 957 q 339 992 306 992 l 417 992 q 440 982 432 992 q 449 957 449 972 l 449 874 q 417 842 449 842 l 339 842 q 315 851 325 842 q 306 874 306 860 m 51 493 l 51 557 q 96 696 51 647 q 229 744 140 744 q 442 736 318 744 q 614 718 567 728 l 614 626 l 260 626 q 190 606 203 626 q 179 554 179 589 l 179 499 q 199 440 179 451 q 260 428 218 428 l 467 428 q 571 403 528 428 q 651 244 651 357 l 651 175 q 471 -7 651 -7 q 260 3 400 -7 q 82 24 119 14 l 82 113 l 454 113 q 524 179 524 113 l 524 238 q 508 290 524 274 q 454 307 493 307 l 247 307 q 99 348 146 307 q 51 493 51 389 z "},"Ṫ":{"ha":808,"x_min":57,"x_max":776,"o":"m 333 1139 l 333 1222 q 367 1257 333 1257 l 444 1257 q 468 1247 460 1257 q 476 1222 476 1238 l 476 1139 q 444 1107 476 1107 l 367 1107 q 342 1116 351 1107 q 333 1139 333 1125 m 57 893 l 57 1017 l 775 1017 l 775 893 l 476 893 l 476 0 l 349 0 l 349 893 l 57 893 z "},"ṫ":{"ha":526,"x_min":25,"x_max":489,"o":"m 161 1061 l 161 1144 q 194 1179 161 1179 l 272 1179 q 296 1169 288 1179 q 304 1144 304 1160 l 304 1061 q 272 1029 304 1029 l 194 1029 q 170 1038 179 1029 q 161 1061 161 1046 m 26 624 l 26 710 l 158 739 l 186 944 l 286 944 l 286 739 l 488 739 l 488 624 l 286 624 l 286 272 q 305 158 286 190 q 361 117 324 126 q 476 88 467 88 l 476 1 l 342 1 q 158 264 158 1 l 158 624 l 26 624 z "},"Ẁ":{"ha":1347,"x_min":58,"x_max":1317,"o":"m 465 1288 l 608 1288 l 750 1101 l 646 1101 l 465 1288 m 58 1017 l 196 1017 l 474 201 l 706 1017 l 847 1017 l 760 708 l 938 194 l 1178 1017 l 1315 1017 l 1008 0 l 872 0 l 696 492 l 542 0 l 406 0 l 58 1017 z "},"ẁ":{"ha":1121,"x_min":25,"x_max":1097,"o":"m 335 1008 l 478 1008 l 619 822 l 515 822 l 335 1008 m 26 738 l 164 738 l 364 172 l 539 738 l 672 738 l 604 511 l 754 172 l 958 738 l 1096 738 l 826 0 l 692 0 l 543 336 l 432 0 l 292 0 l 26 738 z "},"Ẃ":{"ha":1347,"x_min":58,"x_max":1317,"o":"m 647 1101 l 790 1288 l 932 1288 l 751 1101 l 647 1101 m 58 1017 l 196 1017 l 474 201 l 706 1017 l 847 1017 l 760 708 l 938 194 l 1178 1017 l 1315 1017 l 1008 0 l 872 0 l 696 492 l 542 0 l 406 0 l 58 1017 z "},"ẃ":{"ha":1121,"x_min":25,"x_max":1097,"o":"m 517 822 l 658 1008 l 801 1008 l 621 822 l 517 822 m 26 738 l 164 738 l 364 172 l 539 738 l 672 738 l 604 511 l 754 172 l 958 738 l 1096 738 l 826 0 l 692 0 l 543 336 l 432 0 l 292 0 l 26 738 z "},"Ẅ":{"ha":1347,"x_min":58,"x_max":1317,"o":"m 469 1123 q 458 1134 469 1123 q 447 1175 447 1144 q 469 1226 447 1206 q 521 1247 490 1247 q 572 1226 551 1247 q 593 1175 593 1206 q 572 1123 593 1144 q 521 1101 551 1101 q 469 1123 490 1101 m 823 1123 q 812 1134 823 1123 q 801 1175 801 1144 q 823 1226 801 1206 q 875 1247 844 1247 q 926 1226 906 1247 q 947 1175 947 1206 q 926 1123 947 1144 q 875 1101 906 1101 q 823 1123 844 1101 m 58 1017 l 196 1017 l 474 201 l 706 1017 l 847 1017 l 760 708 l 938 194 l 1178 1017 l 1315 1017 l 1008 0 l 872 0 l 696 492 l 542 0 l 406 0 l 58 1017 z "},"ẅ":{"ha":1121,"x_min":25,"x_max":1097,"o":"m 340 844 q 329 855 340 844 q 318 896 318 865 q 340 947 318 926 q 392 968 361 968 q 443 947 422 968 q 464 896 464 926 q 443 844 464 865 q 392 822 422 822 q 340 844 361 822 m 746 822 q 731 822 746 822 q 694 844 715 822 q 672 888 672 865 q 678 924 672 911 q 694 947 683 938 q 746 968 715 968 q 797 947 776 968 q 818 896 818 926 q 797 844 818 865 q 746 822 776 822 m 26 738 l 164 738 l 364 172 l 539 738 l 672 738 l 604 511 l 754 172 l 958 738 l 1096 738 l 826 0 l 692 0 l 543 336 l 432 0 l 292 0 l 26 738 z "},"Ỳ":{"ha":885,"x_min":58,"x_max":853,"o":"m 222 1294 l 365 1294 l 508 1107 l 403 1107 l 222 1294 m 506 0 l 378 0 l 378 349 l 58 1017 l 197 1017 l 443 496 l 714 1017 l 853 1017 l 506 349 l 506 0 z "},"ỳ":{"ha":778,"x_min":26,"x_max":750,"o":"m 168 1014 l 310 1014 l 453 828 l 349 828 l 168 1014 m 28 738 l 165 738 l 329 178 q 414 122 350 110 q 417 124 417 124 l 611 738 l 750 738 l 443 -233 l 340 -375 l 256 -375 l 379 0 q 199 163 246 0 l 28 738 z "},"–":{"ha":713,"x_min":28,"x_max":685,"o":"m 28 339 l 28 460 l 685 460 l 685 339 l 28 339 z "},"—":{"ha":1022,"x_min":28,"x_max":994,"o":"m 28 342 l 28 463 l 994 463 l 994 342 l 28 342 z "},"‘":{"ha":371,"x_min":103,"x_max":268,"o":"m 104 758 l 104 908 q 120 978 104 950 q 158 1015 136 1006 q 215 1031 194 1031 q 243 1031 236 1031 l 258 1028 l 258 971 q 257 971 258 971 q 213 925 213 971 l 213 889 l 229 889 q 267 851 267 889 l 267 758 q 229 717 267 717 l 139 717 q 104 758 104 717 z "},"’":{"ha":371,"x_min":103,"x_max":268,"o":"m 104 897 l 104 990 q 142 1031 104 1031 l 232 1031 q 267 990 267 1031 l 267 840 q 251 769 267 797 q 213 732 235 742 q 154 717 175 717 q 128 717 133 717 l 113 719 l 113 775 q 114 775 113 775 q 158 824 158 775 l 158 858 l 142 858 q 104 897 104 858 z "},"‚":{"ha":371,"x_min":103,"x_max":268,"o":"m 104 38 l 104 131 q 142 172 104 172 l 232 172 q 267 131 267 172 l 267 -19 q 251 -90 267 -62 q 213 -128 235 -118 q 155 -143 175 -143 q 128 -143 135 -143 l 113 -140 l 113 -83 q 114 -83 113 -83 q 158 -36 158 -83 l 158 -1 l 142 -1 q 115 8 125 -1 q 104 38 104 18 z "},"“":{"ha":583,"x_min":94,"x_max":490,"o":"m 326 758 l 326 908 q 342 978 326 950 q 381 1015 358 1006 q 439 1031 418 1031 q 465 1029 460 1031 l 482 1028 l 482 971 q 479 971 481 971 q 435 925 435 971 l 435 889 l 451 889 q 478 879 468 889 q 489 851 489 869 l 489 758 q 451 717 489 717 l 363 717 q 326 758 326 717 m 94 758 l 94 908 q 110 978 94 950 q 150 1015 126 1006 q 207 1031 186 1031 q 233 1029 228 1031 l 250 1028 l 250 971 q 247 971 249 971 q 203 925 203 971 l 203 889 l 219 889 q 258 851 258 889 l 258 758 q 219 717 258 717 l 131 717 q 94 758 94 717 z "},"”":{"ha":583,"x_min":94,"x_max":490,"o":"m 128 717 q 101 719 117 717 l 101 775 q 104 775 103 775 q 149 822 149 775 l 149 858 l 132 858 q 105 868 115 858 q 94 896 94 878 l 94 989 q 132 1031 94 1031 l 221 1031 q 258 989 258 1031 l 258 839 q 128 717 258 717 m 360 717 q 333 719 349 717 l 333 775 q 336 775 335 775 q 381 822 381 775 l 381 858 l 364 858 q 326 896 326 858 l 326 989 q 364 1031 326 1031 l 453 1031 q 489 989 489 1031 l 489 839 q 360 717 489 717 z "},"„":{"ha":583,"x_min":94,"x_max":490,"o":"m 129 -143 q 101 -140 118 -143 l 101 -83 q 104 -83 103 -83 q 149 -36 149 -83 l 149 -1 l 132 -1 q 105 8 115 -1 q 94 38 94 18 l 94 131 q 132 172 94 172 l 221 172 q 258 131 258 172 l 258 -19 q 129 -143 258 -143 m 361 -143 q 333 -140 350 -143 l 333 -83 q 336 -83 335 -83 q 381 -36 381 -83 l 381 -1 l 364 -1 q 337 8 347 -1 q 326 38 326 18 l 326 131 q 364 172 326 172 l 453 172 q 489 131 489 172 l 489 -19 q 361 -143 489 -143 z "},"†":{"ha":554,"x_min":25,"x_max":529,"o":"m 26 665 l 26 767 l 211 781 l 222 1069 l 333 1069 l 346 781 l 529 767 l 529 665 l 346 650 l 332 -100 l 221 -100 l 211 650 l 26 665 z "},"‡":{"ha":579,"x_min":25,"x_max":529,"o":"m 26 231 l 26 332 l 213 347 l 211 650 l 26 665 l 26 767 l 211 781 l 224 1069 l 333 1069 l 346 781 l 529 767 l 529 665 l 346 650 l 342 347 l 529 332 l 529 231 l 338 215 l 332 -100 l 221 -100 l 215 215 l 26 231 z "},"•":{"ha":432,"x_min":110,"x_max":322,"o":"m 110 467 l 110 592 q 156 640 110 640 l 274 640 q 322 592 322 640 l 322 467 q 274 422 322 422 l 156 422 q 122 434 135 422 q 110 467 110 446 z "},"…":{"ha":1129,"x_min":218,"x_max":903,"o":"m 747 32 l 747 124 q 781 158 747 158 l 867 158 q 901 124 901 158 l 901 32 q 867 0 901 0 l 781 0 q 757 9 767 0 q 747 32 747 18 m 483 32 l 483 124 q 517 158 483 158 l 603 158 q 638 124 638 158 l 638 32 q 603 0 638 0 l 517 0 q 492 9 501 0 q 483 32 483 18 m 218 32 l 218 124 q 251 158 218 158 l 338 158 q 372 124 372 158 l 372 32 q 338 0 372 0 l 251 0 q 228 9 238 0 q 218 32 218 18 z "},"‰":{"ha":1917,"x_min":54,"x_max":1864,"o":"m 54 661 l 54 842 q 94 975 54 933 q 236 1017 135 1017 l 376 1017 q 515 975 475 1017 q 554 842 554 933 l 554 661 q 515 526 554 568 q 374 485 475 485 l 233 485 q 94 526 133 485 q 54 661 54 568 m 157 667 q 174 603 157 619 q 239 588 192 588 l 368 588 q 437 604 422 588 q 451 667 451 621 l 451 835 q 435 898 451 882 q 371 914 418 914 l 242 914 q 172 898 188 914 q 157 835 157 882 l 157 667 m 308 0 l 919 1017 l 1029 1017 l 419 0 l 308 0 m 775 179 l 775 360 q 813 492 775 450 q 956 535 853 535 l 1096 535 q 1235 493 1196 535 q 1275 360 1275 451 l 1275 179 q 1235 44 1275 86 q 1093 3 1196 3 l 953 3 q 815 45 854 3 q 775 179 775 88 m 878 185 q 894 122 878 139 q 958 106 911 106 l 1088 106 q 1157 122 1142 106 q 1172 185 1172 139 l 1172 353 q 1155 416 1172 400 q 1090 432 1138 432 l 961 432 q 893 416 908 432 q 878 353 878 400 l 878 185 m 1363 179 l 1363 360 q 1403 493 1363 451 q 1544 535 1443 535 l 1685 535 q 1823 493 1783 535 q 1863 360 1863 451 l 1863 179 q 1823 44 1863 86 q 1682 3 1783 3 l 1542 3 q 1403 45 1443 3 q 1363 179 1363 88 m 1465 185 q 1497 113 1465 125 q 1547 106 1515 106 l 1676 106 q 1744 120 1732 106 q 1758 148 1756 135 q 1760 185 1760 161 l 1760 353 q 1743 416 1760 400 q 1679 432 1726 432 l 1550 432 q 1472 401 1483 432 q 1465 353 1465 385 l 1465 185 z "},"‹":{"ha":494,"x_min":64,"x_max":439,"o":"m 65 492 l 351 774 l 432 693 l 226 492 l 439 285 l 358 203 l 65 492 z "},"›":{"ha":494,"x_min":64,"x_max":439,"o":"m 65 285 l 276 492 l 71 693 l 153 774 l 439 492 l 146 203 l 65 285 z "},"⁄":{"ha":357,"x_min":-118,"x_max":475,"o":"m -117 0 l 371 1025 l 474 1025 l -12 0 l -117 0 z "},"⁰":{"ha":649,"x_min":78,"x_max":571,"o":"m 246 1214 l 408 1214 q 569 1058 569 1214 l 569 708 q 528 585 569 618 q 408 553 488 553 l 246 553 q 111 596 149 553 q 78 708 78 633 l 78 1057 q 121 1177 78 1140 q 246 1214 164 1214 m 183 721 q 199 667 183 681 q 260 653 214 653 l 393 653 q 454 667 440 653 q 468 721 468 682 l 468 1046 q 453 1099 468 1083 q 394 1114 438 1114 l 258 1114 q 197 1097 211 1114 q 183 1046 183 1079 l 183 721 z "},"⁴":{"ha":583,"x_min":19,"x_max":565,"o":"m 383 817 l 383 978 l 421 1044 l 488 1044 l 488 817 l 565 817 l 565 732 l 488 715 l 488 554 l 383 554 l 383 711 l 51 711 l 21 753 l 296 1214 l 410 1214 l 172 817 l 383 817 z "},"⁵":{"ha":581,"x_min":71,"x_max":529,"o":"m 178 940 q 304 969 207 969 q 345 968 319 969 q 375 967 371 967 q 491 920 453 965 q 529 797 529 875 l 529 708 q 486 586 529 625 q 369 547 443 547 q 265 547 296 547 q 71 567 176 549 l 71 649 l 357 649 q 425 719 425 649 l 425 789 q 415 844 425 833 q 358 868 394 868 l 217 868 q 158 806 158 868 l 72 806 l 93 1214 l 508 1214 l 508 1114 l 188 1114 l 178 940 z "},"⁶":{"ha":610,"x_min":71,"x_max":558,"o":"m 145 1183 q 157 1194 145 1183 q 190 1212 168 1204 q 242 1222 213 1219 q 338 1225 272 1225 q 535 1204 403 1225 l 535 1122 l 264 1122 q 189 1051 204 1122 q 175 928 176 997 q 383 947 314 947 q 483 936 451 947 q 529 903 514 925 q 557 801 557 864 l 557 703 q 516 590 557 628 q 404 553 475 553 l 257 553 q 124 617 164 553 q 79 750 88 675 q 71 860 71 825 q 72 938 71 896 q 82 1038 72 981 q 107 1129 92 1096 q 145 1183 122 1163 m 175 849 q 185 743 175 774 q 203 693 194 713 q 265 654 224 654 l 392 654 q 440 669 425 654 q 454 718 454 683 l 454 793 q 440 838 454 826 q 393 849 426 849 l 175 849 z "},"⁷":{"ha":521,"x_min":18,"x_max":501,"o":"m 19 1117 l 19 1217 l 474 1217 l 500 1168 l 247 553 l 132 553 l 365 1117 l 19 1117 z "},"⁸":{"ha":646,"x_min":85,"x_max":561,"o":"m 86 1003 l 86 1058 q 130 1185 86 1149 q 253 1221 174 1221 l 406 1221 q 543 1154 508 1221 q 561 1060 561 1118 l 561 1006 q 525 915 564 946 q 493 901 511 906 q 544 856 528 896 q 561 779 561 817 l 561 700 q 519 583 561 615 q 410 551 478 551 l 244 551 q 113 599 146 551 q 86 699 86 638 l 86 774 q 163 875 86 854 q 86 1003 86 903 m 189 710 q 203 664 189 676 q 256 651 217 651 l 396 651 q 457 710 457 651 l 457 772 q 397 839 457 839 l 254 839 q 189 772 189 839 l 189 710 m 189 1007 q 254 938 189 938 l 392 938 q 447 961 436 938 q 457 1007 457 979 l 457 1047 q 441 1107 457 1092 q 386 1122 425 1122 l 264 1122 q 205 1107 221 1122 q 189 1047 189 1092 l 189 1007 z "},"⁹":{"ha":610,"x_min":58,"x_max":546,"o":"m 58 974 l 58 1074 q 100 1186 58 1149 q 211 1224 142 1224 l 358 1224 q 510 1125 468 1224 q 544 885 544 1043 q 472 590 544 656 q 383 552 436 557 q 258 547 331 547 q 81 568 185 547 l 81 651 l 351 651 q 439 797 431 651 q 442 847 440 818 q 213 826 301 826 q 91 867 124 826 q 58 974 58 907 m 163 983 q 176 938 163 950 q 222 926 190 926 l 442 926 q 354 1122 442 1122 l 224 1122 q 176 1107 190 1122 q 163 1057 163 1092 l 163 983 z "},"₀":{"ha":649,"x_min":78,"x_max":571,"o":"m 246 385 l 408 385 q 569 228 569 385 l 569 -121 q 528 -244 569 -211 q 408 -278 488 -278 l 246 -278 q 90 -203 121 -278 q 78 -121 78 -169 l 78 226 q 121 348 78 311 q 246 385 164 385 m 183 -108 q 199 -163 183 -149 q 260 -178 214 -178 l 393 -178 q 454 -162 440 -178 q 468 -108 468 -147 l 468 215 q 453 268 468 253 q 394 283 438 283 l 258 283 q 197 267 211 283 q 183 215 183 250 l 183 -108 z "},"₁":{"ha":375,"x_min":19,"x_max":293,"o":"m 292 386 l 292 -276 l 189 -276 l 189 281 l 21 236 l 21 311 l 189 386 l 292 386 z "},"₂":{"ha":543,"x_min":39,"x_max":490,"o":"m 42 294 q 40 317 40 294 q 40 354 40 340 l 42 374 q 303 396 207 396 q 489 203 489 396 q 433 42 489 124 q 363 -49 392 -18 q 320 -92 333 -79 q 281 -128 307 -106 q 224 -176 254 -151 l 489 -176 l 489 -276 l 46 -276 l 46 -182 q 100 -140 51 -176 q 175 -83 149 -104 q 247 -22 201 -62 q 317 51 292 19 q 382 191 382 133 q 358 272 382 249 q 276 294 335 294 l 42 294 z "},"₃":{"ha":565,"x_min":39,"x_max":489,"o":"m 258 -282 q 44 -257 117 -282 l 46 -183 l 286 -182 q 363 -165 342 -182 q 385 -106 385 -149 l 385 -78 q 292 10 385 7 l 100 17 l 100 96 l 292 106 q 386 186 386 110 l 386 214 q 292 289 386 289 l 39 289 l 39 363 q 260 389 113 389 q 318 389 283 389 q 446 342 403 389 q 489 225 489 296 l 489 178 q 469 98 489 131 q 418 54 449 65 q 489 -79 489 15 l 489 -115 q 448 -239 489 -196 q 311 -282 407 -282 l 258 -282 z "},"₄":{"ha":585,"x_min":19,"x_max":567,"o":"m 385 -14 l 385 147 l 422 215 l 489 215 l 489 -14 l 567 -14 l 567 -99 l 489 -114 l 489 -276 l 385 -276 l 385 -118 l 51 -118 l 21 -76 l 296 385 l 411 385 l 175 -14 l 385 -14 z "},"₅":{"ha":581,"x_min":71,"x_max":531,"o":"m 178 111 q 304 139 208 139 q 346 138 319 139 q 376 136 372 136 q 492 90 454 136 q 531 -33 531 44 l 531 -122 q 487 -244 531 -204 q 377 -283 443 -283 q 290 -283 311 -283 q 228 -281 269 -283 q 71 -262 161 -278 l 71 -181 l 358 -181 q 426 -110 426 -181 l 426 -42 q 423 0 426 -8 q 415 16 419 8 q 403 28 410 24 q 360 38 385 38 l 218 38 q 160 -22 160 38 l 72 -22 l 93 385 l 508 385 l 508 283 l 188 283 l 178 111 z "},"₆":{"ha":610,"x_min":71,"x_max":558,"o":"m 190 382 q 248 392 213 390 q 356 394 283 394 q 535 375 429 394 l 535 293 l 264 293 q 189 221 204 293 q 175 99 176 168 q 383 118 314 118 q 483 106 451 118 q 529 72 514 94 q 557 -28 557 33 l 557 -128 q 516 -239 557 -201 q 404 -276 475 -276 l 257 -276 q 106 -179 147 -276 q 71 60 71 -97 q 190 382 71 342 m 175 19 q 222 -160 175 -117 q 265 -176 240 -176 l 392 -176 q 440 -161 425 -176 q 454 -111 454 -146 l 454 -37 q 440 8 454 -4 q 393 19 426 19 l 175 19 z "},"₇":{"ha":521,"x_min":18,"x_max":501,"o":"m 19 286 l 19 388 l 474 388 l 500 338 l 247 -276 l 132 -276 l 365 286 l 19 286 z "},"₈":{"ha":646,"x_min":85,"x_max":561,"o":"m 86 -56 q 163 46 86 25 q 86 172 86 72 l 86 229 q 130 356 86 319 q 253 392 174 392 l 406 392 q 543 324 508 392 q 561 229 561 288 l 561 176 q 554 128 563 153 q 493 72 539 81 q 544 26 528 65 q 561 -51 561 -12 l 561 -131 q 519 -247 561 -214 q 410 -279 478 -279 l 244 -279 q 113 -232 146 -279 q 86 -132 86 -192 l 86 -56 m 256 -179 l 396 -179 q 457 -121 457 -179 l 457 -57 q 397 8 457 8 l 254 8 q 205 -6 221 8 q 189 -57 189 -21 l 189 -121 q 203 -166 189 -153 q 256 -179 217 -179 m 189 176 q 254 107 189 107 l 392 107 q 447 131 436 107 q 457 176 457 150 l 457 218 q 441 278 457 263 q 386 293 425 293 l 264 293 q 205 277 221 293 q 189 218 189 261 l 189 176 z "},"₉":{"ha":610,"x_min":58,"x_max":546,"o":"m 58 144 l 58 243 q 100 356 58 318 q 211 393 142 393 l 358 393 q 510 294 468 393 q 544 56 544 214 q 472 -239 544 -174 q 384 -277 436 -272 q 260 -282 332 -282 q 81 -261 188 -282 l 81 -179 l 351 -179 q 439 -32 431 -179 q 442 17 440 -11 q 213 -3 301 -3 q 91 37 124 -3 q 58 144 58 76 m 163 153 q 189 100 163 110 q 222 96 201 96 l 442 96 q 354 293 442 293 l 224 293 q 176 278 190 293 q 163 228 163 263 l 163 153 z "},"€":{"ha":850,"x_min":25,"x_max":826,"o":"m 299 994 q 315 1001 299 994 q 375 1018 331 1008 q 474 1028 419 1028 q 636 1014 528 1028 q 819 983 744 1000 l 819 886 q 513 906 599 906 q 386 894 426 906 q 324 863 346 882 q 289 808 301 843 q 272 656 272 756 l 597 644 l 597 572 l 272 564 l 272 436 l 597 425 l 597 353 q 317 344 404 349 l 272 342 q 486 111 272 111 q 769 131 603 111 l 825 136 l 825 42 q 474 -8 668 -8 q 240 72 328 -8 q 144 342 144 161 l 26 353 l 26 425 l 144 436 l 144 564 l 26 575 l 26 642 l 144 656 q 144 673 144 657 q 144 704 144 689 q 147 751 144 719 q 156 805 150 783 q 172 858 161 826 q 199 910 183 889 q 241 956 215 932 q 299 994 267 981 z "},"ℓ":{"ha":564,"x_min":39,"x_max":485,"o":"m 118 861 q 169 982 119 938 q 301 1026 219 1026 q 433 968 383 1026 q 483 812 483 910 q 417 602 483 714 q 246 400 351 490 l 246 275 q 263 153 247 181 q 338 114 279 125 q 395 99 338 113 q 456 86 453 86 l 456 0 q 419 0 456 0 q 344 0 382 0 l 308 0 q 162 61 206 1 q 118 260 118 121 l 118 317 q 75 289 100 303 l 39 347 q 118 425 74 378 l 118 861 m 363 819 q 332 899 363 879 q 294 911 314 911 q 260 897 275 911 q 246 856 246 883 l 246 558 q 363 819 363 713 z "},"№":{"ha":1490,"x_min":93,"x_max":1439,"o":"m 93 889 q 117 970 93 936 q 174 1014 142 1004 q 226 1024 207 1024 q 326 996 289 1024 q 376 926 363 968 l 701 136 q 722 121 708 118 q 735 140 735 124 l 735 789 q 799 965 735 908 q 968 1021 864 1021 l 1253 1019 q 1398 958 1357 1017 q 1439 774 1439 900 q 1397 589 1439 647 q 1249 529 1354 531 l 1165 529 q 1016 597 1056 531 q 976 846 976 663 l 1079 846 q 1117 646 1079 676 q 1142 632 1131 635 q 1174 629 1154 629 l 1240 629 q 1306 647 1286 629 q 1336 768 1336 675 q 1301 901 1336 881 q 1238 914 1281 913 q 997 915 1093 915 q 863 783 863 915 l 863 128 q 769 1 863 38 q 733 -8 747 -8 q 704 -8 719 -8 q 663 3 689 -7 q 585 90 607 22 l 256 889 q 235 900 250 904 q 221 879 221 896 l 221 0 l 93 0 l 93 889 z "},"™":{"ha":965,"x_min":25,"x_max":947,"o":"m 26 922 l 26 1017 l 394 1017 l 394 922 l 260 922 l 260 532 l 161 532 l 161 922 l 26 922 m 440 532 l 482 1017 l 581 1017 l 697 700 l 797 1017 l 900 1017 l 947 532 l 847 532 l 824 806 l 742 532 l 657 532 l 560 807 l 539 532 l 440 532 z "},"℮":{"ha":992,"x_min":78,"x_max":915,"o":"m 496 0 q 191 105 304 0 q 78 368 78 210 q 194 636 78 526 q 326 715 254 689 q 492 740 397 740 q 656 718 588 740 q 785 649 724 696 q 914 358 906 556 l 249 358 q 244 358 247 358 q 238 358 240 358 q 232 343 232 357 l 232 158 q 279 97 232 132 q 496 29 371 29 q 644 62 572 29 q 761 146 715 94 l 839 146 q 680 31 758 61 q 496 0 601 0 m 740 382 l 753 382 q 757 383 756 382 q 758 392 758 383 l 758 576 q 671 667 758 621 q 494 714 583 714 q 391 699 442 714 q 307 662 340 683 q 253 619 274 640 q 232 585 232 597 l 232 394 q 235 384 232 386 q 244 382 238 382 l 740 382 z "},"∂":{"ha":892,"x_min":74,"x_max":788,"o":"m 249 27 q 210 44 249 27 q 123 135 172 61 q 74 315 74 210 q 115 494 74 419 q 426 646 199 646 q 657 567 565 646 q 542 875 644 815 q 413 904 490 904 q 268 883 336 904 q 156 833 200 861 l 124 919 q 215 976 181 957 q 410 1028 307 1028 q 786 538 786 1028 q 701 161 786 315 q 586 38 658 83 q 419 -7 514 -7 q 249 27 325 -7 m 440 522 q 377 522 440 522 q 258 467 314 522 q 201 317 201 413 q 264 169 201 222 q 419 117 326 117 q 564 188 510 117 q 650 413 631 275 q 656 472 654 446 q 440 522 565 522 z "},"∆":{"ha":1001,"x_min":25,"x_max":976,"o":"m 26 0 l 458 1017 l 561 1017 l 976 0 l 26 0 m 213 122 l 804 122 l 514 839 l 213 122 z "},"∏":{"ha":896,"x_min":25,"x_max":872,"o":"m 26 893 l 26 1017 l 871 1017 l 871 893 l 754 893 l 754 0 l 626 0 l 626 893 l 269 893 l 269 0 l 142 0 l 142 893 l 26 893 z "},"∑":{"ha":807,"x_min":51,"x_max":783,"o":"m 51 1017 l 782 1017 l 782 893 l 207 893 l 503 375 l 207 -150 l 782 -150 l 782 -278 l 51 -278 l 51 -150 l 349 375 l 51 893 l 51 1017 z "},"−":{"ha":633,"x_min":28,"x_max":606,"o":"m 28 435 l 28 554 l 606 554 l 606 435 l 28 435 z "},"√":{"ha":883,"x_min":25,"x_max":858,"o":"m 26 378 l 26 501 l 222 501 l 386 176 l 726 1111 l 858 1111 l 456 0 l 336 0 l 140 378 l 26 378 z "},"∞":{"ha":1082,"x_min":64,"x_max":1018,"o":"m 113 306 q 100 323 113 306 q 76 382 88 340 q 65 474 65 424 q 74 563 65 524 q 108 639 83 603 q 296 714 157 714 q 540 572 444 714 q 647 675 582 636 q 783 714 711 714 q 903 694 856 714 q 975 639 951 675 q 1018 474 1018 574 q 969 307 1018 372 q 788 235 915 235 q 645 268 706 235 q 539 381 585 301 q 435 268 494 301 q 303 235 375 235 q 185 253 232 235 q 113 306 139 272 m 197 563 q 192 553 197 563 q 183 524 186 543 q 181 459 181 506 q 205 380 181 413 q 294 347 229 347 q 402 382 358 347 q 485 474 446 417 q 400 564 451 526 q 303 601 349 601 q 233 592 258 601 q 197 563 208 583 m 783 347 q 903 474 903 347 q 888 557 903 532 q 849 592 874 582 q 778 601 824 601 q 681 564 732 601 q 597 474 631 526 q 724 358 658 382 q 783 347 753 347 z "},"∫":{"ha":613,"x_min":25,"x_max":588,"o":"m 26 -167 l 140 -167 q 197 -139 178 -167 q 226 -76 221 -107 q 235 -27 232 -46 q 239 22 238 -8 q 242 122 242 68 l 242 703 q 342 1079 242 1003 q 442 1111 382 1111 q 571 1083 517 1111 q 588 1076 582 1078 l 588 994 l 475 994 q 372 786 382 994 q 369 703 369 751 l 369 122 q 315 -207 369 -118 q 173 -283 268 -283 q 26 -249 78 -283 l 26 -167 z "},"≈":{"ha":729,"x_min":64,"x_max":665,"o":"m 208 442 q 274 450 238 450 q 373 424 311 450 q 470 399 435 399 q 527 405 506 399 q 582 428 549 411 q 633 453 615 446 l 664 386 q 626 355 657 381 q 578 319 594 329 q 481 286 528 286 q 371 313 433 286 q 272 339 308 339 q 208 331 235 339 q 149 308 182 322 q 94 286 117 293 l 65 351 q 208 442 156 426 m 208 689 q 274 697 238 697 q 373 672 311 697 q 470 646 435 646 q 527 652 506 646 q 582 676 549 658 q 633 700 615 693 l 664 633 q 626 602 657 628 q 578 567 594 576 q 481 533 528 533 q 371 560 433 533 q 272 586 308 586 q 208 578 235 586 q 149 555 182 569 q 94 533 117 540 l 65 599 q 208 689 156 675 z "},"≠":{"ha":644,"x_min":25,"x_max":619,"o":"m 26 283 l 26 410 l 232 410 l 329 571 l 26 571 l 26 696 l 404 696 l 465 796 l 554 796 l 493 696 l 619 696 l 619 571 l 418 571 l 321 410 l 619 410 l 619 283 l 246 283 l 176 168 l 88 168 l 157 283 l 26 283 z "},"≤":{"ha":650,"x_min":64,"x_max":588,"o":"m 65 136 l 65 251 l 586 251 l 586 136 l 65 136 m 65 538 l 65 667 l 586 882 l 586 751 l 221 603 l 586 440 l 586 308 l 65 538 z "},"≥":{"ha":650,"x_min":64,"x_max":588,"o":"m 65 136 l 65 251 l 588 251 l 588 136 l 65 136 m 67 308 l 67 440 l 431 603 l 67 751 l 67 881 l 588 667 l 588 538 l 67 308 z "},"◊":{"ha":721,"x_min":25,"x_max":696,"o":"m 26 518 l 314 1017 l 417 1017 l 696 518 l 417 0 l 314 0 l 26 518 m 168 518 l 365 167 l 554 518 l 365 856 l 168 518 z "},"ﬀ":{"ha":1090,"x_min":25,"x_max":1067,"o":"m 26 622 l 26 714 l 164 738 l 164 861 q 343 1078 164 1078 q 538 1044 435 1078 l 538 964 l 379 965 q 362 965 376 965 q 329 958 347 965 q 303 932 311 950 q 292 850 292 904 l 292 738 l 690 738 l 690 875 q 719 1017 690 971 q 866 1092 767 1092 q 1065 1058 965 1092 l 1065 978 l 906 979 q 824 933 835 981 q 818 863 818 910 l 818 738 l 1010 738 l 1010 622 l 815 622 l 815 0 l 688 0 l 688 622 l 289 622 l 289 0 l 161 0 l 161 622 l 26 622 z "},"ﬁ":{"ha":851,"x_min":25,"x_max":781,"o":"m 26 622 l 26 714 l 157 738 l 157 806 q 233 1011 157 931 q 439 1092 311 1092 q 579 1077 490 1092 q 717 1046 668 1063 l 717 965 l 474 979 q 449 979 467 979 q 404 973 432 979 q 347 949 376 967 q 285 804 285 910 l 285 738 l 781 724 l 781 0 l 651 0 l 651 622 l 285 622 l 285 0 l 157 0 l 157 622 l 26 622 z "},"ﬂ":{"ha":997,"x_min":25,"x_max":972,"o":"m 158 808 q 217 1015 158 939 q 397 1092 276 1092 l 782 1092 l 782 271 q 813 138 782 165 q 857 115 826 125 q 972 86 963 86 l 972 0 l 839 0 q 697 59 740 0 q 654 263 654 118 l 654 979 l 425 979 q 350 965 378 979 q 286 808 286 938 l 286 738 l 478 738 l 478 622 l 283 622 l 283 0 l 156 0 l 156 622 l 26 622 l 26 714 l 158 738 l 158 808 z "},"ﬃ":{"ha":1363,"x_min":25,"x_max":1286,"o":"m 164 861 q 343 1078 164 1078 q 538 1044 435 1078 l 538 964 l 379 965 q 299 919 310 965 q 292 850 292 896 l 289 738 l 664 738 l 664 806 q 740 1011 664 932 q 946 1092 818 1092 q 1084 1077 996 1092 q 1222 1046 1172 1063 l 1222 965 l 981 979 q 959 979 972 979 q 924 976 946 979 q 877 962 903 974 q 833 931 851 950 q 792 804 792 888 l 792 738 l 1286 724 l 1286 0 l 1157 0 l 1157 622 l 790 622 l 790 0 l 663 0 l 663 622 l 289 622 l 289 0 l 161 0 l 161 622 l 26 622 l 26 714 l 164 738 l 164 861 z "},"ﬄ":{"ha":1504,"x_min":25,"x_max":1481,"o":"m 26 622 l 26 714 l 164 738 l 164 861 q 343 1078 164 1078 q 538 1044 435 1078 l 538 964 l 379 965 q 299 919 310 965 q 292 850 292 896 l 289 738 l 665 738 l 665 808 q 769 1053 665 985 q 904 1089 824 1089 l 1289 1089 l 1289 271 q 1304 158 1289 186 q 1364 115 1319 129 q 1479 86 1469 86 l 1479 0 l 1347 0 q 1204 59 1247 0 q 1161 263 1161 118 l 1161 979 l 932 979 q 857 965 886 979 q 793 808 793 938 l 793 738 l 986 738 l 986 622 l 790 622 l 790 0 l 663 0 l 663 622 l 289 622 l 289 0 l 161 0 l 161 622 l 26 622 z "},"ﬆ":{"ha":1229,"x_min":51,"x_max":1197,"o":"m 246 739 l 868 739 l 894 944 l 996 944 l 996 739 l 1197 739 l 1197 626 l 996 626 l 996 272 q 1010 155 996 176 q 1035 128 1024 133 q 1110 106 1047 122 q 1175 90 1172 90 l 1175 1 l 1051 1 q 910 60 953 1 q 868 264 868 119 l 868 624 l 260 622 q 193 606 207 622 q 179 549 179 589 l 179 492 q 203 431 179 442 q 260 421 222 421 l 467 421 q 571 396 528 421 q 651 238 651 350 l 651 175 q 471 -7 651 -7 q 263 3 407 -7 q 82 24 119 14 l 82 113 l 454 113 q 524 179 524 113 l 524 231 q 497 292 524 276 q 454 300 481 300 l 247 300 q 99 341 146 300 q 51 486 51 382 l 51 553 q 97 690 51 642 q 246 739 143 739 z "}}}
